<svg width="179" height="140" viewBox="0 0 179 140" fill="none" xmlns="http://www.w3.org/2000/svg">
<g opacity="0.15">
<path d="M1.94883 3.88767C3.02514 3.88767 3.89771 3.0174 3.89771 1.94385C3.89771 0.870298 3.02514 0 1.94883 0C0.872516 0 0 0.870298 0 1.94385C0 3.0174 0.872516 3.88767 1.94883 3.88767Z" fill="#00ABEB"/>
<path d="M15.4179 3.88767C16.4943 3.88767 17.3668 3.0174 17.3668 1.94385C17.3668 0.870298 16.4943 0 15.4179 0C14.3416 0 13.4691 0.870298 13.4691 1.94385C13.4691 3.0174 14.3416 3.88767 15.4179 3.88767Z" fill="#00ABEB"/>
<path d="M28.8871 3.88767C29.9634 3.88767 30.8359 3.0174 30.8359 1.94385C30.8359 0.870298 29.9634 0 28.8871 0C27.8107 0 26.9382 0.870298 26.9382 1.94385C26.9382 3.0174 27.8107 3.88767 28.8871 3.88767Z" fill="#00ABEB"/>
<path d="M42.3602 3.88767C43.4365 3.88767 44.309 3.0174 44.309 1.94385C44.309 0.870298 43.4365 0 42.3602 0C41.2839 0 40.4114 0.870298 40.4114 1.94385C40.4114 3.0174 41.2839 3.88767 42.3602 3.88767Z" fill="#00ABEB"/>
<path d="M55.8293 3.88767C56.9056 3.88767 57.7781 3.0174 57.7781 1.94385C57.7781 0.870298 56.9056 0 55.8293 0C54.7529 0 53.8804 0.870298 53.8804 1.94385C53.8804 3.0174 54.7529 3.88767 55.8293 3.88767Z" fill="#00ABEB"/>
<path d="M69.2984 3.88767C70.3747 3.88767 71.2472 3.0174 71.2472 1.94385C71.2472 0.870298 70.3747 0 69.2984 0C68.2221 0 67.3495 0.870298 67.3495 1.94385C67.3495 3.0174 68.2221 3.88767 69.2984 3.88767Z" fill="#00ABEB"/>
<path d="M82.7674 3.88767C83.8437 3.88767 84.7163 3.0174 84.7163 1.94385C84.7163 0.870298 83.8437 0 82.7674 0C81.6911 0 80.8186 0.870298 80.8186 1.94385C80.8186 3.0174 81.6911 3.88767 82.7674 3.88767Z" fill="#00ABEB"/>
<path d="M96.2365 3.88767C97.3129 3.88767 98.1854 3.0174 98.1854 1.94385C98.1854 0.870298 97.3129 0 96.2365 0C95.1602 0 94.2877 0.870298 94.2877 1.94385C94.2877 3.0174 95.1602 3.88767 96.2365 3.88767Z" fill="#00ABEB"/>
<path d="M109.706 3.88767C110.782 3.88767 111.655 3.0174 111.655 1.94385C111.655 0.870298 110.782 0 109.706 0C108.629 0 107.757 0.870298 107.757 1.94385C107.757 3.0174 108.629 3.88767 109.706 3.88767Z" fill="#00ABEB"/>
<path d="M123.175 3.88767C124.251 3.88767 125.124 3.0174 125.124 1.94385C125.124 0.870298 124.251 0 123.175 0C122.098 0 121.226 0.870298 121.226 1.94385C121.226 3.0174 122.098 3.88767 123.175 3.88767Z" fill="#00ABEB"/>
<path d="M136.644 3.88767C137.72 3.88767 138.593 3.0174 138.593 1.94385C138.593 0.870298 137.72 0 136.644 0C135.568 0 134.695 0.870298 134.695 1.94385C134.695 3.0174 135.568 3.88767 136.644 3.88767Z" fill="#00ABEB"/>
<path d="M150.113 3.88767C151.189 3.88767 152.062 3.0174 152.062 1.94385C152.062 0.870298 151.189 0 150.113 0C149.037 0 148.164 0.870298 148.164 1.94385C148.164 3.0174 149.037 3.88767 150.113 3.88767Z" fill="#00ABEB"/>
<path d="M163.582 3.88767C164.658 3.88767 165.531 3.0174 165.531 1.94385C165.531 0.870298 164.658 0 163.582 0C162.506 0 161.633 0.870298 161.633 1.94385C161.633 3.0174 162.506 3.88767 163.582 3.88767Z" fill="#00ABEB"/>
<path d="M177.051 3.88767C178.127 3.88767 179 3.0174 179 1.94385C179 0.870298 178.127 0 177.051 0C175.975 0 175.102 0.870298 175.102 1.94385C175.102 3.0174 175.975 3.88767 177.051 3.88767Z" fill="#00ABEB"/>
<path d="M1.94883 16.2601C3.02514 16.2601 3.89771 15.3898 3.89771 14.3163C3.89771 13.2427 3.02514 12.3724 1.94883 12.3724C0.872516 12.3724 0 13.2427 0 14.3163C0 15.3898 0.872516 16.2601 1.94883 16.2601Z" fill="#00ABEB"/>
<path d="M15.4179 16.2601C16.4943 16.2601 17.3668 15.3898 17.3668 14.3163C17.3668 13.2427 16.4943 12.3724 15.4179 12.3724C14.3416 12.3724 13.4691 13.2427 13.4691 14.3163C13.4691 15.3898 14.3416 16.2601 15.4179 16.2601Z" fill="#00ABEB"/>
<path d="M28.8871 16.2601C29.9634 16.2601 30.8359 15.3898 30.8359 14.3163C30.8359 13.2427 29.9634 12.3724 28.8871 12.3724C27.8107 12.3724 26.9382 13.2427 26.9382 14.3163C26.9382 15.3898 27.8107 16.2601 28.8871 16.2601Z" fill="#00ABEB"/>
<path d="M42.3602 16.2601C43.4365 16.2601 44.309 15.3898 44.309 14.3163C44.309 13.2427 43.4365 12.3724 42.3602 12.3724C41.2839 12.3724 40.4114 13.2427 40.4114 14.3163C40.4114 15.3898 41.2839 16.2601 42.3602 16.2601Z" fill="#00ABEB"/>
<path d="M55.8293 16.2601C56.9056 16.2601 57.7781 15.3898 57.7781 14.3163C57.7781 13.2427 56.9056 12.3724 55.8293 12.3724C54.7529 12.3724 53.8804 13.2427 53.8804 14.3163C53.8804 15.3898 54.7529 16.2601 55.8293 16.2601Z" fill="#00ABEB"/>
<path d="M69.2984 16.2601C70.3747 16.2601 71.2472 15.3898 71.2472 14.3163C71.2472 13.2427 70.3747 12.3724 69.2984 12.3724C68.2221 12.3724 67.3495 13.2427 67.3495 14.3163C67.3495 15.3898 68.2221 16.2601 69.2984 16.2601Z" fill="#00ABEB"/>
<path d="M82.7674 16.2601C83.8437 16.2601 84.7163 15.3898 84.7163 14.3163C84.7163 13.2427 83.8437 12.3724 82.7674 12.3724C81.6911 12.3724 80.8186 13.2427 80.8186 14.3163C80.8186 15.3898 81.6911 16.2601 82.7674 16.2601Z" fill="#00ABEB"/>
<path d="M96.2365 16.2601C97.3129 16.2601 98.1854 15.3898 98.1854 14.3163C98.1854 13.2427 97.3129 12.3724 96.2365 12.3724C95.1602 12.3724 94.2877 13.2427 94.2877 14.3163C94.2877 15.3898 95.1602 16.2601 96.2365 16.2601Z" fill="#00ABEB"/>
<path d="M109.706 16.2601C110.782 16.2601 111.655 15.3898 111.655 14.3163C111.655 13.2427 110.782 12.3724 109.706 12.3724C108.629 12.3724 107.757 13.2427 107.757 14.3163C107.757 15.3898 108.629 16.2601 109.706 16.2601Z" fill="#00ABEB"/>
<path d="M123.175 16.2601C124.251 16.2601 125.124 15.3898 125.124 14.3163C125.124 13.2427 124.251 12.3724 123.175 12.3724C122.098 12.3724 121.226 13.2427 121.226 14.3163C121.226 15.3898 122.098 16.2601 123.175 16.2601Z" fill="#00ABEB"/>
<path d="M136.644 16.2601C137.72 16.2601 138.593 15.3898 138.593 14.3163C138.593 13.2427 137.72 12.3724 136.644 12.3724C135.568 12.3724 134.695 13.2427 134.695 14.3163C134.695 15.3898 135.568 16.2601 136.644 16.2601Z" fill="#00ABEB"/>
<path d="M150.113 16.2601C151.189 16.2601 152.062 15.3898 152.062 14.3163C152.062 13.2427 151.189 12.3724 150.113 12.3724C149.037 12.3724 148.164 13.2427 148.164 14.3163C148.164 15.3898 149.037 16.2601 150.113 16.2601Z" fill="#00ABEB"/>
<path d="M163.582 16.2601C164.658 16.2601 165.531 15.3898 165.531 14.3163C165.531 13.2427 164.658 12.3724 163.582 12.3724C162.506 12.3724 161.633 13.2427 161.633 14.3163C161.633 15.3898 162.506 16.2601 163.582 16.2601Z" fill="#00ABEB"/>
<path d="M177.051 16.2601C178.127 16.2601 179 15.3898 179 14.3163C179 13.2427 178.127 12.3724 177.051 12.3724C175.975 12.3724 175.102 13.2427 175.102 14.3163C175.102 15.3898 175.975 16.2601 177.051 16.2601Z" fill="#00ABEB"/>
<path d="M1.94883 28.6324C3.02514 28.6324 3.89771 27.7621 3.89771 26.6886C3.89771 25.615 3.02514 24.7448 1.94883 24.7448C0.872516 24.7448 0 25.615 0 26.6886C0 27.7621 0.872516 28.6324 1.94883 28.6324Z" fill="#00ABEB"/>
<path d="M15.4179 28.6324C16.4943 28.6324 17.3668 27.7621 17.3668 26.6886C17.3668 25.615 16.4943 24.7448 15.4179 24.7448C14.3416 24.7448 13.4691 25.615 13.4691 26.6886C13.4691 27.7621 14.3416 28.6324 15.4179 28.6324Z" fill="#00ABEB"/>
<path d="M28.8871 28.6324C29.9634 28.6324 30.8359 27.7621 30.8359 26.6886C30.8359 25.615 29.9634 24.7448 28.8871 24.7448C27.8107 24.7448 26.9382 25.615 26.9382 26.6886C26.9382 27.7621 27.8107 28.6324 28.8871 28.6324Z" fill="#00ABEB"/>
<path d="M42.3602 28.6324C43.4365 28.6324 44.309 27.7621 44.309 26.6886C44.309 25.615 43.4365 24.7448 42.3602 24.7448C41.2839 24.7448 40.4114 25.615 40.4114 26.6886C40.4114 27.7621 41.2839 28.6324 42.3602 28.6324Z" fill="#00ABEB"/>
<path d="M55.8293 28.6324C56.9056 28.6324 57.7781 27.7621 57.7781 26.6886C57.7781 25.615 56.9056 24.7448 55.8293 24.7448C54.7529 24.7448 53.8804 25.615 53.8804 26.6886C53.8804 27.7621 54.7529 28.6324 55.8293 28.6324Z" fill="#00ABEB"/>
<path d="M69.2984 28.6324C70.3747 28.6324 71.2472 27.7621 71.2472 26.6886C71.2472 25.615 70.3747 24.7448 69.2984 24.7448C68.2221 24.7448 67.3495 25.615 67.3495 26.6886C67.3495 27.7621 68.2221 28.6324 69.2984 28.6324Z" fill="#00ABEB"/>
<path d="M82.7674 28.6324C83.8437 28.6324 84.7163 27.7621 84.7163 26.6886C84.7163 25.615 83.8437 24.7448 82.7674 24.7448C81.6911 24.7448 80.8186 25.615 80.8186 26.6886C80.8186 27.7621 81.6911 28.6324 82.7674 28.6324Z" fill="#00ABEB"/>
<path d="M96.2365 28.6324C97.3129 28.6324 98.1854 27.7621 98.1854 26.6886C98.1854 25.615 97.3129 24.7448 96.2365 24.7448C95.1602 24.7448 94.2877 25.615 94.2877 26.6886C94.2877 27.7621 95.1602 28.6324 96.2365 28.6324Z" fill="#00ABEB"/>
<path d="M109.706 28.6324C110.782 28.6324 111.655 27.7621 111.655 26.6886C111.655 25.615 110.782 24.7448 109.706 24.7448C108.629 24.7448 107.757 25.615 107.757 26.6886C107.757 27.7621 108.629 28.6324 109.706 28.6324Z" fill="#00ABEB"/>
<path d="M123.175 28.6324C124.251 28.6324 125.124 27.7621 125.124 26.6886C125.124 25.615 124.251 24.7448 123.175 24.7448C122.098 24.7448 121.226 25.615 121.226 26.6886C121.226 27.7621 122.098 28.6324 123.175 28.6324Z" fill="#00ABEB"/>
<path d="M136.644 28.6324C137.72 28.6324 138.593 27.7621 138.593 26.6886C138.593 25.615 137.72 24.7448 136.644 24.7448C135.568 24.7448 134.695 25.615 134.695 26.6886C134.695 27.7621 135.568 28.6324 136.644 28.6324Z" fill="#00ABEB"/>
<path d="M150.113 28.6324C151.189 28.6324 152.062 27.7621 152.062 26.6886C152.062 25.615 151.189 24.7448 150.113 24.7448C149.037 24.7448 148.164 25.615 148.164 26.6886C148.164 27.7621 149.037 28.6324 150.113 28.6324Z" fill="#00ABEB"/>
<path d="M163.582 28.6324C164.658 28.6324 165.531 27.7621 165.531 26.6886C165.531 25.615 164.658 24.7448 163.582 24.7448C162.506 24.7448 161.633 25.615 161.633 26.6886C161.633 27.7621 162.506 28.6324 163.582 28.6324Z" fill="#00ABEB"/>
<path d="M177.051 28.6324C178.127 28.6324 179 27.7621 179 26.6886C179 25.615 178.127 24.7448 177.051 24.7448C175.975 24.7448 175.102 25.615 175.102 26.6886C175.102 27.7621 175.975 28.6324 177.051 28.6324Z" fill="#00ABEB"/>
<path d="M1.94883 41.0089C3.02514 41.0089 3.89771 40.1386 3.89771 39.065C3.89771 37.9915 3.02514 37.1212 1.94883 37.1212C0.872516 37.1212 0 37.9915 0 39.065C0 40.1386 0.872516 41.0089 1.94883 41.0089Z" fill="#00ABEB"/>
<path d="M15.4179 41.0089C16.4943 41.0089 17.3668 40.1386 17.3668 39.065C17.3668 37.9915 16.4943 37.1212 15.4179 37.1212C14.3416 37.1212 13.4691 37.9915 13.4691 39.065C13.4691 40.1386 14.3416 41.0089 15.4179 41.0089Z" fill="#00ABEB"/>
<path d="M28.8871 41.0089C29.9634 41.0089 30.8359 40.1386 30.8359 39.065C30.8359 37.9915 29.9634 37.1212 28.8871 37.1212C27.8107 37.1212 26.9382 37.9915 26.9382 39.065C26.9382 40.1386 27.8107 41.0089 28.8871 41.0089Z" fill="#00ABEB"/>
<path d="M42.3602 41.0089C43.4365 41.0089 44.309 40.1386 44.309 39.065C44.309 37.9915 43.4365 37.1212 42.3602 37.1212C41.2839 37.1212 40.4114 37.9915 40.4114 39.065C40.4114 40.1386 41.2839 41.0089 42.3602 41.0089Z" fill="#00ABEB"/>
<path d="M55.8293 41.0089C56.9056 41.0089 57.7781 40.1386 57.7781 39.065C57.7781 37.9915 56.9056 37.1212 55.8293 37.1212C54.7529 37.1212 53.8804 37.9915 53.8804 39.065C53.8804 40.1386 54.7529 41.0089 55.8293 41.0089Z" fill="#00ABEB"/>
<path d="M69.2984 41.0089C70.3747 41.0089 71.2472 40.1386 71.2472 39.065C71.2472 37.9915 70.3747 37.1212 69.2984 37.1212C68.2221 37.1212 67.3495 37.9915 67.3495 39.065C67.3495 40.1386 68.2221 41.0089 69.2984 41.0089Z" fill="#00ABEB"/>
<path d="M82.7674 41.0089C83.8437 41.0089 84.7163 40.1386 84.7163 39.065C84.7163 37.9915 83.8437 37.1212 82.7674 37.1212C81.6911 37.1212 80.8186 37.9915 80.8186 39.065C80.8186 40.1386 81.6911 41.0089 82.7674 41.0089Z" fill="#00ABEB"/>
<path d="M96.2365 41.0089C97.3129 41.0089 98.1854 40.1386 98.1854 39.065C98.1854 37.9915 97.3129 37.1212 96.2365 37.1212C95.1602 37.1212 94.2877 37.9915 94.2877 39.065C94.2877 40.1386 95.1602 41.0089 96.2365 41.0089Z" fill="#00ABEB"/>
<path d="M109.706 41.0089C110.782 41.0089 111.655 40.1386 111.655 39.065C111.655 37.9915 110.782 37.1212 109.706 37.1212C108.629 37.1212 107.757 37.9915 107.757 39.065C107.757 40.1386 108.629 41.0089 109.706 41.0089Z" fill="#00ABEB"/>
<path d="M123.175 41.0089C124.251 41.0089 125.124 40.1386 125.124 39.065C125.124 37.9915 124.251 37.1212 123.175 37.1212C122.098 37.1212 121.226 37.9915 121.226 39.065C121.226 40.1386 122.098 41.0089 123.175 41.0089Z" fill="#00ABEB"/>
<path d="M136.644 41.0089C137.72 41.0089 138.593 40.1386 138.593 39.065C138.593 37.9915 137.72 37.1212 136.644 37.1212C135.568 37.1212 134.695 37.9915 134.695 39.065C134.695 40.1386 135.568 41.0089 136.644 41.0089Z" fill="#00ABEB"/>
<path d="M150.113 41.0089C151.189 41.0089 152.062 40.1386 152.062 39.065C152.062 37.9915 151.189 37.1212 150.113 37.1212C149.037 37.1212 148.164 37.9915 148.164 39.065C148.164 40.1386 149.037 41.0089 150.113 41.0089Z" fill="#00ABEB"/>
<path d="M163.582 41.0089C164.658 41.0089 165.531 40.1386 165.531 39.065C165.531 37.9915 164.658 37.1212 163.582 37.1212C162.506 37.1212 161.633 37.9915 161.633 39.065C161.633 40.1386 162.506 41.0089 163.582 41.0089Z" fill="#00ABEB"/>
<path d="M177.051 41.0089C178.127 41.0089 179 40.1386 179 39.065C179 37.9915 178.127 37.1212 177.051 37.1212C175.975 37.1212 175.102 37.9915 175.102 39.065C175.102 40.1386 175.975 41.0089 177.051 41.0089Z" fill="#00ABEB"/>
<path d="M1.94883 53.3813C3.02514 53.3813 3.89771 52.511 3.89771 51.4375C3.89771 50.3639 3.02514 49.4937 1.94883 49.4937C0.872516 49.4937 0 50.3639 0 51.4375C0 52.511 0.872516 53.3813 1.94883 53.3813Z" fill="#00ABEB"/>
<path d="M15.4179 53.3813C16.4943 53.3813 17.3668 52.511 17.3668 51.4375C17.3668 50.3639 16.4943 49.4937 15.4179 49.4937C14.3416 49.4937 13.4691 50.3639 13.4691 51.4375C13.4691 52.511 14.3416 53.3813 15.4179 53.3813Z" fill="#00ABEB"/>
<path d="M28.8871 53.3813C29.9634 53.3813 30.8359 52.511 30.8359 51.4375C30.8359 50.3639 29.9634 49.4937 28.8871 49.4937C27.8107 49.4937 26.9382 50.3639 26.9382 51.4375C26.9382 52.511 27.8107 53.3813 28.8871 53.3813Z" fill="#00ABEB"/>
<path d="M42.3602 53.3813C43.4365 53.3813 44.309 52.511 44.309 51.4375C44.309 50.3639 43.4365 49.4937 42.3602 49.4937C41.2839 49.4937 40.4114 50.3639 40.4114 51.4375C40.4114 52.511 41.2839 53.3813 42.3602 53.3813Z" fill="#00ABEB"/>
<path d="M55.8293 53.3813C56.9056 53.3813 57.7781 52.511 57.7781 51.4375C57.7781 50.3639 56.9056 49.4937 55.8293 49.4937C54.7529 49.4937 53.8804 50.3639 53.8804 51.4375C53.8804 52.511 54.7529 53.3813 55.8293 53.3813Z" fill="#00ABEB"/>
<path d="M69.2984 53.3813C70.3747 53.3813 71.2472 52.511 71.2472 51.4375C71.2472 50.3639 70.3747 49.4937 69.2984 49.4937C68.2221 49.4937 67.3495 50.3639 67.3495 51.4375C67.3495 52.511 68.2221 53.3813 69.2984 53.3813Z" fill="#00ABEB"/>
<path d="M82.7674 53.3813C83.8437 53.3813 84.7163 52.511 84.7163 51.4375C84.7163 50.3639 83.8437 49.4937 82.7674 49.4937C81.6911 49.4937 80.8186 50.3639 80.8186 51.4375C80.8186 52.511 81.6911 53.3813 82.7674 53.3813Z" fill="#00ABEB"/>
<path d="M96.2365 53.3813C97.3129 53.3813 98.1854 52.511 98.1854 51.4375C98.1854 50.3639 97.3129 49.4937 96.2365 49.4937C95.1602 49.4937 94.2877 50.3639 94.2877 51.4375C94.2877 52.511 95.1602 53.3813 96.2365 53.3813Z" fill="#00ABEB"/>
<path d="M109.706 53.3813C110.782 53.3813 111.655 52.511 111.655 51.4375C111.655 50.3639 110.782 49.4937 109.706 49.4937C108.629 49.4937 107.757 50.3639 107.757 51.4375C107.757 52.511 108.629 53.3813 109.706 53.3813Z" fill="#00ABEB"/>
<path d="M123.175 53.3813C124.251 53.3813 125.124 52.511 125.124 51.4375C125.124 50.3639 124.251 49.4937 123.175 49.4937C122.098 49.4937 121.226 50.3639 121.226 51.4375C121.226 52.511 122.098 53.3813 123.175 53.3813Z" fill="#00ABEB"/>
<path d="M136.644 53.3813C137.72 53.3813 138.593 52.511 138.593 51.4375C138.593 50.3639 137.72 49.4937 136.644 49.4937C135.568 49.4937 134.695 50.3639 134.695 51.4375C134.695 52.511 135.568 53.3813 136.644 53.3813Z" fill="#00ABEB"/>
<path d="M150.113 53.3813C151.189 53.3813 152.062 52.511 152.062 51.4375C152.062 50.3639 151.189 49.4937 150.113 49.4937C149.037 49.4937 148.164 50.3639 148.164 51.4375C148.164 52.511 149.037 53.3813 150.113 53.3813Z" fill="#00ABEB"/>
<path d="M163.582 53.3813C164.658 53.3813 165.531 52.511 165.531 51.4375C165.531 50.3639 164.658 49.4937 163.582 49.4937C162.506 49.4937 161.633 50.3639 161.633 51.4375C161.633 52.511 162.506 53.3813 163.582 53.3813Z" fill="#00ABEB"/>
<path d="M177.051 53.3813C178.127 53.3813 179 52.511 179 51.4375C179 50.3639 178.127 49.4937 177.051 49.4937C175.975 49.4937 175.102 50.3639 175.102 51.4375C175.102 52.511 175.975 53.3813 177.051 53.3813Z" fill="#00ABEB"/>
<path d="M1.94883 65.7576C3.02514 65.7576 3.89771 64.8874 3.89771 63.8138C3.89771 62.7403 3.02514 61.87 1.94883 61.87C0.872516 61.87 0 62.7403 0 63.8138C0 64.8874 0.872516 65.7576 1.94883 65.7576Z" fill="#00ABEB"/>
<path d="M15.4179 65.7576C16.4943 65.7576 17.3668 64.8874 17.3668 63.8138C17.3668 62.7403 16.4943 61.87 15.4179 61.87C14.3416 61.87 13.4691 62.7403 13.4691 63.8138C13.4691 64.8874 14.3416 65.7576 15.4179 65.7576Z" fill="#00ABEB"/>
<path d="M28.8871 65.7576C29.9634 65.7576 30.8359 64.8874 30.8359 63.8138C30.8359 62.7403 29.9634 61.87 28.8871 61.87C27.8107 61.87 26.9382 62.7403 26.9382 63.8138C26.9382 64.8874 27.8107 65.7576 28.8871 65.7576Z" fill="#00ABEB"/>
<path d="M42.3602 65.7576C43.4365 65.7576 44.309 64.8874 44.309 63.8138C44.309 62.7403 43.4365 61.87 42.3602 61.87C41.2839 61.87 40.4114 62.7403 40.4114 63.8138C40.4114 64.8874 41.2839 65.7576 42.3602 65.7576Z" fill="#00ABEB"/>
<path d="M55.8293 65.7576C56.9056 65.7576 57.7781 64.8874 57.7781 63.8138C57.7781 62.7403 56.9056 61.87 55.8293 61.87C54.7529 61.87 53.8804 62.7403 53.8804 63.8138C53.8804 64.8874 54.7529 65.7576 55.8293 65.7576Z" fill="#00ABEB"/>
<path d="M69.2984 65.7576C70.3747 65.7576 71.2472 64.8874 71.2472 63.8138C71.2472 62.7403 70.3747 61.87 69.2984 61.87C68.2221 61.87 67.3495 62.7403 67.3495 63.8138C67.3495 64.8874 68.2221 65.7576 69.2984 65.7576Z" fill="#00ABEB"/>
<path d="M82.7674 65.7576C83.8437 65.7576 84.7163 64.8874 84.7163 63.8138C84.7163 62.7403 83.8437 61.87 82.7674 61.87C81.6911 61.87 80.8186 62.7403 80.8186 63.8138C80.8186 64.8874 81.6911 65.7576 82.7674 65.7576Z" fill="#00ABEB"/>
<path d="M96.2365 65.7576C97.3129 65.7576 98.1854 64.8874 98.1854 63.8138C98.1854 62.7403 97.3129 61.87 96.2365 61.87C95.1602 61.87 94.2877 62.7403 94.2877 63.8138C94.2877 64.8874 95.1602 65.7576 96.2365 65.7576Z" fill="#00ABEB"/>
<path d="M109.706 65.7576C110.782 65.7576 111.655 64.8874 111.655 63.8138C111.655 62.7403 110.782 61.87 109.706 61.87C108.629 61.87 107.757 62.7403 107.757 63.8138C107.757 64.8874 108.629 65.7576 109.706 65.7576Z" fill="#00ABEB"/>
<path d="M123.175 65.7576C124.251 65.7576 125.124 64.8874 125.124 63.8138C125.124 62.7403 124.251 61.87 123.175 61.87C122.098 61.87 121.226 62.7403 121.226 63.8138C121.226 64.8874 122.098 65.7576 123.175 65.7576Z" fill="#00ABEB"/>
<path d="M136.644 65.7576C137.72 65.7576 138.593 64.8874 138.593 63.8138C138.593 62.7403 137.72 61.87 136.644 61.87C135.568 61.87 134.695 62.7403 134.695 63.8138C134.695 64.8874 135.568 65.7576 136.644 65.7576Z" fill="#00ABEB"/>
<path d="M150.113 65.7576C151.189 65.7576 152.062 64.8874 152.062 63.8138C152.062 62.7403 151.189 61.87 150.113 61.87C149.037 61.87 148.164 62.7403 148.164 63.8138C148.164 64.8874 149.037 65.7576 150.113 65.7576Z" fill="#00ABEB"/>
<path d="M163.582 65.7576C164.658 65.7576 165.531 64.8874 165.531 63.8138C165.531 62.7403 164.658 61.87 163.582 61.87C162.506 61.87 161.633 62.7403 161.633 63.8138C161.633 64.8874 162.506 65.7576 163.582 65.7576Z" fill="#00ABEB"/>
<path d="M177.051 65.7576C178.127 65.7576 179 64.8874 179 63.8138C179 62.7403 178.127 61.87 177.051 61.87C175.975 61.87 175.102 62.7403 175.102 63.8138C175.102 64.8874 175.975 65.7576 177.051 65.7576Z" fill="#00ABEB"/>
<path d="M1.94883 78.1301C3.02514 78.1301 3.89771 77.2598 3.89771 76.1863C3.89771 75.1127 3.02514 74.2424 1.94883 74.2424C0.872516 74.2424 0 75.1127 0 76.1863C0 77.2598 0.872516 78.1301 1.94883 78.1301Z" fill="#00ABEB"/>
<path d="M15.4179 78.1301C16.4943 78.1301 17.3668 77.2598 17.3668 76.1863C17.3668 75.1127 16.4943 74.2424 15.4179 74.2424C14.3416 74.2424 13.4691 75.1127 13.4691 76.1863C13.4691 77.2598 14.3416 78.1301 15.4179 78.1301Z" fill="#00ABEB"/>
<path d="M28.8871 78.1301C29.9634 78.1301 30.8359 77.2598 30.8359 76.1863C30.8359 75.1127 29.9634 74.2424 28.8871 74.2424C27.8107 74.2424 26.9382 75.1127 26.9382 76.1863C26.9382 77.2598 27.8107 78.1301 28.8871 78.1301Z" fill="#00ABEB"/>
<path d="M42.3602 78.1301C43.4365 78.1301 44.309 77.2598 44.309 76.1863C44.309 75.1127 43.4365 74.2424 42.3602 74.2424C41.2839 74.2424 40.4114 75.1127 40.4114 76.1863C40.4114 77.2598 41.2839 78.1301 42.3602 78.1301Z" fill="#00ABEB"/>
<path d="M55.8293 78.1301C56.9056 78.1301 57.7781 77.2598 57.7781 76.1863C57.7781 75.1127 56.9056 74.2424 55.8293 74.2424C54.7529 74.2424 53.8804 75.1127 53.8804 76.1863C53.8804 77.2598 54.7529 78.1301 55.8293 78.1301Z" fill="#00ABEB"/>
<path d="M69.2984 78.1301C70.3747 78.1301 71.2472 77.2598 71.2472 76.1863C71.2472 75.1127 70.3747 74.2424 69.2984 74.2424C68.2221 74.2424 67.3495 75.1127 67.3495 76.1863C67.3495 77.2598 68.2221 78.1301 69.2984 78.1301Z" fill="#00ABEB"/>
<path d="M82.7674 78.1301C83.8437 78.1301 84.7163 77.2598 84.7163 76.1863C84.7163 75.1127 83.8437 74.2424 82.7674 74.2424C81.6911 74.2424 80.8186 75.1127 80.8186 76.1863C80.8186 77.2598 81.6911 78.1301 82.7674 78.1301Z" fill="#00ABEB"/>
<path d="M96.2365 78.1301C97.3129 78.1301 98.1854 77.2598 98.1854 76.1863C98.1854 75.1127 97.3129 74.2424 96.2365 74.2424C95.1602 74.2424 94.2877 75.1127 94.2877 76.1863C94.2877 77.2598 95.1602 78.1301 96.2365 78.1301Z" fill="#00ABEB"/>
<path d="M109.706 78.1301C110.782 78.1301 111.655 77.2598 111.655 76.1863C111.655 75.1127 110.782 74.2424 109.706 74.2424C108.629 74.2424 107.757 75.1127 107.757 76.1863C107.757 77.2598 108.629 78.1301 109.706 78.1301Z" fill="#00ABEB"/>
<path d="M123.175 78.1301C124.251 78.1301 125.124 77.2598 125.124 76.1863C125.124 75.1127 124.251 74.2424 123.175 74.2424C122.098 74.2424 121.226 75.1127 121.226 76.1863C121.226 77.2598 122.098 78.1301 123.175 78.1301Z" fill="#00ABEB"/>
<path d="M136.644 78.1301C137.72 78.1301 138.593 77.2598 138.593 76.1863C138.593 75.1127 137.72 74.2424 136.644 74.2424C135.568 74.2424 134.695 75.1127 134.695 76.1863C134.695 77.2598 135.568 78.1301 136.644 78.1301Z" fill="#00ABEB"/>
<path d="M150.113 78.1301C151.189 78.1301 152.062 77.2598 152.062 76.1863C152.062 75.1127 151.189 74.2424 150.113 74.2424C149.037 74.2424 148.164 75.1127 148.164 76.1863C148.164 77.2598 149.037 78.1301 150.113 78.1301Z" fill="#00ABEB"/>
<path d="M163.582 78.1301C164.658 78.1301 165.531 77.2598 165.531 76.1863C165.531 75.1127 164.658 74.2424 163.582 74.2424C162.506 74.2424 161.633 75.1127 161.633 76.1863C161.633 77.2598 162.506 78.1301 163.582 78.1301Z" fill="#00ABEB"/>
<path d="M177.051 78.1301C178.127 78.1301 179 77.2598 179 76.1863C179 75.1127 178.127 74.2424 177.051 74.2424C175.975 74.2424 175.102 75.1127 175.102 76.1863C175.102 77.2598 175.975 78.1301 177.051 78.1301Z" fill="#00ABEB"/>
<path d="M1.94883 90.5064C3.02514 90.5064 3.89771 89.6361 3.89771 88.5626C3.89771 87.489 3.02514 86.6188 1.94883 86.6188C0.872516 86.6188 0 87.489 0 88.5626C0 89.6361 0.872516 90.5064 1.94883 90.5064Z" fill="#00ABEB"/>
<path d="M15.4179 90.5064C16.4943 90.5064 17.3668 89.6361 17.3668 88.5626C17.3668 87.489 16.4943 86.6188 15.4179 86.6188C14.3416 86.6188 13.4691 87.489 13.4691 88.5626C13.4691 89.6361 14.3416 90.5064 15.4179 90.5064Z" fill="#00ABEB"/>
<path d="M28.8871 90.5064C29.9634 90.5064 30.8359 89.6361 30.8359 88.5626C30.8359 87.489 29.9634 86.6188 28.8871 86.6188C27.8107 86.6188 26.9382 87.489 26.9382 88.5626C26.9382 89.6361 27.8107 90.5064 28.8871 90.5064Z" fill="#00ABEB"/>
<path d="M42.3602 90.5064C43.4365 90.5064 44.309 89.6361 44.309 88.5626C44.309 87.489 43.4365 86.6188 42.3602 86.6188C41.2839 86.6188 40.4114 87.489 40.4114 88.5626C40.4114 89.6361 41.2839 90.5064 42.3602 90.5064Z" fill="#00ABEB"/>
<path d="M55.8293 90.5064C56.9056 90.5064 57.7781 89.6361 57.7781 88.5626C57.7781 87.489 56.9056 86.6188 55.8293 86.6188C54.7529 86.6188 53.8804 87.489 53.8804 88.5626C53.8804 89.6361 54.7529 90.5064 55.8293 90.5064Z" fill="#00ABEB"/>
<path d="M69.2984 90.5064C70.3747 90.5064 71.2472 89.6361 71.2472 88.5626C71.2472 87.489 70.3747 86.6188 69.2984 86.6188C68.2221 86.6188 67.3495 87.489 67.3495 88.5626C67.3495 89.6361 68.2221 90.5064 69.2984 90.5064Z" fill="#00ABEB"/>
<path d="M82.7674 90.5064C83.8437 90.5064 84.7163 89.6361 84.7163 88.5626C84.7163 87.489 83.8437 86.6188 82.7674 86.6188C81.6911 86.6188 80.8186 87.489 80.8186 88.5626C80.8186 89.6361 81.6911 90.5064 82.7674 90.5064Z" fill="#00ABEB"/>
<path d="M96.2365 90.5064C97.3129 90.5064 98.1854 89.6361 98.1854 88.5626C98.1854 87.489 97.3129 86.6188 96.2365 86.6188C95.1602 86.6188 94.2877 87.489 94.2877 88.5626C94.2877 89.6361 95.1602 90.5064 96.2365 90.5064Z" fill="#00ABEB"/>
<path d="M109.706 90.5064C110.782 90.5064 111.655 89.6361 111.655 88.5626C111.655 87.489 110.782 86.6188 109.706 86.6188C108.629 86.6188 107.757 87.489 107.757 88.5626C107.757 89.6361 108.629 90.5064 109.706 90.5064Z" fill="#00ABEB"/>
<path d="M123.175 90.5064C124.251 90.5064 125.124 89.6361 125.124 88.5626C125.124 87.489 124.251 86.6188 123.175 86.6188C122.098 86.6188 121.226 87.489 121.226 88.5626C121.226 89.6361 122.098 90.5064 123.175 90.5064Z" fill="#00ABEB"/>
<path d="M136.644 90.5064C137.72 90.5064 138.593 89.6361 138.593 88.5626C138.593 87.489 137.72 86.6188 136.644 86.6188C135.568 86.6188 134.695 87.489 134.695 88.5626C134.695 89.6361 135.568 90.5064 136.644 90.5064Z" fill="#00ABEB"/>
<path d="M150.113 90.5064C151.189 90.5064 152.062 89.6361 152.062 88.5626C152.062 87.489 151.189 86.6188 150.113 86.6188C149.037 86.6188 148.164 87.489 148.164 88.5626C148.164 89.6361 149.037 90.5064 150.113 90.5064Z" fill="#00ABEB"/>
<path d="M163.582 90.5064C164.658 90.5064 165.531 89.6361 165.531 88.5626C165.531 87.489 164.658 86.6188 163.582 86.6188C162.506 86.6188 161.633 87.489 161.633 88.5626C161.633 89.6361 162.506 90.5064 163.582 90.5064Z" fill="#00ABEB"/>
<path d="M177.051 90.5064C178.127 90.5064 179 89.6361 179 88.5626C179 87.489 178.127 86.6188 177.051 86.6188C175.975 86.6188 175.102 87.489 175.102 88.5626C175.102 89.6361 175.975 90.5064 177.051 90.5064Z" fill="#00ABEB"/>
<path d="M1.94883 102.879C3.02514 102.879 3.89771 102.009 3.89771 100.935C3.89771 99.8615 3.02514 98.9912 1.94883 98.9912C0.872516 98.9912 0 99.8615 0 100.935C0 102.009 0.872516 102.879 1.94883 102.879Z" fill="#00ABEB"/>
<path d="M15.4179 102.879C16.4943 102.879 17.3668 102.009 17.3668 100.935C17.3668 99.8615 16.4943 98.9912 15.4179 98.9912C14.3416 98.9912 13.4691 99.8615 13.4691 100.935C13.4691 102.009 14.3416 102.879 15.4179 102.879Z" fill="#00ABEB"/>
<path d="M28.8871 102.879C29.9634 102.879 30.8359 102.009 30.8359 100.935C30.8359 99.8615 29.9634 98.9912 28.8871 98.9912C27.8107 98.9912 26.9382 99.8615 26.9382 100.935C26.9382 102.009 27.8107 102.879 28.8871 102.879Z" fill="#00ABEB"/>
<path d="M42.3602 102.879C43.4365 102.879 44.309 102.009 44.309 100.935C44.309 99.8615 43.4365 98.9912 42.3602 98.9912C41.2839 98.9912 40.4114 99.8615 40.4114 100.935C40.4114 102.009 41.2839 102.879 42.3602 102.879Z" fill="#00ABEB"/>
<path d="M55.8293 102.879C56.9056 102.879 57.7781 102.009 57.7781 100.935C57.7781 99.8615 56.9056 98.9912 55.8293 98.9912C54.7529 98.9912 53.8804 99.8615 53.8804 100.935C53.8804 102.009 54.7529 102.879 55.8293 102.879Z" fill="#00ABEB"/>
<path d="M69.2984 102.879C70.3747 102.879 71.2472 102.009 71.2472 100.935C71.2472 99.8615 70.3747 98.9912 69.2984 98.9912C68.2221 98.9912 67.3495 99.8615 67.3495 100.935C67.3495 102.009 68.2221 102.879 69.2984 102.879Z" fill="#00ABEB"/>
<path d="M82.7674 102.879C83.8437 102.879 84.7163 102.009 84.7163 100.935C84.7163 99.8615 83.8437 98.9912 82.7674 98.9912C81.6911 98.9912 80.8186 99.8615 80.8186 100.935C80.8186 102.009 81.6911 102.879 82.7674 102.879Z" fill="#00ABEB"/>
<path d="M96.2365 102.879C97.3129 102.879 98.1854 102.009 98.1854 100.935C98.1854 99.8615 97.3129 98.9912 96.2365 98.9912C95.1602 98.9912 94.2877 99.8615 94.2877 100.935C94.2877 102.009 95.1602 102.879 96.2365 102.879Z" fill="#00ABEB"/>
<path d="M109.706 102.879C110.782 102.879 111.655 102.009 111.655 100.935C111.655 99.8615 110.782 98.9912 109.706 98.9912C108.629 98.9912 107.757 99.8615 107.757 100.935C107.757 102.009 108.629 102.879 109.706 102.879Z" fill="#00ABEB"/>
<path d="M123.175 102.879C124.251 102.879 125.124 102.009 125.124 100.935C125.124 99.8615 124.251 98.9912 123.175 98.9912C122.098 98.9912 121.226 99.8615 121.226 100.935C121.226 102.009 122.098 102.879 123.175 102.879Z" fill="#00ABEB"/>
<path d="M136.644 102.879C137.72 102.879 138.593 102.009 138.593 100.935C138.593 99.8615 137.72 98.9912 136.644 98.9912C135.568 98.9912 134.695 99.8615 134.695 100.935C134.695 102.009 135.568 102.879 136.644 102.879Z" fill="#00ABEB"/>
<path d="M150.113 102.879C151.189 102.879 152.062 102.009 152.062 100.935C152.062 99.8615 151.189 98.9912 150.113 98.9912C149.037 98.9912 148.164 99.8615 148.164 100.935C148.164 102.009 149.037 102.879 150.113 102.879Z" fill="#00ABEB"/>
<path d="M163.582 102.879C164.658 102.879 165.531 102.009 165.531 100.935C165.531 99.8615 164.658 98.9912 163.582 98.9912C162.506 98.9912 161.633 99.8615 161.633 100.935C161.633 102.009 162.506 102.879 163.582 102.879Z" fill="#00ABEB"/>
<path d="M177.051 102.879C178.127 102.879 179 102.009 179 100.935C179 99.8615 178.127 98.9912 177.051 98.9912C175.975 98.9912 175.102 99.8615 175.102 100.935C175.102 102.009 175.975 102.879 177.051 102.879Z" fill="#00ABEB"/>
<path d="M1.94883 115.251C3.02514 115.251 3.89771 114.381 3.89771 113.307C3.89771 112.234 3.02514 111.364 1.94883 111.364C0.872516 111.364 0 112.234 0 113.307C0 114.381 0.872516 115.251 1.94883 115.251Z" fill="#00ABEB"/>
<path d="M15.4179 115.251C16.4943 115.251 17.3668 114.381 17.3668 113.307C17.3668 112.234 16.4943 111.364 15.4179 111.364C14.3416 111.364 13.4691 112.234 13.4691 113.307C13.4691 114.381 14.3416 115.251 15.4179 115.251Z" fill="#00ABEB"/>
<path d="M28.8871 115.251C29.9634 115.251 30.8359 114.381 30.8359 113.307C30.8359 112.234 29.9634 111.364 28.8871 111.364C27.8107 111.364 26.9382 112.234 26.9382 113.307C26.9382 114.381 27.8107 115.251 28.8871 115.251Z" fill="#00ABEB"/>
<path d="M42.3602 115.251C43.4365 115.251 44.309 114.381 44.309 113.307C44.309 112.234 43.4365 111.364 42.3602 111.364C41.2839 111.364 40.4114 112.234 40.4114 113.307C40.4114 114.381 41.2839 115.251 42.3602 115.251Z" fill="#00ABEB"/>
<path d="M55.8293 115.251C56.9056 115.251 57.7781 114.381 57.7781 113.307C57.7781 112.234 56.9056 111.364 55.8293 111.364C54.7529 111.364 53.8804 112.234 53.8804 113.307C53.8804 114.381 54.7529 115.251 55.8293 115.251Z" fill="#00ABEB"/>
<path d="M69.2984 115.251C70.3747 115.251 71.2472 114.381 71.2472 113.307C71.2472 112.234 70.3747 111.364 69.2984 111.364C68.2221 111.364 67.3495 112.234 67.3495 113.307C67.3495 114.381 68.2221 115.251 69.2984 115.251Z" fill="#00ABEB"/>
<path d="M82.7674 115.251C83.8437 115.251 84.7163 114.381 84.7163 113.307C84.7163 112.234 83.8437 111.364 82.7674 111.364C81.6911 111.364 80.8186 112.234 80.8186 113.307C80.8186 114.381 81.6911 115.251 82.7674 115.251Z" fill="#00ABEB"/>
<path d="M96.2365 115.251C97.3129 115.251 98.1854 114.381 98.1854 113.307C98.1854 112.234 97.3129 111.364 96.2365 111.364C95.1602 111.364 94.2877 112.234 94.2877 113.307C94.2877 114.381 95.1602 115.251 96.2365 115.251Z" fill="#00ABEB"/>
<path d="M109.706 115.251C110.782 115.251 111.655 114.381 111.655 113.307C111.655 112.234 110.782 111.364 109.706 111.364C108.629 111.364 107.757 112.234 107.757 113.307C107.757 114.381 108.629 115.251 109.706 115.251Z" fill="#00ABEB"/>
<path d="M123.175 115.251C124.251 115.251 125.124 114.381 125.124 113.307C125.124 112.234 124.251 111.364 123.175 111.364C122.098 111.364 121.226 112.234 121.226 113.307C121.226 114.381 122.098 115.251 123.175 115.251Z" fill="#00ABEB"/>
<path d="M136.644 115.251C137.72 115.251 138.593 114.381 138.593 113.307C138.593 112.234 137.72 111.364 136.644 111.364C135.568 111.364 134.695 112.234 134.695 113.307C134.695 114.381 135.568 115.251 136.644 115.251Z" fill="#00ABEB"/>
<path d="M150.113 115.251C151.189 115.251 152.062 114.381 152.062 113.307C152.062 112.234 151.189 111.364 150.113 111.364C149.037 111.364 148.164 112.234 148.164 113.307C148.164 114.381 149.037 115.251 150.113 115.251Z" fill="#00ABEB"/>
<path d="M163.582 115.251C164.658 115.251 165.531 114.381 165.531 113.307C165.531 112.234 164.658 111.364 163.582 111.364C162.506 111.364 161.633 112.234 161.633 113.307C161.633 114.381 162.506 115.251 163.582 115.251Z" fill="#00ABEB"/>
<path d="M177.051 115.251C178.127 115.251 179 114.381 179 113.307C179 112.234 178.127 111.364 177.051 111.364C175.975 111.364 175.102 112.234 175.102 113.307C175.102 114.381 175.975 115.251 177.051 115.251Z" fill="#00ABEB"/>
<path d="M1.94883 127.628C3.02514 127.628 3.89771 126.757 3.89771 125.684C3.89771 124.61 3.02514 123.74 1.94883 123.74C0.872516 123.74 0 124.61 0 125.684C0 126.757 0.872516 127.628 1.94883 127.628Z" fill="#00ABEB"/>
<path d="M15.4179 127.628C16.4943 127.628 17.3668 126.757 17.3668 125.684C17.3668 124.61 16.4943 123.74 15.4179 123.74C14.3416 123.74 13.4691 124.61 13.4691 125.684C13.4691 126.757 14.3416 127.628 15.4179 127.628Z" fill="#00ABEB"/>
<path d="M28.8871 127.628C29.9634 127.628 30.8359 126.757 30.8359 125.684C30.8359 124.61 29.9634 123.74 28.8871 123.74C27.8107 123.74 26.9382 124.61 26.9382 125.684C26.9382 126.757 27.8107 127.628 28.8871 127.628Z" fill="#00ABEB"/>
<path d="M42.3602 127.628C43.4365 127.628 44.309 126.757 44.309 125.684C44.309 124.61 43.4365 123.74 42.3602 123.74C41.2839 123.74 40.4114 124.61 40.4114 125.684C40.4114 126.757 41.2839 127.628 42.3602 127.628Z" fill="#00ABEB"/>
<path d="M55.8293 127.628C56.9056 127.628 57.7781 126.757 57.7781 125.684C57.7781 124.61 56.9056 123.74 55.8293 123.74C54.7529 123.74 53.8804 124.61 53.8804 125.684C53.8804 126.757 54.7529 127.628 55.8293 127.628Z" fill="#00ABEB"/>
<path d="M69.2984 127.628C70.3747 127.628 71.2472 126.757 71.2472 125.684C71.2472 124.61 70.3747 123.74 69.2984 123.74C68.2221 123.74 67.3495 124.61 67.3495 125.684C67.3495 126.757 68.2221 127.628 69.2984 127.628Z" fill="#00ABEB"/>
<path d="M82.7674 127.628C83.8437 127.628 84.7163 126.757 84.7163 125.684C84.7163 124.61 83.8437 123.74 82.7674 123.74C81.6911 123.74 80.8186 124.61 80.8186 125.684C80.8186 126.757 81.6911 127.628 82.7674 127.628Z" fill="#00ABEB"/>
<path d="M96.2365 127.628C97.3129 127.628 98.1854 126.757 98.1854 125.684C98.1854 124.61 97.3129 123.74 96.2365 123.74C95.1602 123.74 94.2877 124.61 94.2877 125.684C94.2877 126.757 95.1602 127.628 96.2365 127.628Z" fill="#00ABEB"/>
<path d="M109.706 127.628C110.782 127.628 111.655 126.757 111.655 125.684C111.655 124.61 110.782 123.74 109.706 123.74C108.629 123.74 107.757 124.61 107.757 125.684C107.757 126.757 108.629 127.628 109.706 127.628Z" fill="#00ABEB"/>
<path d="M123.175 127.628C124.251 127.628 125.124 126.757 125.124 125.684C125.124 124.61 124.251 123.74 123.175 123.74C122.098 123.74 121.226 124.61 121.226 125.684C121.226 126.757 122.098 127.628 123.175 127.628Z" fill="#00ABEB"/>
<path d="M136.644 127.628C137.72 127.628 138.593 126.757 138.593 125.684C138.593 124.61 137.72 123.74 136.644 123.74C135.568 123.74 134.695 124.61 134.695 125.684C134.695 126.757 135.568 127.628 136.644 127.628Z" fill="#00ABEB"/>
<path d="M150.113 127.628C151.189 127.628 152.062 126.757 152.062 125.684C152.062 124.61 151.189 123.74 150.113 123.74C149.037 123.74 148.164 124.61 148.164 125.684C148.164 126.757 149.037 127.628 150.113 127.628Z" fill="#00ABEB"/>
<path d="M163.582 127.628C164.658 127.628 165.531 126.757 165.531 125.684C165.531 124.61 164.658 123.74 163.582 123.74C162.506 123.74 161.633 124.61 161.633 125.684C161.633 126.757 162.506 127.628 163.582 127.628Z" fill="#00ABEB"/>
<path d="M177.051 127.628C178.127 127.628 179 126.757 179 125.684C179 124.61 178.127 123.74 177.051 123.74C175.975 123.74 175.102 124.61 175.102 125.684C175.102 126.757 175.975 127.628 177.051 127.628Z" fill="#00ABEB"/>
<path d="M1.94883 140C3.02514 140 3.89771 139.13 3.89771 138.056C3.89771 136.983 3.02514 136.112 1.94883 136.112C0.872516 136.112 0 136.983 0 138.056C0 139.13 0.872516 140 1.94883 140Z" fill="#00ABEB"/>
<path d="M15.4179 140C16.4943 140 17.3668 139.13 17.3668 138.056C17.3668 136.983 16.4943 136.112 15.4179 136.112C14.3416 136.112 13.4691 136.983 13.4691 138.056C13.4691 139.13 14.3416 140 15.4179 140Z" fill="#00ABEB"/>
<path d="M28.8871 140C29.9634 140 30.8359 139.13 30.8359 138.056C30.8359 136.983 29.9634 136.112 28.8871 136.112C27.8107 136.112 26.9382 136.983 26.9382 138.056C26.9382 139.13 27.8107 140 28.8871 140Z" fill="#00ABEB"/>
<path d="M42.3602 140C43.4365 140 44.309 139.13 44.309 138.056C44.309 136.983 43.4365 136.112 42.3602 136.112C41.2839 136.112 40.4114 136.983 40.4114 138.056C40.4114 139.13 41.2839 140 42.3602 140Z" fill="#00ABEB"/>
<path d="M55.8293 140C56.9056 140 57.7781 139.13 57.7781 138.056C57.7781 136.983 56.9056 136.112 55.8293 136.112C54.7529 136.112 53.8804 136.983 53.8804 138.056C53.8804 139.13 54.7529 140 55.8293 140Z" fill="#00ABEB"/>
<path d="M69.2984 140C70.3747 140 71.2472 139.13 71.2472 138.056C71.2472 136.983 70.3747 136.112 69.2984 136.112C68.2221 136.112 67.3495 136.983 67.3495 138.056C67.3495 139.13 68.2221 140 69.2984 140Z" fill="#00ABEB"/>
<path d="M82.7674 140C83.8437 140 84.7163 139.13 84.7163 138.056C84.7163 136.983 83.8437 136.112 82.7674 136.112C81.6911 136.112 80.8186 136.983 80.8186 138.056C80.8186 139.13 81.6911 140 82.7674 140Z" fill="#00ABEB"/>
<path d="M96.2365 140C97.3129 140 98.1854 139.13 98.1854 138.056C98.1854 136.983 97.3129 136.112 96.2365 136.112C95.1602 136.112 94.2877 136.983 94.2877 138.056C94.2877 139.13 95.1602 140 96.2365 140Z" fill="#00ABEB"/>
<path d="M109.706 140C110.782 140 111.655 139.13 111.655 138.056C111.655 136.983 110.782 136.112 109.706 136.112C108.629 136.112 107.757 136.983 107.757 138.056C107.757 139.13 108.629 140 109.706 140Z" fill="#00ABEB"/>
<path d="M123.175 140C124.251 140 125.124 139.13 125.124 138.056C125.124 136.983 124.251 136.112 123.175 136.112C122.098 136.112 121.226 136.983 121.226 138.056C121.226 139.13 122.098 140 123.175 140Z" fill="#00ABEB"/>
<path d="M136.644 140C137.72 140 138.593 139.13 138.593 138.056C138.593 136.983 137.72 136.112 136.644 136.112C135.568 136.112 134.695 136.983 134.695 138.056C134.695 139.13 135.568 140 136.644 140Z" fill="#00ABEB"/>
<path d="M150.113 140C151.189 140 152.062 139.13 152.062 138.056C152.062 136.983 151.189 136.112 150.113 136.112C149.037 136.112 148.164 136.983 148.164 138.056C148.164 139.13 149.037 140 150.113 140Z" fill="#00ABEB"/>
<path d="M163.582 140C164.658 140 165.531 139.13 165.531 138.056C165.531 136.983 164.658 136.112 163.582 136.112C162.506 136.112 161.633 136.983 161.633 138.056C161.633 139.13 162.506 140 163.582 140Z" fill="#00ABEB"/>
<path d="M177.051 140C178.127 140 179 139.13 179 138.056C179 136.983 178.127 136.112 177.051 136.112C175.975 136.112 175.102 136.983 175.102 138.056C175.102 139.13 175.975 140 177.051 140Z" fill="#00ABEB"/>
</g>
</svg>
