<svg width="50" height="36" viewBox="0 0 50 36" fill="none" xmlns="http://www.w3.org/2000/svg">
<path d="M27.7239 0.319892L36.646 0.399993L36.7471 0.606209C36.8023 0.719542 37.0844 1.34927 37.3725 2.00541C37.6605 2.66155 37.9477 3.31343 38.0089 3.45403C38.0709 3.59463 38.3148 4.14085 38.5519 4.66832C38.789 5.19579 38.9827 5.64571 38.9827 5.66957C38.9827 5.69343 39.1152 5.98997 39.2775 6.32997C39.4398 6.66997 39.5732 6.97674 39.5749 7.01168C39.5766 7.04662 39.7338 7.41133 39.9242 7.8212C40.1154 8.23108 40.3584 8.75855 40.4646 8.99288C40.5708 9.22722 40.7586 9.63965 40.8818 9.90893C41.005 10.1782 41.1061 10.4176 41.1061 10.4415C41.1061 10.4645 41.2395 10.7713 41.4035 11.1232C41.5667 11.4751 41.7009 11.7819 41.7009 11.8049C41.7009 11.8288 41.8182 12.087 41.9627 12.3801C42.1063 12.6732 42.2932 13.0848 42.3773 13.2961C42.4614 13.5075 42.6093 13.8526 42.7053 14.0631C42.8013 14.2744 43.0919 14.916 43.3528 15.4904C43.6128 16.0647 43.8261 16.553 43.8261 16.5769C43.8261 16.5999 43.9629 16.9169 44.1294 17.2799C44.2968 17.6429 44.511 18.1132 44.6061 18.3237C44.7013 18.5342 44.8661 18.8989 44.9732 19.1332C45.0803 19.3676 45.3012 19.8661 45.4652 20.241C45.6292 20.616 45.992 21.4408 46.7797 23.2235L46.8086 28.7197C46.8247 31.7422 46.8094 34.2253 46.7763 34.2373C46.7432 34.2492 45.5587 34.2586 41.5743 34.2577L41.4256 34.0029C41.3441 33.8623 41.2769 33.7098 41.2769 33.6629C41.2769 33.6161 41.0475 33.098 40.7671 32.5126C40.4867 31.9271 40.2564 31.4184 40.2547 31.3835C40.253 31.3485 40.1426 31.0895 40.0083 30.8083C39.874 30.5271 39.5673 29.8369 39.3251 29.2745C39.0838 28.7121 38.7584 27.9835 38.602 27.6554C38.4457 27.3273 38.2205 26.8484 38.0998 26.5902C37.98 26.3329 37.8806 26.0926 37.8798 26.0577C37.8789 26.0227 37.7056 25.629 37.4957 25.1842C37.2858 24.7386 37.1133 24.3551 37.1133 24.3321C37.1133 24.3091 36.9408 23.9248 36.7309 23.48C36.5202 23.0343 36.3494 22.6611 36.3511 22.6491C36.3528 22.6372 36.1599 22.206 35.9237 21.6905C35.6875 21.175 35.4394 20.6381 35.3722 20.4975C35.3051 20.3569 35.1003 19.8968 34.9168 19.4749C34.7332 19.0531 34.4681 18.4592 34.3271 18.1541C34.186 17.8491 33.8189 17.0344 33.5105 16.3434C33.2021 15.6523 32.9328 15.0086 32.9328 15.0086L32.8903 14.9234L32.8053 14.7956C32.8053 14.7956 32.4509 13.9744 32.049 13.084C31.6471 12.1935 31.212 11.2161 31.0829 10.911C30.9537 10.6068 30.6877 10.012 30.4923 9.59023C30.2969 9.16842 30.0046 8.54552 29.8431 8.20552C29.6817 7.86551 29.55 7.56897 29.55 7.54511C29.55 7.52211 29.4157 7.21534 29.2526 6.86341C29.0894 6.51148 28.9552 6.20471 28.9552 6.1817C28.9552 6.1587 28.8184 5.8417 28.651 5.4787C28.4836 5.11569 28.2694 4.66491 28.1751 4.47744C28.0808 4.28997 27.9406 4.0599 27.8633 3.96531C27.786 3.87158 27.6084 3.70711 27.4682 3.6006C27.3279 3.49408 27.1657 3.40802 27.107 3.40972C27.0484 3.41142 26.8453 3.61423 26.655 3.85965C26.4323 4.14681 26.2352 4.54306 26.1027 4.96742C25.965 5.40797 25.8681 6.00361 25.8112 6.75689C25.7645 7.3781 25.7262 9.45815 25.7254 11.3797C25.7254 13.3013 25.6965 15.2458 25.6617 15.7009C25.6268 16.1559 25.6387 21.8098 25.6387 21.8098C25.3787 25.9665 25.3727 21.8737 25.3226 21.2133V18.316C25.3141 18.5853 25.4212 17.1222 25.3863 17.1231C25.3515 17.1239 25.2291 16.1815 25.1926 15.7477C25.1561 15.314 25.0898 14.7865 25.0456 14.5752C25.0014 14.3647 24.868 13.5782 24.7491 12.8283C24.6301 12.0784 24.4771 11.2732 24.41 11.0389C24.342 10.8045 24.2069 10.3256 24.1092 9.97369C24.0115 9.62176 23.8721 9.16246 23.7991 8.95113C23.726 8.7398 23.5713 8.318 23.4549 8.01379C23.3385 7.70872 23.0921 7.13439 22.9069 6.73559C22.7216 6.33764 22.4327 5.7812 22.2653 5.5C22.0979 5.2188 21.775 4.72967 21.5499 4.41353C21.2389 3.97724 21.1573 3.80255 21.2142 3.68922C21.2559 3.60742 21.5516 3.29383 21.8728 2.99303C22.194 2.69223 22.7624 2.23208 23.1363 1.97047C23.5102 1.70972 23.9495 1.42596 24.1135 1.34075C24.2766 1.25553 24.6972 1.06806 25.0482 0.924906C25.3991 0.781748 25.8189 0.62666 25.9828 0.581497C26.1468 0.536334 26.5292 0.44686 26.8326 0.38295C27.1368 0.319892 27.5378 0.291772 27.7248 0.320745L27.7239 0.319892ZM45.9079 0.409366C48.6431 0.43067 48.9023 0.445156 49.1368 0.591722C49.277 0.679492 49.4665 0.860996 49.5583 0.99478C49.6738 1.1635 49.7265 1.38506 49.7282 1.71398C49.7308 2.10255 49.6883 2.24656 49.498 2.5022C49.3696 2.67433 49.0637 2.94275 48.8182 3.09955C48.5726 3.25634 48.2285 3.54351 48.0534 3.73864C47.8784 3.93378 47.6719 4.21839 47.5946 4.37007C47.5173 4.5226 47.3822 4.85834 47.2929 5.11569C47.2037 5.37303 47.0686 6.00616 46.993 6.5217C46.8783 7.298 46.8273 13.0618 46.8273 13.0618V19.2266L46.4008 18.5023L45.721 17.1389C45.721 17.1389 45.093 15.7324 45.0055 15.533C44.8576 15.1981 44.8457 14.916 44.8491 11.7836C44.8508 9.92085 44.8118 8.03168 44.7616 7.58687C44.7115 7.14206 44.6308 6.50892 44.5806 6.18085C44.5305 5.85278 44.4234 5.37388 44.3419 5.11569C44.2603 4.85834 44.0827 4.45784 43.9467 4.22691C43.8108 3.99599 43.5465 3.67985 43.3596 3.52476C43.1727 3.36967 42.8515 3.11829 42.645 2.96491C42.4393 2.81238 42.1904 2.57889 42.0927 2.44681C41.9601 2.26701 41.9151 2.0804 41.9151 1.70801C41.9151 1.33989 41.961 1.14646 42.0901 0.968364C42.1861 0.836284 42.4156 0.650519 42.5999 0.556785C42.9186 0.39488 43.0783 0.387211 45.9087 0.409366H45.9079ZM11.3668 0.940244V34.9403H1.68005L1.34016 34.6846C1.09035 34.4972 0.975634 34.3327 0.907657 34.0668C0.856674 33.8674 0.840529 33.5326 0.871968 33.3212C0.911056 33.0562 1.01217 32.8517 1.19826 32.6591C1.34611 32.5057 1.50586 32.3822 1.55259 32.383C1.59933 32.3847 1.8194 32.2706 2.04118 32.1291C2.26296 31.9876 2.53997 31.7192 2.86966 31.1909V18.1533C2.86966 9.54677 2.84077 5.1012 2.78468 5.07308C2.73795 5.05007 2.69971 4.96316 2.69886 4.88135C2.69886 4.79955 2.66063 4.58822 2.61389 4.41268C2.53912 4.13148 2.46094 4.05819 1.95621 3.80341C1.64096 3.64406 1.26794 3.39183 1.12773 3.24356C0.892362 2.99473 0.872818 2.92741 0.872818 2.34796C0.872818 1.79749 0.89831 1.69353 1.08525 1.49328C1.20251 1.36801 1.37415 1.2206 1.46762 1.16691C1.58743 1.09704 2.93593 1.05528 6.0561 1.02375C8.48629 0.999893 10.6752 0.970921 11.3668 0.940244ZM12.9771 0.940244H13.3407C13.5404 0.940244 14.0103 0.995633 14.3842 1.0621C14.7581 1.12942 15.3129 1.24275 15.6163 1.31433C15.9205 1.38591 16.4932 1.6032 16.8909 1.79749C17.2885 1.99177 17.8808 2.32837 18.2079 2.54651C18.5351 2.76466 19.0661 3.19158 19.389 3.49664C19.7111 3.8017 20.1742 4.3002 20.4172 4.60441C20.6602 4.90947 21.0757 5.49403 21.3391 5.90391C21.6034 6.31378 21.8192 6.66912 21.8192 6.69213C21.8192 6.71514 21.9926 7.08922 22.2041 7.52296C22.4157 7.95669 22.5882 8.34953 22.5874 8.39639C22.5865 8.44326 22.6358 8.5779 22.697 8.69464C22.7582 8.81223 22.8372 9.02271 22.8729 9.16331C22.9086 9.30391 22.9867 9.53399 23.0479 9.67459C23.1091 9.81519 23.2213 10.1407 23.2969 10.3989C23.3725 10.6562 23.5467 11.3857 23.6835 12.0179C23.8203 12.6511 23.9903 13.5901 24.0608 14.1057C24.1313 14.6212 24.2528 15.7145 24.3301 16.5342C24.4313 17.6054 24.4568 18.4336 24.4211 19.4741C24.3939 20.2708 24.3352 21.2295 24.2928 21.6044C24.2494 21.9794 24.1526 22.6312 24.0769 23.053C24.0013 23.4749 23.8254 24.2511 23.6869 24.7786C23.5476 25.3061 23.3734 25.9 23.2994 26.0994C23.2255 26.2988 23.104 26.615 23.0309 26.8024C22.957 26.9899 22.7692 27.4211 22.6137 27.7611C22.4582 28.1011 22.3299 28.4172 22.3299 28.4641C22.3299 28.5109 22.301 28.5493 22.2662 28.5493C22.2313 28.5493 22.1557 28.655 22.0996 28.7836C22.0427 28.9123 21.8736 29.2097 21.7232 29.444C21.5728 29.6784 21.2397 30.1573 20.9831 30.5092C20.7265 30.8611 20.1699 31.4951 19.7451 31.9195C19.3211 32.3438 18.7636 32.8466 18.5062 33.0375C18.2496 33.2283 17.7754 33.5334 17.4534 33.7149C17.1313 33.8973 16.8543 34.0745 16.8373 34.1095C16.8203 34.1444 16.7498 34.1734 16.6793 34.1734C16.6096 34.1734 16.3895 34.2484 16.1907 34.3395C15.9919 34.4307 15.5041 34.5883 15.1073 34.6889C14.7105 34.7895 14.0885 34.8968 13.0671 34.9829L13.0688 33.7473C13.0697 33.0681 13.0986 32.4708 13.1334 32.4214C13.1674 32.372 13.3101 32.2859 13.4504 32.2305C13.5906 32.1751 13.8395 32.0311 14.0027 31.9101C14.1658 31.79 14.4054 31.5301 14.5346 31.3341C14.6637 31.1381 14.8422 30.7282 14.9314 30.4231C15.0206 30.1181 15.154 29.4474 15.228 28.9319C15.341 28.1411 15.3605 26.9788 15.3554 21.5184C15.352 17.9565 15.3155 13.182 15.2747 10.9093C15.2339 8.63584 15.1608 6.58476 15.1132 6.35043C15.0657 6.11609 14.9399 5.65764 14.8328 5.33128C14.6918 4.89925 14.5354 4.62827 14.2567 4.33173C14.0061 4.06501 13.7274 3.87243 13.0246 3.61849L13.0008 2.27894L12.9771 0.939392V0.940244ZM25.5962 21.3411C25.6268 21.3616 25.6005 21.6053 25.6387 21.8098C25.6769 22.0143 25.6854 23.9648 25.7237 26.1207C25.7789 29.2353 25.8197 30.1283 25.9225 30.4666C25.9939 30.7009 26.1129 31.0554 26.1868 31.2548C26.2607 31.4542 26.3576 31.6647 26.4009 31.7235C26.4451 31.7823 26.6456 32.0149 26.847 32.2407C27.0484 32.4665 27.3568 32.7256 27.5319 32.8159C27.7069 32.9062 28.0035 32.9804 28.1904 32.9804C28.3774 32.9804 28.7121 32.9233 28.9339 32.8534C29.1557 32.7835 29.414 32.648 29.5075 32.5526C29.6009 32.4572 29.7157 32.3779 29.7624 32.3771C29.8091 32.3762 30.0742 32.1768 30.3512 31.9323C30.6283 31.6885 31.0778 31.1918 31.3497 30.8279C31.6216 30.4649 31.8442 30.1291 31.8442 30.0823C31.8442 30.0354 31.9538 29.8343 32.0872 29.6349C32.2206 29.4355 32.3931 29.2438 32.4696 29.2088C32.5461 29.1739 32.7432 29.1449 32.9064 29.1449C33.0695 29.1449 33.3185 29.202 33.4587 29.2728C33.6006 29.3435 33.7892 29.5523 33.8835 29.7414C33.977 29.9289 34.0526 30.1879 34.0526 30.3166C34.0518 30.4453 34.0016 30.7427 33.9396 30.977C33.8784 31.2114 33.7178 31.5948 33.5836 31.8291C33.4493 32.0635 33.1851 32.4486 32.9956 32.6838C32.8061 32.9199 32.4331 33.3033 32.1671 33.536C31.9003 33.7686 31.5578 34.0549 31.4057 34.1725C31.2536 34.2901 31.1211 34.3659 31.1109 34.3429C31.1007 34.3199 31.0038 34.3821 30.8951 34.4827C30.7863 34.5832 30.4294 34.8005 30.1023 34.9658C29.7751 35.1312 29.2976 35.3357 29.0401 35.42C28.7104 35.5274 28.3102 35.5726 27.6806 35.5717C27.0688 35.5709 26.5216 35.5104 25.9387 35.3791C25.4713 35.2743 25.0218 35.1516 24.9402 35.1064C24.8587 35.0613 24.7338 35.0246 24.6641 35.0246C24.5936 35.0246 24.116 34.8133 23.6019 34.556C23.0879 34.2986 22.6477 34.049 22.6248 34.0021C22.6018 33.9552 22.471 33.8496 22.3359 33.7677C22.1999 33.6859 21.8082 33.3545 21.4649 33.0307C20.8633 32.464 20.8454 32.4359 20.9678 32.2484C21.0375 32.1419 21.3663 31.6962 21.6986 31.2599C22.03 30.8228 22.4914 30.1394 22.7233 29.7414C22.9553 29.3435 23.3113 28.6337 23.5144 28.165C23.7175 27.6963 24.0446 26.8144 24.2409 26.2051C24.4372 25.5958 24.6454 24.8289 24.7032 24.5008C24.7618 24.1727 24.8391 23.8276 24.8757 23.7339C24.9122 23.6402 24.9683 23.3334 25.0006 23.0522C25.0465 22.7897 25.0889 22.7471 25.117 22.6091C25.1739 22.4915 25.2224 16.0451 25.1926 15.7477C25.16 15.4075 25.3813 17.2782 25.3863 17.1231C25.3914 16.968 25.4297 21.3974 25.4603 21.4187L25.5962 21.3411Z" fill="url(#paint0_linear_1210_9251)"/>
<defs>
<linearGradient id="paint0_linear_1210_9251" x1="49.7758" y1="48.6791" x2="33.6703" y2="-7.23133" gradientUnits="userSpaceOnUse">
<stop stop-color="#2C3294"/>
<stop offset="1" stop-color="#00ABEB"/>
</linearGradient>
</defs>
</svg>
