<svg width="240" height="138" viewBox="0 0 240 138" fill="none" xmlns="http://www.w3.org/2000/svg">
<path d="M3.36418 6.83119C5.22218 6.83119 6.72845 5.302 6.72845 3.41562C6.72845 1.52924 5.22218 0 3.36418 0C1.50619 0 0 1.52924 0 3.41562C0 5.302 1.50619 6.83119 3.36418 6.83119Z" fill="#00ABEB"/>
<path d="M26.6153 6.83119C28.4733 6.83119 29.9795 5.302 29.9795 3.41562C29.9795 1.52924 28.4733 0 26.6153 0C24.7573 0 23.2511 1.52924 23.2511 3.41562C23.2511 5.302 24.7573 6.83119 26.6153 6.83119Z" fill="#00ABEB"/>
<path d="M49.8665 6.83119C51.7245 6.83119 53.2307 5.302 53.2307 3.41562C53.2307 1.52924 51.7245 0 49.8665 0C48.0085 0 46.5023 1.52924 46.5023 3.41562C46.5023 5.302 48.0085 6.83119 49.8665 6.83119Z" fill="#00ABEB"/>
<path d="M73.1246 6.83119C74.9826 6.83119 76.4887 5.302 76.4887 3.41562C76.4887 1.52924 74.9826 0 73.1246 0C71.2666 0 69.7604 1.52924 69.7604 3.41562C69.7604 5.302 71.2666 6.83119 73.1246 6.83119Z" fill="#00ABEB"/>
<path d="M96.3756 6.83119C98.2336 6.83119 99.7398 5.302 99.7398 3.41562C99.7398 1.52924 98.2336 0 96.3756 0C94.5176 0 93.0114 1.52924 93.0114 3.41562C93.0114 5.302 94.5176 6.83119 96.3756 6.83119Z" fill="#00ABEB"/>
<path d="M119.627 6.83119C121.485 6.83119 122.991 5.302 122.991 3.41562C122.991 1.52924 121.485 0 119.627 0C117.769 0 116.263 1.52924 116.263 3.41562C116.263 5.302 117.769 6.83119 119.627 6.83119Z" fill="#00ABEB"/>
<path d="M142.878 6.83119C144.736 6.83119 146.242 5.302 146.242 3.41562C146.242 1.52924 144.736 0 142.878 0C141.02 0 139.514 1.52924 139.514 3.41562C139.514 5.302 141.02 6.83119 142.878 6.83119Z" fill="#00ABEB"/>
<path d="M166.129 6.83119C167.987 6.83119 169.493 5.302 169.493 3.41562C169.493 1.52924 167.987 0 166.129 0C164.271 0 162.765 1.52924 162.765 3.41562C162.765 5.302 164.271 6.83119 166.129 6.83119Z" fill="#00ABEB"/>
<path d="M189.38 6.83119C191.238 6.83119 192.744 5.302 192.744 3.41562C192.744 1.52924 191.238 0 189.38 0C187.522 0 186.016 1.52924 186.016 3.41562C186.016 5.302 187.522 6.83119 189.38 6.83119Z" fill="#00ABEB"/>
<path d="M212.631 6.83119C214.489 6.83119 215.995 5.302 215.995 3.41562C215.995 1.52924 214.489 0 212.631 0C210.773 0 209.267 1.52924 209.267 3.41562C209.267 5.302 210.773 6.83119 212.631 6.83119Z" fill="#00ABEB"/>
<path d="M235.882 6.83119C237.74 6.83119 239.247 5.302 239.247 3.41562C239.247 1.52924 237.74 0 235.882 0C234.024 0 232.518 1.52924 232.518 3.41562C232.518 5.302 234.024 6.83119 235.882 6.83119Z" fill="#00ABEB"/>
<path d="M3.36418 28.5711C5.22218 28.5711 6.72845 27.0419 6.72845 25.1556C6.72845 23.2692 5.22218 21.74 3.36418 21.74C1.50619 21.74 0 23.2692 0 25.1556C0 27.0419 1.50619 28.5711 3.36418 28.5711Z" fill="#00ABEB"/>
<path d="M26.6153 28.5711C28.4733 28.5711 29.9795 27.0419 29.9795 25.1556C29.9795 23.2692 28.4733 21.74 26.6153 21.74C24.7573 21.74 23.2511 23.2692 23.2511 25.1556C23.2511 27.0419 24.7573 28.5711 26.6153 28.5711Z" fill="#00ABEB"/>
<path d="M49.8665 28.5711C51.7245 28.5711 53.2307 27.0419 53.2307 25.1556C53.2307 23.2692 51.7245 21.74 49.8665 21.74C48.0085 21.74 46.5023 23.2692 46.5023 25.1556C46.5023 27.0419 48.0085 28.5711 49.8665 28.5711Z" fill="#00ABEB"/>
<path d="M73.1246 28.5711C74.9826 28.5711 76.4887 27.0419 76.4887 25.1556C76.4887 23.2692 74.9826 21.74 73.1246 21.74C71.2666 21.74 69.7604 23.2692 69.7604 25.1556C69.7604 27.0419 71.2666 28.5711 73.1246 28.5711Z" fill="#00ABEB"/>
<path d="M96.3756 28.5711C98.2336 28.5711 99.7398 27.0419 99.7398 25.1556C99.7398 23.2692 98.2336 21.74 96.3756 21.74C94.5176 21.74 93.0114 23.2692 93.0114 25.1556C93.0114 27.0419 94.5176 28.5711 96.3756 28.5711Z" fill="#00ABEB"/>
<path d="M119.627 28.5711C121.485 28.5711 122.991 27.0419 122.991 25.1556C122.991 23.2692 121.485 21.74 119.627 21.74C117.769 21.74 116.263 23.2692 116.263 25.1556C116.263 27.0419 117.769 28.5711 119.627 28.5711Z" fill="#00ABEB"/>
<path d="M142.878 28.5711C144.736 28.5711 146.242 27.0419 146.242 25.1556C146.242 23.2692 144.736 21.74 142.878 21.74C141.02 21.74 139.514 23.2692 139.514 25.1556C139.514 27.0419 141.02 28.5711 142.878 28.5711Z" fill="#00ABEB"/>
<path d="M166.129 28.5711C167.987 28.5711 169.493 27.0419 169.493 25.1556C169.493 23.2692 167.987 21.74 166.129 21.74C164.271 21.74 162.765 23.2692 162.765 25.1556C162.765 27.0419 164.271 28.5711 166.129 28.5711Z" fill="#00ABEB"/>
<path d="M189.38 28.5711C191.238 28.5711 192.744 27.0419 192.744 25.1556C192.744 23.2692 191.238 21.74 189.38 21.74C187.522 21.74 186.016 23.2692 186.016 25.1556C186.016 27.0419 187.522 28.5711 189.38 28.5711Z" fill="#00ABEB"/>
<path d="M212.631 28.5711C214.489 28.5711 215.995 27.0419 215.995 25.1556C215.995 23.2692 214.489 21.74 212.631 21.74C210.773 21.74 209.267 23.2692 209.267 25.1556C209.267 27.0419 210.773 28.5711 212.631 28.5711Z" fill="#00ABEB"/>
<path d="M235.882 28.5711C237.74 28.5711 239.247 27.0419 239.247 25.1556C239.247 23.2692 237.74 21.74 235.882 21.74C234.024 21.74 232.518 23.2692 232.518 25.1556C232.518 27.0419 234.024 28.5711 235.882 28.5711Z" fill="#00ABEB"/>
<path d="M3.36418 50.3114C5.22218 50.3114 6.72845 48.7822 6.72845 46.8958C6.72845 45.0094 5.22218 43.4802 3.36418 43.4802C1.50619 43.4802 0 45.0094 0 46.8958C0 48.7822 1.50619 50.3114 3.36418 50.3114Z" fill="#00ABEB"/>
<path d="M26.6153 50.3114C28.4733 50.3114 29.9795 48.7822 29.9795 46.8958C29.9795 45.0094 28.4733 43.4802 26.6153 43.4802C24.7573 43.4802 23.2511 45.0094 23.2511 46.8958C23.2511 48.7822 24.7573 50.3114 26.6153 50.3114Z" fill="#00ABEB"/>
<path d="M49.8665 50.3114C51.7245 50.3114 53.2307 48.7822 53.2307 46.8958C53.2307 45.0094 51.7245 43.4802 49.8665 43.4802C48.0085 43.4802 46.5023 45.0094 46.5023 46.8958C46.5023 48.7822 48.0085 50.3114 49.8665 50.3114Z" fill="#00ABEB"/>
<path d="M73.1246 50.3114C74.9826 50.3114 76.4887 48.7822 76.4887 46.8958C76.4887 45.0094 74.9826 43.4802 73.1246 43.4802C71.2666 43.4802 69.7604 45.0094 69.7604 46.8958C69.7604 48.7822 71.2666 50.3114 73.1246 50.3114Z" fill="#00ABEB"/>
<path d="M96.3756 50.3114C98.2336 50.3114 99.7398 48.7822 99.7398 46.8958C99.7398 45.0094 98.2336 43.4802 96.3756 43.4802C94.5176 43.4802 93.0114 45.0094 93.0114 46.8958C93.0114 48.7822 94.5176 50.3114 96.3756 50.3114Z" fill="#00ABEB"/>
<path d="M119.627 50.3114C121.485 50.3114 122.991 48.7822 122.991 46.8958C122.991 45.0094 121.485 43.4802 119.627 43.4802C117.769 43.4802 116.263 45.0094 116.263 46.8958C116.263 48.7822 117.769 50.3114 119.627 50.3114Z" fill="#00ABEB"/>
<path d="M142.878 50.3114C144.736 50.3114 146.242 48.7822 146.242 46.8958C146.242 45.0094 144.736 43.4802 142.878 43.4802C141.02 43.4802 139.514 45.0094 139.514 46.8958C139.514 48.7822 141.02 50.3114 142.878 50.3114Z" fill="#00ABEB"/>
<path d="M166.129 50.3114C167.987 50.3114 169.493 48.7822 169.493 46.8958C169.493 45.0094 167.987 43.4802 166.129 43.4802C164.271 43.4802 162.765 45.0094 162.765 46.8958C162.765 48.7822 164.271 50.3114 166.129 50.3114Z" fill="#00ABEB"/>
<path d="M189.38 50.3114C191.238 50.3114 192.744 48.7822 192.744 46.8958C192.744 45.0094 191.238 43.4802 189.38 43.4802C187.522 43.4802 186.016 45.0094 186.016 46.8958C186.016 48.7822 187.522 50.3114 189.38 50.3114Z" fill="#00ABEB"/>
<path d="M212.631 50.3114C214.489 50.3114 215.995 48.7822 215.995 46.8958C215.995 45.0094 214.489 43.4802 212.631 43.4802C210.773 43.4802 209.267 45.0094 209.267 46.8958C209.267 48.7822 210.773 50.3114 212.631 50.3114Z" fill="#00ABEB"/>
<path d="M235.882 50.3114C237.74 50.3114 239.247 48.7822 239.247 46.8958C239.247 45.0094 237.74 43.4802 235.882 43.4802C234.024 43.4802 232.518 45.0094 232.518 46.8958C232.518 48.7822 234.024 50.3114 235.882 50.3114Z" fill="#00ABEB"/>
<path d="M3.36418 72.0584C5.22218 72.0584 6.72845 70.5292 6.72845 68.6429C6.72845 66.7565 5.22218 65.2273 3.36418 65.2273C1.50619 65.2273 0 66.7565 0 68.6429C0 70.5292 1.50619 72.0584 3.36418 72.0584Z" fill="#00ABEB"/>
<path d="M26.6153 72.0584C28.4733 72.0584 29.9795 70.5292 29.9795 68.6429C29.9795 66.7565 28.4733 65.2273 26.6153 65.2273C24.7573 65.2273 23.2511 66.7565 23.2511 68.6429C23.2511 70.5292 24.7573 72.0584 26.6153 72.0584Z" fill="#00ABEB"/>
<path d="M49.8665 72.0584C51.7245 72.0584 53.2307 70.5292 53.2307 68.6429C53.2307 66.7565 51.7245 65.2273 49.8665 65.2273C48.0085 65.2273 46.5023 66.7565 46.5023 68.6429C46.5023 70.5292 48.0085 72.0584 49.8665 72.0584Z" fill="#00ABEB"/>
<path d="M73.1246 72.0584C74.9826 72.0584 76.4887 70.5292 76.4887 68.6429C76.4887 66.7565 74.9826 65.2273 73.1246 65.2273C71.2666 65.2273 69.7604 66.7565 69.7604 68.6429C69.7604 70.5292 71.2666 72.0584 73.1246 72.0584Z" fill="#00ABEB"/>
<path d="M96.3756 72.0584C98.2336 72.0584 99.7398 70.5292 99.7398 68.6429C99.7398 66.7565 98.2336 65.2273 96.3756 65.2273C94.5176 65.2273 93.0114 66.7565 93.0114 68.6429C93.0114 70.5292 94.5176 72.0584 96.3756 72.0584Z" fill="#00ABEB"/>
<path d="M119.627 72.0584C121.485 72.0584 122.991 70.5292 122.991 68.6429C122.991 66.7565 121.485 65.2273 119.627 65.2273C117.769 65.2273 116.263 66.7565 116.263 68.6429C116.263 70.5292 117.769 72.0584 119.627 72.0584Z" fill="#00ABEB"/>
<path d="M142.878 72.0584C144.736 72.0584 146.242 70.5292 146.242 68.6429C146.242 66.7565 144.736 65.2273 142.878 65.2273C141.02 65.2273 139.514 66.7565 139.514 68.6429C139.514 70.5292 141.02 72.0584 142.878 72.0584Z" fill="#00ABEB"/>
<path d="M166.129 72.0584C167.987 72.0584 169.493 70.5292 169.493 68.6429C169.493 66.7565 167.987 65.2273 166.129 65.2273C164.271 65.2273 162.765 66.7565 162.765 68.6429C162.765 70.5292 164.271 72.0584 166.129 72.0584Z" fill="#00ABEB"/>
<path d="M189.38 72.0584C191.238 72.0584 192.744 70.5292 192.744 68.6429C192.744 66.7565 191.238 65.2273 189.38 65.2273C187.522 65.2273 186.016 66.7565 186.016 68.6429C186.016 70.5292 187.522 72.0584 189.38 72.0584Z" fill="#00ABEB"/>
<path d="M212.631 72.0584C214.489 72.0584 215.995 70.5292 215.995 68.6429C215.995 66.7565 214.489 65.2273 212.631 65.2273C210.773 65.2273 209.267 66.7565 209.267 68.6429C209.267 70.5292 210.773 72.0584 212.631 72.0584Z" fill="#00ABEB"/>
<path d="M235.882 72.0584C237.74 72.0584 239.247 70.5292 239.247 68.6429C239.247 66.7565 237.74 65.2273 235.882 65.2273C234.024 65.2273 232.518 66.7565 232.518 68.6429C232.518 70.5292 234.024 72.0584 235.882 72.0584Z" fill="#00ABEB"/>
<path d="M3.36418 93.7984C5.22218 93.7984 6.72845 92.2692 6.72845 90.3829C6.72845 88.4965 5.22218 86.9673 3.36418 86.9673C1.50619 86.9673 0 88.4965 0 90.3829C0 92.2692 1.50619 93.7984 3.36418 93.7984Z" fill="#00ABEB"/>
<path d="M26.6153 93.7984C28.4733 93.7984 29.9795 92.2692 29.9795 90.3829C29.9795 88.4965 28.4733 86.9673 26.6153 86.9673C24.7573 86.9673 23.2511 88.4965 23.2511 90.3829C23.2511 92.2692 24.7573 93.7984 26.6153 93.7984Z" fill="#00ABEB"/>
<path d="M49.8665 93.7984C51.7245 93.7984 53.2307 92.2692 53.2307 90.3829C53.2307 88.4965 51.7245 86.9673 49.8665 86.9673C48.0085 86.9673 46.5023 88.4965 46.5023 90.3829C46.5023 92.2692 48.0085 93.7984 49.8665 93.7984Z" fill="#00ABEB"/>
<path d="M73.1246 93.7984C74.9826 93.7984 76.4887 92.2692 76.4887 90.3829C76.4887 88.4965 74.9826 86.9673 73.1246 86.9673C71.2666 86.9673 69.7604 88.4965 69.7604 90.3829C69.7604 92.2692 71.2666 93.7984 73.1246 93.7984Z" fill="#00ABEB"/>
<path d="M96.3756 93.7984C98.2336 93.7984 99.7398 92.2692 99.7398 90.3829C99.7398 88.4965 98.2336 86.9673 96.3756 86.9673C94.5176 86.9673 93.0114 88.4965 93.0114 90.3829C93.0114 92.2692 94.5176 93.7984 96.3756 93.7984Z" fill="#00ABEB"/>
<path d="M119.627 93.7984C121.485 93.7984 122.991 92.2692 122.991 90.3829C122.991 88.4965 121.485 86.9673 119.627 86.9673C117.769 86.9673 116.263 88.4965 116.263 90.3829C116.263 92.2692 117.769 93.7984 119.627 93.7984Z" fill="#00ABEB"/>
<path d="M142.878 93.7984C144.736 93.7984 146.242 92.2692 146.242 90.3829C146.242 88.4965 144.736 86.9673 142.878 86.9673C141.02 86.9673 139.514 88.4965 139.514 90.3829C139.514 92.2692 141.02 93.7984 142.878 93.7984Z" fill="#00ABEB"/>
<path d="M166.129 93.7984C167.987 93.7984 169.493 92.2692 169.493 90.3829C169.493 88.4965 167.987 86.9673 166.129 86.9673C164.271 86.9673 162.765 88.4965 162.765 90.3829C162.765 92.2692 164.271 93.7984 166.129 93.7984Z" fill="#00ABEB"/>
<path d="M189.38 93.7984C191.238 93.7984 192.744 92.2692 192.744 90.3829C192.744 88.4965 191.238 86.9673 189.38 86.9673C187.522 86.9673 186.016 88.4965 186.016 90.3829C186.016 92.2692 187.522 93.7984 189.38 93.7984Z" fill="#00ABEB"/>
<path d="M212.631 93.7984C214.489 93.7984 215.995 92.2692 215.995 90.3829C215.995 88.4965 214.489 86.9673 212.631 86.9673C210.773 86.9673 209.267 88.4965 209.267 90.3829C209.267 92.2692 210.773 93.7984 212.631 93.7984Z" fill="#00ABEB"/>
<path d="M235.882 93.7984C237.74 93.7984 239.247 92.2692 239.247 90.3829C239.247 88.4965 237.74 86.9673 235.882 86.9673C234.024 86.9673 232.518 88.4965 232.518 90.3829C232.518 92.2692 234.024 93.7984 235.882 93.7984Z" fill="#00ABEB"/>
<path d="M3.36418 115.546C5.22218 115.546 6.72845 114.016 6.72845 112.13C6.72845 110.244 5.22218 108.714 3.36418 108.714C1.50619 108.714 0 110.244 0 112.13C0 114.016 1.50619 115.546 3.36418 115.546Z" fill="#00ABEB"/>
<path d="M26.6153 115.546C28.4733 115.546 29.9795 114.016 29.9795 112.13C29.9795 110.244 28.4733 108.714 26.6153 108.714C24.7573 108.714 23.2511 110.244 23.2511 112.13C23.2511 114.016 24.7573 115.546 26.6153 115.546Z" fill="#00ABEB"/>
<path d="M49.8665 115.546C51.7245 115.546 53.2307 114.016 53.2307 112.13C53.2307 110.244 51.7245 108.714 49.8665 108.714C48.0085 108.714 46.5023 110.244 46.5023 112.13C46.5023 114.016 48.0085 115.546 49.8665 115.546Z" fill="#00ABEB"/>
<path d="M73.1246 115.546C74.9826 115.546 76.4887 114.016 76.4887 112.13C76.4887 110.244 74.9826 108.714 73.1246 108.714C71.2666 108.714 69.7604 110.244 69.7604 112.13C69.7604 114.016 71.2666 115.546 73.1246 115.546Z" fill="#00ABEB"/>
<path d="M96.3756 115.546C98.2336 115.546 99.7398 114.016 99.7398 112.13C99.7398 110.244 98.2336 108.714 96.3756 108.714C94.5176 108.714 93.0114 110.244 93.0114 112.13C93.0114 114.016 94.5176 115.546 96.3756 115.546Z" fill="#00ABEB"/>
<path d="M119.627 115.546C121.485 115.546 122.991 114.016 122.991 112.13C122.991 110.244 121.485 108.714 119.627 108.714C117.769 108.714 116.263 110.244 116.263 112.13C116.263 114.016 117.769 115.546 119.627 115.546Z" fill="#00ABEB"/>
<path d="M142.878 115.546C144.736 115.546 146.242 114.016 146.242 112.13C146.242 110.244 144.736 108.714 142.878 108.714C141.02 108.714 139.514 110.244 139.514 112.13C139.514 114.016 141.02 115.546 142.878 115.546Z" fill="#00ABEB"/>
<path d="M166.129 115.546C167.987 115.546 169.493 114.016 169.493 112.13C169.493 110.244 167.987 108.714 166.129 108.714C164.271 108.714 162.765 110.244 162.765 112.13C162.765 114.016 164.271 115.546 166.129 115.546Z" fill="#00ABEB"/>
<path d="M189.38 115.546C191.238 115.546 192.744 114.016 192.744 112.13C192.744 110.244 191.238 108.714 189.38 108.714C187.522 108.714 186.016 110.244 186.016 112.13C186.016 114.016 187.522 115.546 189.38 115.546Z" fill="#00ABEB"/>
<path d="M212.631 115.546C214.489 115.546 215.995 114.016 215.995 112.13C215.995 110.244 214.489 108.714 212.631 108.714C210.773 108.714 209.267 110.244 209.267 112.13C209.267 114.016 210.773 115.546 212.631 115.546Z" fill="#00ABEB"/>
<path d="M235.882 115.546C237.74 115.546 239.247 114.016 239.247 112.13C239.247 110.244 237.74 108.714 235.882 108.714C234.024 108.714 232.518 110.244 232.518 112.13C232.518 114.016 234.024 115.546 235.882 115.546Z" fill="#00ABEB"/>
<path d="M3.36418 137.286C5.22218 137.286 6.72845 135.757 6.72845 133.87C6.72845 131.984 5.22218 130.455 3.36418 130.455C1.50619 130.455 0 131.984 0 133.87C0 135.757 1.50619 137.286 3.36418 137.286Z" fill="#00ABEB"/>
<path d="M26.6153 137.286C28.4733 137.286 29.9795 135.757 29.9795 133.87C29.9795 131.984 28.4733 130.455 26.6153 130.455C24.7573 130.455 23.2511 131.984 23.2511 133.87C23.2511 135.757 24.7573 137.286 26.6153 137.286Z" fill="#00ABEB"/>
<path d="M49.8665 137.286C51.7245 137.286 53.2307 135.757 53.2307 133.87C53.2307 131.984 51.7245 130.455 49.8665 130.455C48.0085 130.455 46.5023 131.984 46.5023 133.87C46.5023 135.757 48.0085 137.286 49.8665 137.286Z" fill="#00ABEB"/>
<path d="M73.1246 137.286C74.9826 137.286 76.4887 135.757 76.4887 133.87C76.4887 131.984 74.9826 130.455 73.1246 130.455C71.2666 130.455 69.7604 131.984 69.7604 133.87C69.7604 135.757 71.2666 137.286 73.1246 137.286Z" fill="#00ABEB"/>
<path d="M96.3756 137.286C98.2336 137.286 99.7398 135.757 99.7398 133.87C99.7398 131.984 98.2336 130.455 96.3756 130.455C94.5176 130.455 93.0114 131.984 93.0114 133.87C93.0114 135.757 94.5176 137.286 96.3756 137.286Z" fill="#00ABEB"/>
<path d="M119.627 137.286C121.485 137.286 122.991 135.757 122.991 133.87C122.991 131.984 121.485 130.455 119.627 130.455C117.769 130.455 116.263 131.984 116.263 133.87C116.263 135.757 117.769 137.286 119.627 137.286Z" fill="#00ABEB"/>
<path d="M142.878 137.286C144.736 137.286 146.242 135.757 146.242 133.87C146.242 131.984 144.736 130.455 142.878 130.455C141.02 130.455 139.514 131.984 139.514 133.87C139.514 135.757 141.02 137.286 142.878 137.286Z" fill="#00ABEB"/>
<path d="M166.129 137.286C167.987 137.286 169.493 135.757 169.493 133.87C169.493 131.984 167.987 130.455 166.129 130.455C164.271 130.455 162.765 131.984 162.765 133.87C162.765 135.757 164.271 137.286 166.129 137.286Z" fill="#00ABEB"/>
<path d="M189.38 137.286C191.238 137.286 192.744 135.757 192.744 133.87C192.744 131.984 191.238 130.455 189.38 130.455C187.522 130.455 186.016 131.984 186.016 133.87C186.016 135.757 187.522 137.286 189.38 137.286Z" fill="#00ABEB"/>
<path d="M212.631 137.286C214.489 137.286 215.995 135.757 215.995 133.87C215.995 131.984 214.489 130.455 212.631 130.455C210.773 130.455 209.267 131.984 209.267 133.87C209.267 135.757 210.773 137.286 212.631 137.286Z" fill="#00ABEB"/>
<path d="M235.882 137.286C237.74 137.286 239.247 135.757 239.247 133.87C239.247 131.984 237.74 130.455 235.882 130.455C234.024 130.455 232.518 131.984 232.518 133.87C232.518 135.757 234.024 137.286 235.882 137.286Z" fill="#00ABEB"/>
</svg>
