<svg width="46" height="43" viewBox="0 0 46 43" fill="none" xmlns="http://www.w3.org/2000/svg">
<g clip-path="url(#clip0_1139_48485)">
<path d="M0 3.18555C0 1.7358 1.15846 0.560547 2.5875 0.560547H43.4125C44.8415 0.560547 46 1.7358 46 3.18555V39.9355C46 41.3853 44.8415 42.5605 43.4125 42.5605H2.5875C1.15847 42.5605 0 41.3853 0 39.9355V3.18555Z" fill="url(#paint0_linear_1139_48485)"/>
<path d="M25.3107 3.96387L33.0212 4.03422L33.1086 4.21533C33.1564 4.31487 33.4002 4.86793 33.6491 5.4442C33.898 6.02046 34.1463 6.59299 34.1991 6.71647C34.2527 6.83996 34.4635 7.31968 34.6684 7.78294C34.8732 8.24619 35.0407 8.64135 35.0407 8.6623C35.0407 8.68326 35.1552 8.9437 35.2955 9.24231C35.4358 9.54092 35.551 9.81034 35.5525 9.84103C35.554 9.87171 35.6898 10.192 35.8543 10.552C36.0196 10.912 36.2296 11.3752 36.3214 11.581C36.4132 11.7869 36.5755 12.1491 36.6819 12.3856C36.7884 12.6221 36.8758 12.8324 36.8758 12.8533C36.8758 12.8735 36.9911 13.1429 37.1328 13.452C37.2738 13.7611 37.3898 14.0305 37.3898 14.0508C37.3898 14.0717 37.4912 14.2985 37.616 14.5559C37.7401 14.8134 37.9017 15.1748 37.9744 15.3604C38.0471 15.546 38.1748 15.8491 38.2578 16.034C38.3408 16.2196 38.5919 16.7831 38.8174 17.2876C39.0421 17.792 39.2264 18.2208 39.2264 18.2418C39.2264 18.262 39.3447 18.5404 39.4886 18.8592C39.6332 19.178 39.8183 19.5911 39.9005 19.776C39.9828 19.9608 40.1253 20.2812 40.2178 20.487C40.3103 20.6928 40.5012 21.1306 40.643 21.4599C40.7847 21.7892 41.0983 22.5136 41.779 24.0793L41.804 28.9064C41.8179 31.561 41.8047 33.7418 41.7761 33.7523C41.7474 33.7628 40.7237 33.771 37.2804 33.7702L37.1519 33.5465C37.0814 33.423 37.0234 33.289 37.0234 33.2479C37.0234 33.2067 36.8251 32.7517 36.5828 32.2375C36.3405 31.7234 36.1415 31.2766 36.14 31.2459C36.1385 31.2152 36.0431 30.9877 35.927 30.7407C35.811 30.4938 35.5459 29.8876 35.3366 29.3936C35.1281 28.8997 34.8468 28.2598 34.7117 27.9717C34.5766 27.6835 34.382 27.2629 34.2777 27.0362C34.1742 26.8102 34.0882 26.5991 34.0875 26.5684C34.0868 26.5377 33.937 26.192 33.7556 25.8013C33.5742 25.4099 33.4251 25.0731 33.4251 25.0529C33.4251 25.0327 33.2761 24.6952 33.0947 24.3045C32.9126 23.9131 32.765 23.5853 32.7664 23.5748C32.7679 23.5644 32.6012 23.1857 32.3971 22.7329C32.1929 22.2801 31.9785 21.8086 31.9205 21.6851C31.8625 21.5617 31.6855 21.1575 31.5269 20.7871C31.3682 20.4166 31.1391 19.895 31.0172 19.6271C30.8953 19.3591 30.5781 18.6437 30.3115 18.0367C30.045 17.4298 29.8122 16.8644 29.8122 16.8644L29.7755 16.7896L29.7021 16.6773C29.7021 16.6773 29.3958 15.9562 29.0485 15.1741C28.7011 14.392 28.3251 13.5336 28.2135 13.2657C28.1019 12.9985 27.872 12.4761 27.7031 12.1057C27.5343 11.7352 27.2816 11.1881 27.1421 10.8895C27.0026 10.5909 26.8888 10.3305 26.8888 10.3095C26.8888 10.2893 26.7727 10.0199 26.6317 9.7108C26.4908 9.40172 26.3747 9.13229 26.3747 9.11209C26.3747 9.09188 26.2565 8.81348 26.1118 8.49466C25.9672 8.17584 25.7821 7.77994 25.7006 7.6153C25.6191 7.45065 25.4979 7.24858 25.4311 7.16551C25.3643 7.08319 25.2108 6.93875 25.0896 6.8452C24.9685 6.75165 24.8282 6.67606 24.7775 6.67755C24.7269 6.67905 24.5514 6.85717 24.3869 7.07271C24.1945 7.32492 24.0241 7.67292 23.9095 8.04562C23.7906 8.43254 23.7069 8.95567 23.6577 9.61726C23.6173 10.1628 23.5842 11.9897 23.5835 13.6773C23.5835 15.3649 23.5585 17.0728 23.5284 17.4724C23.4983 17.8721 23.5086 22.8377 23.5086 22.8377C23.2839 26.4884 23.2787 22.8938 23.2354 22.3138V19.7692C23.2281 20.0057 23.3206 18.7207 23.2905 18.7215C23.2604 18.7222 23.1546 17.8945 23.1231 17.5136C23.0915 17.1326 23.0342 16.6694 22.996 16.4838C22.9578 16.2989 22.8425 15.6082 22.7397 14.9496C22.6369 14.291 22.5048 13.5838 22.4467 13.3779C22.388 13.1721 22.2712 12.7515 22.1868 12.4425C22.1023 12.1334 21.9819 11.73 21.9187 11.5444C21.8556 11.3588 21.7219 10.9883 21.6213 10.7211C21.5207 10.4532 21.3078 9.94879 21.1477 9.59855C20.9876 9.24904 20.7379 8.76034 20.5933 8.51337C20.4486 8.2664 20.1695 7.83682 19.9749 7.55917C19.7062 7.17599 19.6357 7.02257 19.6849 6.92303C19.7209 6.85118 19.9764 6.57577 20.254 6.31159C20.5316 6.04741 21.0229 5.64327 21.346 5.41351C21.6691 5.1845 22.0487 4.93529 22.1905 4.86045C22.3314 4.78561 22.6949 4.62096 22.9982 4.49523C23.3015 4.3695 23.6643 4.23329 23.806 4.19363C23.9477 4.15396 24.2782 4.07538 24.5403 4.01925C24.8032 3.96387 25.1498 3.93917 25.3114 3.96462L25.3107 3.96387ZM41.0256 4.04245C43.3894 4.06116 43.6134 4.07388 43.816 4.20261C43.9372 4.27969 44.101 4.4391 44.1803 4.5566C44.2802 4.70478 44.3257 4.89937 44.3272 5.18825C44.3294 5.52951 44.2926 5.65599 44.1281 5.88051C44.0173 6.03169 43.7529 6.26743 43.5407 6.40514C43.3284 6.54284 43.031 6.79505 42.8798 6.96644C42.7285 7.13782 42.55 7.38778 42.4832 7.521C42.4164 7.65496 42.2996 7.94983 42.2225 8.17584C42.1454 8.40186 42.0287 8.95792 41.9633 9.4107C41.8642 10.0925 41.8201 15.1546 41.8201 15.1546V20.569L41.4515 19.9328L40.8641 18.7354C40.8641 18.7354 40.3213 17.5001 40.2457 17.325C40.1179 17.0309 40.1076 16.7831 40.1106 14.032C40.112 12.396 40.0783 10.7369 40.0349 10.3462C39.9916 9.95553 39.9218 9.39947 39.8785 9.11134C39.8352 8.82321 39.7427 8.40261 39.6722 8.17584C39.6017 7.94983 39.4482 7.59808 39.3307 7.39527C39.2132 7.19245 38.9848 6.9148 38.8233 6.77859C38.6617 6.64238 38.3841 6.4216 38.2057 6.28689C38.028 6.15293 37.8128 5.94787 37.7284 5.83187C37.6138 5.67396 37.5749 5.51006 37.5749 5.18301C37.5749 4.8597 37.6145 4.68981 37.7262 4.5334C37.8091 4.4174 38.0074 4.25425 38.1668 4.17192C38.4421 4.02973 38.5802 4.02299 41.0263 4.04245H41.0256ZM11.1746 4.5087V34.3697H2.80313L2.50939 34.1452C2.2935 33.9805 2.19436 33.8361 2.13561 33.6026C2.09155 33.4275 2.0776 33.1334 2.10477 32.9478C2.13855 32.715 2.22594 32.5354 2.38676 32.3663C2.51453 32.2315 2.65259 32.123 2.69298 32.1238C2.73337 32.1253 2.92356 32.025 3.11522 31.9008C3.30689 31.7765 3.54628 31.5408 3.83121 31.0768V19.6263C3.83121 12.0675 3.80624 8.16312 3.75777 8.13842C3.71738 8.11822 3.68434 8.04188 3.6836 7.97004C3.6836 7.89819 3.65056 7.71259 3.61017 7.55842C3.54555 7.31145 3.47799 7.24708 3.04179 7.02331C2.76935 6.88336 2.44697 6.66184 2.32581 6.53162C2.1224 6.31309 2.10551 6.25396 2.10551 5.74505C2.10551 5.26159 2.12754 5.17028 2.28909 4.99441C2.39043 4.8844 2.53877 4.75492 2.61954 4.70778C2.72309 4.64641 3.88848 4.60974 6.58498 4.58205C8.6852 4.56109 10.5769 4.53564 11.1746 4.5087ZM12.5662 4.5087H12.8805C13.0531 4.5087 13.4591 4.55735 13.7823 4.61572C14.1054 4.67485 14.5849 4.77438 14.847 4.83725C15.1099 4.90011 15.6049 5.09095 15.9486 5.26159C16.2922 5.43222 16.8041 5.72784 17.0868 5.91943C17.3695 6.11102 17.8285 6.48597 18.1075 6.75389C18.3858 7.02182 18.7861 7.45963 18.9961 7.72681C19.2061 7.99473 19.5652 8.50813 19.7928 8.86811C20.0212 9.22809 20.2077 9.54017 20.2077 9.56038C20.2077 9.58058 20.3575 9.90913 20.5404 10.2901C20.7232 10.671 20.8723 11.016 20.8716 11.0572C20.8708 11.0983 20.9134 11.2166 20.9663 11.3191C21.0192 11.4224 21.0875 11.6072 21.1183 11.7307C21.1492 11.8542 21.2167 12.0563 21.2696 12.1798C21.3225 12.3032 21.4194 12.5891 21.4848 12.8159C21.5501 13.0419 21.7007 13.6825 21.8189 14.2379C21.9371 14.7939 22.084 15.6186 22.1449 16.0714C22.2059 16.5242 22.3109 17.4844 22.3777 18.2044C22.4651 19.1451 22.4871 19.8725 22.4563 20.7863C22.4328 21.4861 22.3821 22.328 22.3454 22.6573C22.3079 22.9866 22.2242 23.5591 22.1589 23.9296C22.0935 24.3 21.9415 24.9818 21.8218 25.4451C21.7014 25.9083 21.5508 26.43 21.487 26.6051C21.4231 26.7802 21.3181 27.0579 21.2549 27.2225C21.191 27.3872 21.0287 27.7659 20.8943 28.0645C20.76 28.3631 20.6491 28.6407 20.6491 28.6819C20.6491 28.7231 20.6241 28.7567 20.594 28.7567C20.5639 28.7567 20.4985 28.8495 20.4501 28.9625C20.4009 29.0756 20.2547 29.3367 20.1248 29.5426C19.9948 29.7484 19.7069 30.169 19.4851 30.4781C19.2634 30.7871 18.7824 31.3439 18.4152 31.7166C18.0488 32.0893 17.567 32.5309 17.3445 32.6985C17.1228 32.8662 16.713 33.1341 16.4347 33.2935C16.1564 33.4537 15.917 33.6093 15.9023 33.64C15.8876 33.6707 15.8267 33.6962 15.7657 33.6962C15.7055 33.6962 15.5153 33.762 15.3435 33.8421C15.1716 33.9222 14.7501 34.0606 14.4072 34.1489C14.0642 34.2372 13.5267 34.3315 12.644 34.4071L12.6455 33.322C12.6462 32.7255 12.6712 32.2009 12.7013 32.1575C12.7307 32.114 12.854 32.0385 12.9752 31.9898C13.0964 31.9412 13.3115 31.8147 13.4525 31.7084C13.5935 31.6029 13.8006 31.3746 13.9122 31.2025C14.0239 31.0304 14.1781 30.6704 14.2552 30.4025C14.3323 30.1345 14.4476 29.5455 14.5115 29.0928C14.6091 28.3983 14.626 27.3774 14.6216 22.5817C14.6187 19.4534 14.5871 15.2602 14.5518 13.2642C14.5166 11.2675 14.4534 9.46608 14.4123 9.26027C14.3712 9.05446 14.2625 8.65182 14.17 8.36519C14.0481 7.98575 13.913 7.74776 13.6721 7.48732C13.4555 7.25307 13.2146 7.08393 12.6073 6.86091L12.5867 5.68443L12.5662 4.50795V4.5087ZM23.4719 22.4261C23.4983 22.444 23.4756 22.6581 23.5086 22.8377C23.5416 23.0173 23.549 24.7304 23.582 26.6238C23.6298 29.3592 23.665 30.1435 23.7539 30.4406C23.8155 30.6464 23.9184 30.9578 23.9822 31.1329C24.0461 31.308 24.1298 31.4929 24.1673 31.5445C24.2055 31.5962 24.3788 31.8005 24.5528 31.9988C24.7269 32.1971 24.9934 32.4246 25.1447 32.504C25.296 32.5833 25.5523 32.6484 25.7138 32.6484C25.8754 32.6484 26.1647 32.5983 26.3564 32.5369C26.548 32.4755 26.7713 32.3565 26.852 32.2727C26.9328 32.1889 27.032 32.1193 27.0723 32.1185C27.1127 32.1178 27.3419 31.9427 27.5812 31.7279C27.8206 31.5138 28.2091 31.0775 28.4441 30.7579C28.6791 30.4391 28.8715 30.1443 28.8715 30.1031C28.8715 30.0619 28.9662 29.8853 29.0815 29.7102C29.1968 29.5351 29.3459 29.3667 29.412 29.336C29.4781 29.3053 29.6484 29.2799 29.7894 29.2799C29.9304 29.2799 30.1456 29.33 30.2667 29.3921C30.3894 29.4542 30.5524 29.6376 30.6339 29.8037C30.7147 29.9684 30.78 30.1959 30.78 30.3089C30.7793 30.4219 30.736 30.6831 30.6824 30.8889C30.6295 31.0947 30.4907 31.4315 30.3747 31.6373C30.2587 31.8431 30.0303 32.1814 29.8665 32.388C29.7028 32.5953 29.3804 32.932 29.1505 33.1364C28.92 33.3407 28.624 33.5921 28.4926 33.6954C28.3611 33.7987 28.2466 33.8653 28.2377 33.8451C28.2289 33.8249 28.1452 33.8795 28.0512 33.9678C27.9572 34.0561 27.6488 34.247 27.3661 34.3922C27.0834 34.5374 26.6707 34.717 26.4482 34.7911C26.1632 34.8854 25.8174 34.925 25.2732 34.9243C24.7445 34.9235 24.2716 34.8704 23.7678 34.7551C23.3639 34.6631 22.9755 34.5553 22.905 34.5156C22.8345 34.476 22.7265 34.4438 22.6663 34.4438C22.6054 34.4438 22.1927 34.2582 21.7484 34.0322C21.3041 33.8062 20.9237 33.5869 20.9039 33.5457C20.8841 33.5046 20.771 33.4118 20.6542 33.3399C20.5367 33.2681 20.1982 32.9769 19.9015 32.6926C19.3816 32.1949 19.3662 32.1702 19.4719 32.0055C19.5321 31.912 19.8163 31.5206 20.1035 31.1374C20.3899 30.7535 20.7886 30.1532 20.9891 29.8037C21.1895 29.4542 21.4972 28.8308 21.6727 28.4192C21.8483 28.0076 22.131 27.233 22.3006 26.6979C22.4702 26.1628 22.6502 25.4892 22.7001 25.2011C22.7508 24.913 22.8176 24.6099 22.8492 24.5276C22.8807 24.4452 22.9292 24.1758 22.9571 23.9288C22.9968 23.6983 23.0335 23.6609 23.0577 23.5397C23.1069 23.4364 23.1488 17.7748 23.1231 17.5136C23.0949 17.2148 23.2861 18.8577 23.2905 18.7215C23.2949 18.5853 23.3279 22.4754 23.3544 22.4942L23.4719 22.4261Z" fill="#FEFEFE"/>
<path d="M2.33252 39.3249V37.1308H3.18578C3.34981 37.1308 3.48956 37.1626 3.60502 37.2262C3.72047 37.289 3.80848 37.3765 3.86902 37.4886C3.93027 37.6001 3.96089 37.7286 3.96089 37.8743C3.96089 38.02 3.92992 38.1486 3.86796 38.26C3.80601 38.3714 3.71625 38.4582 3.59868 38.5203C3.48182 38.5825 3.34031 38.6135 3.17416 38.6135H2.63032V38.2418H3.10024C3.18824 38.2418 3.26076 38.2264 3.31778 38.1957C3.37551 38.1643 3.41845 38.1211 3.44661 38.0661C3.47548 38.0104 3.48991 37.9465 3.48991 37.8743C3.48991 37.8015 3.47548 37.7379 3.44661 37.6836C3.41845 37.6286 3.37551 37.5861 3.31778 37.5561C3.26005 37.5254 3.18684 37.5101 3.09813 37.5101H2.78977V39.3249H2.33252Z" fill="white"/>
<path d="M4.21716 37.5133V37.1308H5.99338V37.5133H5.33126V39.3249H4.87928V37.5133H4.21716Z" fill="white"/>
<path d="M6.48038 39.3527C6.41069 39.3527 6.35085 39.3277 6.30086 39.2778C6.25158 39.227 6.22694 39.1663 6.22694 39.0956C6.22694 39.0256 6.25158 38.9656 6.30086 38.9156C6.35085 38.8657 6.41069 38.8407 6.48038 38.8407C6.54797 38.8407 6.60711 38.8657 6.65779 38.9156C6.70848 38.9656 6.73383 39.0256 6.73383 39.0956C6.73383 39.1428 6.72186 39.186 6.69792 39.2253C6.67469 39.2638 6.64407 39.2949 6.60605 39.3185C6.56803 39.3413 6.52614 39.3527 6.48038 39.3527Z" fill="white"/>
<path d="M7.91992 39.3249H7.15325V37.1308H7.92625C8.14379 37.1308 8.33106 37.1748 8.48805 37.2626C8.64505 37.3497 8.76578 37.4751 8.85027 37.6386C8.93545 37.8022 8.97804 37.9979 8.97804 38.2257C8.97804 38.4543 8.93545 38.6507 8.85027 38.8149C8.76578 38.9792 8.64434 39.1053 8.48594 39.1931C8.32824 39.281 8.13957 39.3249 7.91992 39.3249ZM7.6105 38.9274H7.90091C8.03608 38.9274 8.14977 38.9031 8.242 38.8546C8.33493 38.8053 8.40463 38.7292 8.45109 38.6264C8.49826 38.5228 8.52184 38.3893 8.52184 38.2257C8.52184 38.0636 8.49826 37.9311 8.45109 37.8283C8.40463 37.7254 8.33528 37.6497 8.24306 37.6011C8.15083 37.5526 8.03713 37.5283 7.90196 37.5283H7.6105V38.9274Z" fill="white"/>
<path d="M9.81565 37.1308V39.3249H9.35839V37.1308H9.81565Z" fill="white"/>
<path d="M12.0424 37.1308V39.3249H11.6475L10.7066 37.944H10.6907V39.3249H10.2335V37.1308H10.6348L11.5683 38.5107H11.5873V37.1308H12.0424Z" fill="white"/>
<path d="M12.8346 39.3249H12.3446L13.0912 37.1308H13.6805L14.426 39.3249H13.9361L13.3943 37.6322H13.3774L12.8346 39.3249ZM12.804 38.4625H13.9614V38.8246H12.804V38.4625Z" fill="white"/>
<path d="M14.728 39.3249V37.1308H15.5812C15.7446 37.1308 15.884 37.1605 15.9994 37.2197C16.1156 37.2783 16.2039 37.3615 16.2645 37.4694C16.3257 37.5765 16.3564 37.7026 16.3564 37.8475C16.3564 37.9932 16.3254 38.1186 16.2634 38.2236C16.2015 38.3278 16.1117 38.4078 15.9941 38.4636C15.8773 38.5193 15.7358 38.5471 15.5696 38.5471H14.9983V38.1743H15.4957C15.583 38.1743 15.6555 38.1622 15.7132 38.1379C15.771 38.1136 15.8139 38.0772 15.8421 38.0286C15.8709 37.98 15.8854 37.9197 15.8854 37.8475C15.8854 37.7747 15.8709 37.7133 15.8421 37.6633C15.8139 37.6133 15.7706 37.5754 15.7122 37.5497C15.6545 37.5233 15.5816 37.5101 15.4936 37.5101H15.1852V39.3249H14.728ZM15.8959 38.3264L16.4334 39.3249H15.9287L15.4028 38.3264H15.8959Z" fill="white"/>
<path d="M19.3592 37.899H18.8967C18.8883 37.8383 18.871 37.7843 18.845 37.7372C18.8189 37.6893 18.7855 37.6486 18.7446 37.6151C18.7038 37.5815 18.6566 37.5558 18.6031 37.5379C18.5503 37.5201 18.493 37.5111 18.431 37.5111C18.3191 37.5111 18.2216 37.5394 18.1385 37.5958C18.0554 37.6515 17.991 37.7329 17.9452 37.84C17.8995 37.9465 17.8766 38.0757 17.8766 38.2279C17.8766 38.3843 17.8995 38.5157 17.9452 38.6221C17.9917 38.7285 18.0565 38.8089 18.1395 38.8632C18.2226 38.9174 18.3187 38.9446 18.4278 38.9446C18.4891 38.9446 18.5458 38.9364 18.5979 38.9199C18.6507 38.9035 18.6975 38.8796 18.7383 38.8482C18.7791 38.816 18.8129 38.7771 18.8397 38.7314C18.8671 38.6857 18.8861 38.6335 18.8967 38.575L19.3592 38.5771C19.3473 38.6778 19.3174 38.7749 19.2695 38.8685C19.2223 38.9614 19.1586 39.0446 19.0783 39.1181C18.9988 39.191 18.9037 39.2488 18.7932 39.2917C18.6834 39.3338 18.5591 39.3549 18.4204 39.3549C18.2275 39.3549 18.0551 39.3106 17.903 39.222C17.7516 39.1335 17.632 39.0053 17.544 38.8374C17.4567 38.6696 17.413 38.4664 17.413 38.2279C17.413 37.9886 17.4574 37.785 17.5461 37.6172C17.6348 37.4494 17.7552 37.3215 17.9072 37.2337C18.0593 37.1451 18.2304 37.1008 18.4204 37.1008C18.5458 37.1008 18.6619 37.1187 18.7689 37.1544C18.8766 37.1901 18.972 37.2422 19.0551 37.3108C19.1382 37.3787 19.2058 37.4619 19.2579 37.5604C19.3107 37.659 19.3445 37.7718 19.3592 37.899Z" fill="white"/>
<path d="M20.0609 39.3249H19.5709L20.3175 37.1308H20.9067L21.6523 39.3249H21.1623L20.6206 37.6322H20.6037L20.0609 39.3249ZM20.0303 38.4625H21.1877V38.8246H20.0303V38.4625Z" fill="white"/>
<path d="M21.9542 39.3249V37.1308H22.4115V38.0361H23.3397V37.1308H23.7959V39.3249H23.3397V38.4186H22.4115V39.3249H21.9542Z" fill="white"/>
<path d="M24.5873 39.3249H24.0973L24.8439 37.1308H25.4332L26.1787 39.3249H25.6888L25.147 37.6322H25.1301L24.5873 39.3249ZM24.5567 38.4625H25.7141V38.8246H24.5567V38.4625Z" fill="white"/>
<path d="M26.1333 37.1308H26.6454L27.1386 38.0757H27.1597L27.6529 37.1308H28.165L27.3762 38.5493V39.3249H26.9221V38.5493L26.1333 37.1308Z" fill="white"/>
<path d="M28.6085 39.3249H28.1185L28.8651 37.1308H29.4543L30.1999 39.3249H29.7099L29.1682 37.6322H29.1513L28.6085 39.3249ZM28.5778 38.4625H29.7352V38.8246H28.5778V38.4625Z" fill="white"/>
<path d="M33.0407 37.1308V39.3249H32.6457L31.7048 37.944H31.689V39.3249H31.2317V37.1308H31.633L32.5665 38.5107H32.5855V37.1308H33.0407Z" fill="white"/>
<path d="M33.4601 39.3249V37.1308H34.9174V37.5133H33.9173V38.0361H34.8424V38.4186H33.9173V38.9424H34.9216V39.3249H33.4601Z" fill="white"/>
<path d="M36.7566 37.84C36.7418 37.7879 36.7211 37.7418 36.6943 37.7018C36.6676 37.6611 36.6348 37.6268 36.5961 37.599C36.5581 37.5704 36.5144 37.5486 36.4652 37.5336C36.4166 37.5186 36.3627 37.5111 36.3036 37.5111C36.1931 37.5111 36.0959 37.539 36.0121 37.5947C35.9291 37.6504 35.8643 37.7315 35.8178 37.8379C35.7714 37.9436 35.7481 38.0729 35.7481 38.2257C35.7481 38.3786 35.771 38.5085 35.8168 38.6157C35.8625 38.7228 35.9273 38.8046 36.0111 38.861C36.0949 38.9167 36.1938 38.9446 36.3078 38.9446C36.4113 38.9446 36.4997 38.926 36.5729 38.8889C36.6468 38.851 36.7031 38.7978 36.7418 38.7292C36.7813 38.6607 36.801 38.5796 36.801 38.486L36.8939 38.5H36.3363V38.1507H37.2413V38.4271C37.2413 38.62 37.2012 38.7857 37.1209 38.9242C37.0407 39.0621 36.9302 39.1685 36.7894 39.2435C36.6486 39.3177 36.4873 39.3549 36.3057 39.3549C36.103 39.3549 35.9248 39.3095 35.7714 39.2188C35.6179 39.1274 35.4982 38.9978 35.4123 38.8299C35.3271 38.6614 35.2845 38.4614 35.2845 38.23C35.2845 38.0522 35.3099 37.8936 35.3606 37.7543C35.412 37.6143 35.4838 37.4958 35.576 37.3987C35.6682 37.3015 35.7756 37.2276 35.8981 37.1769C36.0206 37.1262 36.1533 37.1008 36.2962 37.1008C36.4187 37.1008 36.5327 37.119 36.6384 37.1555C36.7439 37.1912 36.8376 37.2419 36.9193 37.3076C37.0016 37.3733 37.0689 37.4515 37.1209 37.5422C37.173 37.6322 37.2065 37.7315 37.2213 37.84H36.7566Z" fill="white"/>
<path d="M37.9324 39.3249H37.4424L38.189 37.1308H38.7783L39.5238 39.3249H39.0338L38.4921 37.6322H38.4752L37.9324 39.3249ZM37.9018 38.4625H39.0592V38.8246H37.9018V38.4625Z" fill="white"/>
<path d="M39.8258 39.3249V37.1308H40.679C40.8424 37.1308 40.9818 37.1605 41.0972 37.2197C41.2134 37.2783 41.3017 37.3615 41.3623 37.4694C41.4235 37.5765 41.4541 37.7026 41.4541 37.8475C41.4541 37.9932 41.4232 38.1186 41.3612 38.2236C41.2993 38.3278 41.2095 38.4078 41.0919 38.4636C40.9751 38.5193 40.8336 38.5471 40.6674 38.5471H40.0961V38.1743H40.5935C40.6808 38.1743 40.7533 38.1622 40.811 38.1379C40.8688 38.1136 40.9117 38.0772 40.9399 38.0286C40.9687 37.98 40.9832 37.9197 40.9832 37.8475C40.9832 37.7747 40.9687 37.7133 40.9399 37.6633C40.9117 37.6133 40.8684 37.5754 40.81 37.5497C40.7522 37.5233 40.6794 37.5101 40.5914 37.5101H40.283V39.3249H39.8258ZM40.9937 38.3264L41.5312 39.3249H41.0265L40.5006 38.3264H40.9937Z" fill="white"/>
<path d="M42.1917 39.3249H41.7017L42.4483 37.1308H43.0376L43.7831 39.3249H43.2931L42.7514 37.6322H42.7345L42.1917 39.3249ZM42.1611 38.4625H43.3185V38.8246H42.1611V38.4625Z" fill="white"/>
</g>
<defs>
<linearGradient id="paint0_linear_1139_48485" x1="23" y1="-13.0895" x2="23" y2="42.5606" gradientUnits="userSpaceOnUse">
<stop stop-color="#2C3294"/>
<stop offset="1" stop-color="#00ABEB"/>
</linearGradient>
<clipPath id="clip0_1139_48485">
<rect width="46" height="42" fill="white" transform="translate(0 0.560547)"/>
</clipPath>
</defs>
</svg>
