<svg width="36" height="36" viewBox="0 0 36 36" fill="none" xmlns="http://www.w3.org/2000/svg">
<rect width="36" height="36" rx="18" fill="url(#paint0_linear_1002_15982)"/>
<path d="M25.8283 12.4117C25.7199 12.3024 25.5908 12.2156 25.4487 12.1564C25.3065 12.0971 25.154 12.0667 25 12.0667C24.846 12.0667 24.6935 12.0971 24.5513 12.1564C24.4091 12.2156 24.2801 12.3024 24.1716 12.4117L15.48 21.1151L11.8283 17.4517C11.7157 17.343 11.5828 17.2574 11.4371 17.2C11.2914 17.1426 11.1359 17.1145 10.9794 17.1172C10.8228 17.1199 10.6683 17.1534 10.5247 17.2158C10.3812 17.2782 10.2513 17.3683 10.1425 17.4809C10.0337 17.5935 9.94817 17.7265 9.89077 17.8721C9.83336 18.0178 9.80521 18.1733 9.80792 18.3299C9.81063 18.4864 9.84414 18.6409 9.90655 18.7845C9.96896 18.9281 10.059 19.058 10.1716 19.1667L14.6516 23.6467C14.7601 23.7561 14.8891 23.8429 15.0313 23.9021C15.1735 23.9614 15.326 23.9918 15.48 23.9918C15.634 23.9918 15.7865 23.9614 15.9287 23.9021C16.0708 23.8429 16.1999 23.7561 16.3083 23.6467L25.8283 14.1267C25.9467 14.0175 26.0412 13.8849 26.1059 13.7373C26.1705 13.5897 26.2039 13.4304 26.2039 13.2692C26.2039 13.1081 26.1705 12.9488 26.1059 12.8012C26.0412 12.6536 25.9467 12.521 25.8283 12.4117Z" fill="white"/>
<defs>
<linearGradient id="paint0_linear_1002_15982" x1="18" y1="-11.7" x2="18" y2="36" gradientUnits="userSpaceOnUse">
<stop stop-color="#2C3294"/>
<stop offset="1" stop-color="#00ABEB"/>
</linearGradient>
</defs>
</svg>
