<svg width="97" height="123" viewBox="0 0 97 123" fill="none" xmlns="http://www.w3.org/2000/svg">
<path d="M8.93435 4.14697C10.0768 4.14697 11.0019 3.22021 11.0019 2.07563C11.0019 0.931046 10.0768 0.00427246 8.93435 0.00427246C7.79191 0.00427246 6.86694 0.931046 6.86694 2.07563C6.86694 3.21594 7.79191 4.14697 8.93435 4.14697Z" fill="#00ABEB"/>
<path d="M23.2234 0C22.081 0 21.156 0.926773 21.156 2.07136C21.156 3.21594 22.081 4.14271 23.2234 4.14271C24.3659 4.14271 25.2909 3.21594 25.2909 2.07136C25.2952 0.926773 24.3659 0 23.2234 0Z" fill="#00ABEB"/>
<path d="M37.5122 0C36.3698 0 35.4448 0.926773 35.4448 2.07136C35.4448 3.21594 36.3698 4.14271 37.5122 4.14271C38.6547 4.14271 39.5798 3.21594 39.5798 2.07136C39.584 0.926773 38.6547 0 37.5122 0Z" fill="#00ABEB"/>
<path d="M51.8055 0C50.6631 0 49.738 0.926773 49.738 2.07136C49.738 3.21594 50.6631 4.14271 51.8055 4.14271C52.948 4.14271 53.8731 3.21594 53.8731 2.07136C53.8731 0.926773 52.948 0 51.8055 0Z" fill="#00ABEB"/>
<path d="M66.0946 4.14698C66.9131 4.14698 67.6122 3.66865 67.949 2.97677C66.8023 2.22938 65.6343 1.52042 64.4407 0.841354C64.1849 1.18729 64.0271 1.61011 64.0271 2.07563C64.0229 3.21594 64.9522 4.14698 66.0946 4.14698Z" fill="#00ABEB"/>
<path d="M8.93435 17.3311C10.0768 17.3311 11.0019 16.4043 11.0019 15.2597C11.0019 14.1151 10.0768 13.1883 8.93435 13.1883C7.79191 13.1883 6.86694 14.1151 6.86694 15.2597C6.86694 16.4043 7.79191 17.3311 8.93435 17.3311Z" fill="#00ABEB"/>
<path d="M23.2234 17.3311C24.3658 17.3311 25.2909 16.4043 25.2909 15.2597C25.2909 14.1151 24.3658 13.1883 23.2234 13.1883C22.081 13.1883 21.156 14.1151 21.156 15.2597C21.156 16.4043 22.081 17.3311 23.2234 17.3311Z" fill="#00ABEB"/>
<path d="M37.5122 13.1883C36.3698 13.1883 35.4448 14.1151 35.4448 15.2597C35.4448 16.4043 36.3698 17.3311 37.5122 17.3311C38.6547 17.3311 39.5798 16.4043 39.5798 15.2597C39.584 14.1151 38.6547 13.1883 37.5122 13.1883Z" fill="#00ABEB"/>
<path d="M51.8055 13.1883C50.6631 13.1883 49.738 14.1151 49.738 15.2597C49.738 16.4043 50.6631 17.3311 51.8055 17.3311C52.948 17.3311 53.8731 16.4043 53.8731 15.2597C53.8731 14.1151 52.948 13.1883 51.8055 13.1883Z" fill="#00ABEB"/>
<path d="M66.0946 13.1883C64.9522 13.1883 64.0271 14.1151 64.0271 15.2597C64.0271 16.4043 64.9522 17.3311 66.0946 17.3311C67.237 17.3311 68.1621 16.4043 68.1621 15.2597C68.1621 14.1151 67.237 13.1883 66.0946 13.1883Z" fill="#00ABEB"/>
<path d="M78.3159 15.2597C78.3159 16.4043 79.241 17.331 80.3834 17.331C81.4363 17.331 82.2932 16.5409 82.4253 15.5245C81.7305 14.7301 81.0229 13.9528 80.2939 13.1969C79.1899 13.2438 78.3159 14.145 78.3159 15.2597Z" fill="#00ABEB"/>
<path d="M8.93435 30.5151C10.0768 30.5151 11.0019 29.5883 11.0019 28.4437C11.0019 27.2992 10.0768 26.3724 8.93435 26.3724C7.79191 26.3724 6.86694 27.2992 6.86694 28.4437C6.86694 29.5883 7.79191 30.5151 8.93435 30.5151Z" fill="#00ABEB"/>
<path d="M23.2234 30.5151C24.3658 30.5151 25.2909 29.5883 25.2909 28.4437C25.2909 27.2992 24.3658 26.3724 23.2234 26.3724C22.081 26.3724 21.156 27.2992 21.156 28.4437C21.156 29.5883 22.081 30.5151 23.2234 30.5151Z" fill="#00ABEB"/>
<path d="M37.5122 26.3724C36.3698 26.3724 35.4448 27.2992 35.4448 28.4437C35.4448 29.5883 36.3698 30.5151 37.5122 30.5151C38.6547 30.5151 39.5798 29.5883 39.5798 28.4437C39.584 27.2992 38.6547 26.3724 37.5122 26.3724Z" fill="#00ABEB"/>
<path d="M51.8055 26.3724C50.6631 26.3724 49.738 27.2992 49.738 28.4437C49.738 29.5883 50.6631 30.5151 51.8055 30.5151C52.948 30.5151 53.8731 29.5883 53.8731 28.4437C53.8731 27.2992 52.948 26.3724 51.8055 26.3724Z" fill="#00ABEB"/>
<path d="M66.0946 26.3724C64.9522 26.3724 64.0271 27.2992 64.0271 28.4437C64.0271 29.5883 64.9522 30.5151 66.0946 30.5151C67.237 30.5151 68.1621 29.5883 68.1621 28.4437C68.1621 27.2992 67.237 26.3724 66.0946 26.3724Z" fill="#00ABEB"/>
<path d="M80.3834 26.3724C79.241 26.3724 78.3159 27.2992 78.3159 28.4437C78.3159 29.5883 79.241 30.5151 80.3834 30.5151C81.5259 30.5151 82.4509 29.5883 82.4509 28.4437C82.4509 27.2992 81.5259 26.3724 80.3834 26.3724Z" fill="#00ABEB"/>
<path d="M8.93435 43.7034C10.0768 43.7034 11.0019 42.7767 11.0019 41.6321C11.0019 40.4875 10.0768 39.5607 8.93435 39.5607C7.79191 39.5607 6.86694 40.4875 6.86694 41.6321C6.86694 42.7767 7.79191 43.7034 8.93435 43.7034Z" fill="#00ABEB"/>
<path d="M23.2234 43.7034C24.3658 43.7034 25.2909 42.7767 25.2909 41.6321C25.2909 40.4875 24.3658 39.5607 23.2234 39.5607C22.081 39.5607 21.156 40.4875 21.156 41.6321C21.156 42.7767 22.081 43.7034 23.2234 43.7034Z" fill="#00ABEB"/>
<path d="M37.5122 39.5607C36.3698 39.5607 35.4448 40.4875 35.4448 41.6321C35.4448 42.7767 36.3698 43.7034 37.5122 43.7034C38.6547 43.7034 39.5798 42.7767 39.5798 41.6321C39.584 40.4875 38.6547 39.5607 37.5122 39.5607Z" fill="#00ABEB"/>
<path d="M51.8055 39.5607C50.6631 39.5607 49.738 40.4875 49.738 41.6321C49.738 42.7767 50.6631 43.7034 51.8055 43.7034C52.948 43.7034 53.8731 42.7767 53.8731 41.6321C53.8731 40.4875 52.948 39.5607 51.8055 39.5607Z" fill="#00ABEB"/>
<path d="M66.0946 39.5607C64.9522 39.5607 64.0271 40.4875 64.0271 41.6321C64.0271 42.7767 64.9522 43.7034 66.0946 43.7034C67.237 43.7034 68.1621 42.7767 68.1621 41.6321C68.1621 40.4875 67.237 39.5607 66.0946 39.5607Z" fill="#00ABEB"/>
<path d="M80.3834 39.5607C79.241 39.5607 78.3159 40.4875 78.3159 41.6321C78.3159 42.7767 79.241 43.7034 80.3834 43.7034C81.5259 43.7034 82.4509 42.7767 82.4509 41.6321C82.4509 40.4875 81.5259 39.5607 80.3834 39.5607Z" fill="#00ABEB"/>
<path d="M94.6725 39.5607C93.5301 39.5607 92.605 40.4875 92.605 41.6321C92.605 42.7767 93.5301 43.7034 94.6725 43.7034C95.8149 43.7034 96.7399 42.7767 96.7399 41.6321C96.7399 41.5168 96.7229 41.4015 96.7059 41.2904C96.6547 41.1196 96.6078 40.953 96.5566 40.7822C96.2327 40.0604 95.5123 39.5607 94.6725 39.5607Z" fill="#00ABEB"/>
<path d="M8.93435 56.8875C10.0768 56.8875 11.0019 55.9607 11.0019 54.8162C11.0019 53.6716 10.0768 52.7448 8.93435 52.7448C7.79191 52.7448 6.86694 53.6716 6.86694 54.8162C6.86694 55.9607 7.79191 56.8875 8.93435 56.8875Z" fill="#00ABEB"/>
<path d="M23.2234 56.8875C24.3658 56.8875 25.2909 55.9607 25.2909 54.8162C25.2909 53.6716 24.3658 52.7448 23.2234 52.7448C22.081 52.7448 21.156 53.6716 21.156 54.8162C21.156 55.9607 22.081 56.8875 23.2234 56.8875Z" fill="#00ABEB"/>
<path d="M37.5122 52.7448C36.3698 52.7448 35.4448 53.6716 35.4448 54.8162C35.4448 55.9607 36.3698 56.8875 37.5122 56.8875C38.6547 56.8875 39.5798 55.9607 39.5798 54.8162C39.584 53.6716 38.6547 52.7448 37.5122 52.7448Z" fill="#00ABEB"/>
<path d="M51.8055 52.7448C50.6631 52.7448 49.738 53.6716 49.738 54.8162C49.738 55.9607 50.6631 56.8875 51.8055 56.8875C52.948 56.8875 53.8731 55.9607 53.8731 54.8162C53.8731 53.6716 52.948 52.7448 51.8055 52.7448Z" fill="#00ABEB"/>
<path d="M66.0946 52.7448C64.9522 52.7448 64.0271 53.6716 64.0271 54.8162C64.0271 55.9607 64.9522 56.8875 66.0946 56.8875C67.237 56.8875 68.1621 55.9607 68.1621 54.8162C68.1621 53.6716 67.237 52.7448 66.0946 52.7448Z" fill="#00ABEB"/>
<path d="M80.3834 52.7448C79.241 52.7448 78.3159 53.6716 78.3159 54.8162C78.3159 55.9607 79.241 56.8875 80.3834 56.8875C81.5259 56.8875 82.4509 55.9607 82.4509 54.8162C82.4509 53.6716 81.5259 52.7448 80.3834 52.7448Z" fill="#00ABEB"/>
<path d="M94.6725 52.7448C93.5301 52.7448 92.605 53.6716 92.605 54.8162C92.605 55.9607 93.5301 56.8875 94.6725 56.8875C95.8149 56.8875 96.7399 55.9607 96.7399 54.8162C96.7399 53.6716 95.8149 52.7448 94.6725 52.7448Z" fill="#00ABEB"/>
<path d="M8.93435 70.0758C10.0768 70.0758 11.0019 69.1491 11.0019 68.0045C11.0019 66.8599 10.0768 65.9331 8.93435 65.9331C7.79191 65.9331 6.86694 66.8599 6.86694 68.0045C6.86694 69.1491 7.79191 70.0758 8.93435 70.0758Z" fill="#00ABEB"/>
<path d="M23.2234 70.0758C24.3658 70.0758 25.2909 69.1491 25.2909 68.0045C25.2909 66.8599 24.3658 65.9331 23.2234 65.9331C22.081 65.9331 21.156 66.8599 21.156 68.0045C21.156 69.1491 22.081 70.0758 23.2234 70.0758Z" fill="#00ABEB"/>
<path d="M37.5122 65.9289C36.3698 65.9289 35.4448 66.8556 35.4448 68.0002C35.4448 69.1448 36.3698 70.0716 37.5122 70.0716C38.6547 70.0716 39.5798 69.1448 39.5798 68.0002C39.584 66.8599 38.6547 65.9289 37.5122 65.9289Z" fill="#00ABEB"/>
<path d="M51.8055 65.9289C50.6631 65.9289 49.738 66.8556 49.738 68.0002C49.738 69.1448 50.6631 70.0716 51.8055 70.0716C52.948 70.0716 53.8731 69.1448 53.8731 68.0002C53.8731 66.8599 52.948 65.9289 51.8055 65.9289Z" fill="#00ABEB"/>
<path d="M66.0946 65.9289C64.9522 65.9289 64.0271 66.8556 64.0271 68.0002C64.0271 69.1448 64.9522 70.0716 66.0946 70.0716C67.237 70.0716 68.1621 69.1448 68.1621 68.0002C68.1621 66.8599 67.237 65.9289 66.0946 65.9289Z" fill="#00ABEB"/>
<path d="M80.3834 65.9289C79.241 65.9289 78.3159 66.8556 78.3159 68.0002C78.3159 69.1448 79.241 70.0716 80.3834 70.0716C81.5259 70.0716 82.4509 69.1448 82.4509 68.0002C82.4509 66.8599 81.5259 65.9289 80.3834 65.9289Z" fill="#00ABEB"/>
<path d="M94.6725 65.9289C93.5301 65.9289 92.605 66.8556 92.605 68.0002C92.605 69.1448 93.5301 70.0716 94.6725 70.0716C95.8149 70.0716 96.7399 69.1448 96.7399 68.0002C96.7399 66.8599 95.8149 65.9289 94.6725 65.9289Z" fill="#00ABEB"/>
<path d="M8.93435 83.2599C10.0768 83.2599 11.0019 82.3331 11.0019 81.1885C11.0019 80.0439 10.0768 79.1172 8.93435 79.1172C7.79191 79.1172 6.86694 80.0439 6.86694 81.1885C6.86694 82.3331 7.79191 83.2599 8.93435 83.2599Z" fill="#00ABEB"/>
<path d="M23.2234 83.2599C24.3658 83.2599 25.2909 82.3331 25.2909 81.1885C25.2909 80.0439 24.3658 79.1172 23.2234 79.1172C22.081 79.1172 21.156 80.0439 21.156 81.1885C21.156 82.3331 22.081 83.2599 23.2234 83.2599Z" fill="#00ABEB"/>
<path d="M37.5122 79.1172C36.3698 79.1172 35.4448 80.0439 35.4448 81.1885C35.4448 82.3331 36.3698 83.2599 37.5122 83.2599C38.6547 83.2599 39.5798 82.3331 39.5798 81.1885C39.584 80.0439 38.6547 79.1172 37.5122 79.1172Z" fill="#00ABEB"/>
<path d="M51.8055 79.1172C50.6631 79.1172 49.738 80.0439 49.738 81.1885C49.738 82.3331 50.6631 83.2599 51.8055 83.2599C52.948 83.2599 53.8731 82.3331 53.8731 81.1885C53.8731 80.0439 52.948 79.1172 51.8055 79.1172Z" fill="#00ABEB"/>
<path d="M66.0946 79.1172C64.9522 79.1172 64.0271 80.0439 64.0271 81.1885C64.0271 82.3331 64.9522 83.2599 66.0946 83.2599C67.237 83.2599 68.1621 82.3331 68.1621 81.1885C68.1621 80.0439 67.237 79.1172 66.0946 79.1172Z" fill="#00ABEB"/>
<path d="M80.3834 79.1172C79.241 79.1172 78.3159 80.0439 78.3159 81.1885C78.3159 82.3331 79.241 83.2599 80.3834 83.2599C81.5259 83.2599 82.4509 82.3331 82.4509 81.1885C82.4509 80.0439 81.5259 79.1172 80.3834 79.1172Z" fill="#00ABEB"/>
<path d="M94.6725 79.1172C93.5301 79.1172 92.605 80.0439 92.605 81.1885C92.605 82.3331 93.5301 83.2599 94.6725 83.2599C95.5123 83.2599 96.2327 82.7559 96.5566 82.0342C96.6078 81.8676 96.6547 81.6968 96.7059 81.5259C96.7229 81.4149 96.7399 81.3038 96.7399 81.1843C96.7399 80.0439 95.8149 79.1172 94.6725 79.1172Z" fill="#00ABEB"/>
<path d="M8.93435 96.4482C10.0768 96.4482 11.0019 95.5215 11.0019 94.3769C11.0019 93.2323 10.0768 92.3055 8.93435 92.3055C7.79191 92.3055 6.86694 93.2323 6.86694 94.3769C6.86694 95.5172 7.79191 96.4482 8.93435 96.4482Z" fill="#00ABEB"/>
<path d="M23.2234 96.4482C24.3658 96.4482 25.2909 95.5215 25.2909 94.3769C25.2909 93.2323 24.3658 92.3055 23.2234 92.3055C22.081 92.3055 21.156 93.2323 21.156 94.3769C21.156 95.5172 22.081 96.4482 23.2234 96.4482Z" fill="#00ABEB"/>
<path d="M37.5122 92.3013C36.3698 92.3013 35.4448 93.228 35.4448 94.3726C35.4448 95.5172 36.3698 96.444 37.5122 96.444C38.6547 96.444 39.5798 95.5172 39.5798 94.3726C39.584 93.228 38.6547 92.3013 37.5122 92.3013Z" fill="#00ABEB"/>
<path d="M51.8055 92.3013C50.6631 92.3013 49.738 93.228 49.738 94.3726C49.738 95.5172 50.6631 96.444 51.8055 96.444C52.948 96.444 53.8731 95.5172 53.8731 94.3726C53.8731 93.228 52.948 92.3013 51.8055 92.3013Z" fill="#00ABEB"/>
<path d="M66.0946 92.3013C64.9522 92.3013 64.0271 93.228 64.0271 94.3726C64.0271 95.5172 64.9522 96.444 66.0946 96.444C67.237 96.444 68.1621 95.5172 68.1621 94.3726C68.1621 93.228 67.237 92.3013 66.0946 92.3013Z" fill="#00ABEB"/>
<path d="M80.3834 92.3013C79.241 92.3013 78.3159 93.228 78.3159 94.3726C78.3159 95.5172 79.241 96.444 80.3834 96.444C81.5259 96.444 82.4509 95.5172 82.4509 94.3726C82.4509 93.228 81.5259 92.3013 80.3834 92.3013Z" fill="#00ABEB"/>
<path d="M8.93435 109.632C10.0768 109.632 11.0019 108.706 11.0019 107.561C11.0019 106.416 10.0768 105.49 8.93435 105.49C7.79191 105.49 6.86694 106.416 6.86694 107.561C6.86694 108.706 7.79191 109.632 8.93435 109.632Z" fill="#00ABEB"/>
<path d="M23.2234 109.632C24.3658 109.632 25.2909 108.706 25.2909 107.561C25.2909 106.416 24.3658 105.49 23.2234 105.49C22.081 105.49 21.156 106.416 21.156 107.561C21.156 108.706 22.081 109.632 23.2234 109.632Z" fill="#00ABEB"/>
<path d="M37.5122 105.49C36.3698 105.49 35.4448 106.416 35.4448 107.561C35.4448 108.706 36.3698 109.632 37.5122 109.632C38.6547 109.632 39.5798 108.706 39.5798 107.561C39.584 106.416 38.6547 105.49 37.5122 105.49Z" fill="#00ABEB"/>
<path d="M51.8055 105.49C50.6631 105.49 49.738 106.416 49.738 107.561C49.738 108.706 50.6631 109.632 51.8055 109.632C52.948 109.632 53.8731 108.706 53.8731 107.561C53.8731 106.416 52.948 105.49 51.8055 105.49Z" fill="#00ABEB"/>
<path d="M66.0946 105.49C64.9522 105.49 64.0271 106.416 64.0271 107.561C64.0271 108.706 64.9522 109.632 66.0946 109.632C67.237 109.632 68.1621 108.706 68.1621 107.561C68.1621 106.416 67.237 105.49 66.0946 105.49Z" fill="#00ABEB"/>
<path d="M80.3834 105.49C79.241 105.49 78.3159 106.416 78.3159 107.561C78.3159 108.676 79.1941 109.577 80.2939 109.624C81.0229 108.864 81.7348 108.086 82.4253 107.296C82.2932 106.275 81.4321 105.49 80.3834 105.49Z" fill="#00ABEB"/>
<path d="M8.93435 122.816C10.0768 122.816 11.0019 121.89 11.0019 120.745C11.0019 119.6 10.0768 118.674 8.93435 118.674C7.79191 118.674 6.86694 119.6 6.86694 120.745C6.86694 121.89 7.79191 122.816 8.93435 122.816Z" fill="#00ABEB"/>
<path d="M23.2234 122.816C24.3658 122.816 25.2909 121.89 25.2909 120.745C25.2909 119.6 24.3658 118.674 23.2234 118.674C22.081 118.674 21.156 119.6 21.156 120.745C21.156 121.89 22.081 122.816 23.2234 122.816Z" fill="#00ABEB"/>
<path d="M37.5122 122.816C38.6547 122.816 39.5797 121.89 39.5797 120.745C39.5797 119.6 38.6547 118.674 37.5122 118.674C36.3698 118.674 35.4448 119.6 35.4448 120.745C35.4448 121.89 36.3741 122.816 37.5122 122.816Z" fill="#00ABEB"/>
<path d="M51.8055 118.674C50.6631 118.674 49.738 119.6 49.738 120.745C49.738 121.89 50.6631 122.816 51.8055 122.816C52.948 122.816 53.8731 121.89 53.8731 120.745C53.8731 119.6 52.948 118.674 51.8055 118.674Z" fill="#00ABEB"/>
<path d="M66.0946 118.674C64.9522 118.674 64.0271 119.6 64.0271 120.745C64.0271 121.211 64.1849 121.633 64.4407 121.979C65.6343 121.3 66.8023 120.587 67.949 119.844C67.6122 119.152 66.9088 118.674 66.0946 118.674Z" fill="#00ABEB"/>
</svg>
