<svg width="265" height="207" viewBox="0 0 265 207" fill="none" xmlns="http://www.w3.org/2000/svg">
<g opacity="0.15">
<path d="M2.88514 5.7482C4.47857 5.7482 5.77035 4.46143 5.77035 2.87412C5.77035 1.2868 4.47857 0 2.88514 0C1.29171 0 0 1.2868 0 2.87412C0 4.46143 1.29171 5.7482 2.88514 5.7482Z" fill="#00ABEB"/>
<path d="M22.8254 5.7482C24.4189 5.7482 25.7106 4.46143 25.7106 2.87412C25.7106 1.2868 24.4189 0 22.8254 0C21.232 0 19.9403 1.2868 19.9403 2.87412C19.9403 4.46143 21.232 5.7482 22.8254 5.7482Z" fill="#00ABEB"/>
<path d="M42.7658 5.7482C44.3592 5.7482 45.6509 4.46143 45.6509 2.87412C45.6509 1.2868 44.3592 0 42.7658 0C41.1723 0 39.8806 1.2868 39.8806 2.87412C39.8806 4.46143 41.1723 5.7482 42.7658 5.7482Z" fill="#00ABEB"/>
<path d="M62.712 5.7482C64.3055 5.7482 65.5972 4.46143 65.5972 2.87412C65.5972 1.2868 64.3055 0 62.712 0C61.1186 0 59.8269 1.2868 59.8269 2.87412C59.8269 4.46143 61.1186 5.7482 62.712 5.7482Z" fill="#00ABEB"/>
<path d="M82.6523 5.7482C84.2457 5.7482 85.5374 4.46143 85.5374 2.87412C85.5374 1.2868 84.2457 0 82.6523 0C81.0589 0 79.7671 1.2868 79.7671 2.87412C79.7671 4.46143 81.0589 5.7482 82.6523 5.7482Z" fill="#00ABEB"/>
<path d="M102.593 5.7482C104.186 5.7482 105.478 4.46143 105.478 2.87412C105.478 1.2868 104.186 0 102.593 0C100.999 0 99.7074 1.2868 99.7074 2.87412C99.7074 4.46143 100.999 5.7482 102.593 5.7482Z" fill="#00ABEB"/>
<path d="M122.533 5.7482C124.126 5.7482 125.418 4.46143 125.418 2.87412C125.418 1.2868 124.126 0 122.533 0C120.939 0 119.648 1.2868 119.648 2.87412C119.648 4.46143 120.939 5.7482 122.533 5.7482Z" fill="#00ABEB"/>
<path d="M142.473 5.7482C144.066 5.7482 145.358 4.46143 145.358 2.87412C145.358 1.2868 144.066 0 142.473 0C140.88 0 139.588 1.2868 139.588 2.87412C139.588 4.46143 140.88 5.7482 142.473 5.7482Z" fill="#00ABEB"/>
<path d="M162.413 5.7482C164.007 5.7482 165.298 4.46143 165.298 2.87412C165.298 1.2868 164.007 0 162.413 0C160.82 0 159.528 1.2868 159.528 2.87412C159.528 4.46143 160.82 5.7482 162.413 5.7482Z" fill="#00ABEB"/>
<path d="M182.354 5.7482C183.947 5.7482 185.239 4.46143 185.239 2.87412C185.239 1.2868 183.947 0 182.354 0C180.76 0 179.469 1.2868 179.469 2.87412C179.469 4.46143 180.76 5.7482 182.354 5.7482Z" fill="#00ABEB"/>
<path d="M202.294 5.7482C203.887 5.7482 205.179 4.46143 205.179 2.87412C205.179 1.2868 203.887 0 202.294 0C200.7 0 199.409 1.2868 199.409 2.87412C199.409 4.46143 200.7 5.7482 202.294 5.7482Z" fill="#00ABEB"/>
<path d="M222.234 5.7482C223.828 5.7482 225.119 4.46143 225.119 2.87412C225.119 1.2868 223.828 0 222.234 0C220.641 0 219.349 1.2868 219.349 2.87412C219.349 4.46143 220.641 5.7482 222.234 5.7482Z" fill="#00ABEB"/>
<path d="M242.174 5.7482C243.768 5.7482 245.06 4.46143 245.06 2.87412C245.06 1.2868 243.768 0 242.174 0C240.581 0 239.289 1.2868 239.289 2.87412C239.289 4.46143 240.581 5.7482 242.174 5.7482Z" fill="#00ABEB"/>
<path d="M262.115 5.7482C263.708 5.7482 265 4.46143 265 2.87412C265 1.2868 263.708 0 262.115 0C260.521 0 259.23 1.2868 259.23 2.87412C259.23 4.46143 260.521 5.7482 262.115 5.7482Z" fill="#00ABEB"/>
<path d="M2.88514 24.0417C4.47857 24.0417 5.77035 22.7549 5.77035 21.1676C5.77035 19.5803 4.47857 18.2935 2.88514 18.2935C1.29171 18.2935 0 19.5803 0 21.1676C0 22.7549 1.29171 24.0417 2.88514 24.0417Z" fill="#00ABEB"/>
<path d="M22.8254 24.0417C24.4189 24.0417 25.7106 22.7549 25.7106 21.1676C25.7106 19.5803 24.4189 18.2935 22.8254 18.2935C21.232 18.2935 19.9403 19.5803 19.9403 21.1676C19.9403 22.7549 21.232 24.0417 22.8254 24.0417Z" fill="#00ABEB"/>
<path d="M42.7658 24.0417C44.3592 24.0417 45.6509 22.7549 45.6509 21.1676C45.6509 19.5803 44.3592 18.2935 42.7658 18.2935C41.1723 18.2935 39.8806 19.5803 39.8806 21.1676C39.8806 22.7549 41.1723 24.0417 42.7658 24.0417Z" fill="#00ABEB"/>
<path d="M62.712 24.0417C64.3055 24.0417 65.5972 22.7549 65.5972 21.1676C65.5972 19.5803 64.3055 18.2935 62.712 18.2935C61.1186 18.2935 59.8269 19.5803 59.8269 21.1676C59.8269 22.7549 61.1186 24.0417 62.712 24.0417Z" fill="#00ABEB"/>
<path d="M82.6523 24.0417C84.2457 24.0417 85.5374 22.7549 85.5374 21.1676C85.5374 19.5803 84.2457 18.2935 82.6523 18.2935C81.0589 18.2935 79.7671 19.5803 79.7671 21.1676C79.7671 22.7549 81.0589 24.0417 82.6523 24.0417Z" fill="#00ABEB"/>
<path d="M102.593 24.0417C104.186 24.0417 105.478 22.7549 105.478 21.1676C105.478 19.5803 104.186 18.2935 102.593 18.2935C100.999 18.2935 99.7074 19.5803 99.7074 21.1676C99.7074 22.7549 100.999 24.0417 102.593 24.0417Z" fill="#00ABEB"/>
<path d="M122.533 24.0417C124.126 24.0417 125.418 22.7549 125.418 21.1676C125.418 19.5803 124.126 18.2935 122.533 18.2935C120.939 18.2935 119.648 19.5803 119.648 21.1676C119.648 22.7549 120.939 24.0417 122.533 24.0417Z" fill="#00ABEB"/>
<path d="M142.473 24.0417C144.066 24.0417 145.358 22.7549 145.358 21.1676C145.358 19.5803 144.066 18.2935 142.473 18.2935C140.88 18.2935 139.588 19.5803 139.588 21.1676C139.588 22.7549 140.88 24.0417 142.473 24.0417Z" fill="#00ABEB"/>
<path d="M162.413 24.0417C164.007 24.0417 165.298 22.7549 165.298 21.1676C165.298 19.5803 164.007 18.2935 162.413 18.2935C160.82 18.2935 159.528 19.5803 159.528 21.1676C159.528 22.7549 160.82 24.0417 162.413 24.0417Z" fill="#00ABEB"/>
<path d="M182.354 24.0417C183.947 24.0417 185.239 22.7549 185.239 21.1676C185.239 19.5803 183.947 18.2935 182.354 18.2935C180.76 18.2935 179.469 19.5803 179.469 21.1676C179.469 22.7549 180.76 24.0417 182.354 24.0417Z" fill="#00ABEB"/>
<path d="M202.294 24.0417C203.887 24.0417 205.179 22.7549 205.179 21.1676C205.179 19.5803 203.887 18.2935 202.294 18.2935C200.7 18.2935 199.409 19.5803 199.409 21.1676C199.409 22.7549 200.7 24.0417 202.294 24.0417Z" fill="#00ABEB"/>
<path d="M222.234 24.0417C223.828 24.0417 225.119 22.7549 225.119 21.1676C225.119 19.5803 223.828 18.2935 222.234 18.2935C220.641 18.2935 219.349 19.5803 219.349 21.1676C219.349 22.7549 220.641 24.0417 222.234 24.0417Z" fill="#00ABEB"/>
<path d="M242.174 24.0417C243.768 24.0417 245.06 22.7549 245.06 21.1676C245.06 19.5803 243.768 18.2935 242.174 18.2935C240.581 18.2935 239.289 19.5803 239.289 21.1676C239.289 22.7549 240.581 24.0417 242.174 24.0417Z" fill="#00ABEB"/>
<path d="M262.115 24.0417C263.708 24.0417 265 22.7549 265 21.1676C265 19.5803 263.708 18.2935 262.115 18.2935C260.521 18.2935 259.23 19.5803 259.23 21.1676C259.23 22.7549 260.521 24.0417 262.115 24.0417Z" fill="#00ABEB"/>
<path d="M2.88514 42.3351C4.47857 42.3351 5.77035 41.0484 5.77035 39.4611C5.77035 37.8737 4.47857 36.587 2.88514 36.587C1.29171 36.587 0 37.8737 0 39.4611C0 41.0484 1.29171 42.3351 2.88514 42.3351Z" fill="#00ABEB"/>
<path d="M22.8254 42.3351C24.4189 42.3351 25.7106 41.0484 25.7106 39.4611C25.7106 37.8737 24.4189 36.587 22.8254 36.587C21.232 36.587 19.9403 37.8737 19.9403 39.4611C19.9403 41.0484 21.232 42.3351 22.8254 42.3351Z" fill="#00ABEB"/>
<path d="M42.7658 42.3351C44.3592 42.3351 45.6509 41.0484 45.6509 39.4611C45.6509 37.8737 44.3592 36.587 42.7658 36.587C41.1723 36.587 39.8806 37.8737 39.8806 39.4611C39.8806 41.0484 41.1723 42.3351 42.7658 42.3351Z" fill="#00ABEB"/>
<path d="M62.712 42.3351C64.3055 42.3351 65.5972 41.0484 65.5972 39.4611C65.5972 37.8737 64.3055 36.587 62.712 36.587C61.1186 36.587 59.8269 37.8737 59.8269 39.4611C59.8269 41.0484 61.1186 42.3351 62.712 42.3351Z" fill="#00ABEB"/>
<path d="M82.6523 42.3351C84.2457 42.3351 85.5374 41.0484 85.5374 39.4611C85.5374 37.8737 84.2457 36.587 82.6523 36.587C81.0589 36.587 79.7671 37.8737 79.7671 39.4611C79.7671 41.0484 81.0589 42.3351 82.6523 42.3351Z" fill="#00ABEB"/>
<path d="M102.593 42.3351C104.186 42.3351 105.478 41.0484 105.478 39.4611C105.478 37.8737 104.186 36.587 102.593 36.587C100.999 36.587 99.7074 37.8737 99.7074 39.4611C99.7074 41.0484 100.999 42.3351 102.593 42.3351Z" fill="#00ABEB"/>
<path d="M122.533 42.3351C124.126 42.3351 125.418 41.0484 125.418 39.4611C125.418 37.8737 124.126 36.587 122.533 36.587C120.939 36.587 119.648 37.8737 119.648 39.4611C119.648 41.0484 120.939 42.3351 122.533 42.3351Z" fill="#00ABEB"/>
<path d="M142.473 42.3351C144.066 42.3351 145.358 41.0484 145.358 39.4611C145.358 37.8737 144.066 36.587 142.473 36.587C140.88 36.587 139.588 37.8737 139.588 39.4611C139.588 41.0484 140.88 42.3351 142.473 42.3351Z" fill="#00ABEB"/>
<path d="M162.413 42.3351C164.007 42.3351 165.298 41.0484 165.298 39.4611C165.298 37.8737 164.007 36.587 162.413 36.587C160.82 36.587 159.528 37.8737 159.528 39.4611C159.528 41.0484 160.82 42.3351 162.413 42.3351Z" fill="#00ABEB"/>
<path d="M182.354 42.3351C183.947 42.3351 185.239 41.0484 185.239 39.4611C185.239 37.8737 183.947 36.587 182.354 36.587C180.76 36.587 179.469 37.8737 179.469 39.4611C179.469 41.0484 180.76 42.3351 182.354 42.3351Z" fill="#00ABEB"/>
<path d="M202.294 42.3351C203.887 42.3351 205.179 41.0484 205.179 39.4611C205.179 37.8737 203.887 36.587 202.294 36.587C200.7 36.587 199.409 37.8737 199.409 39.4611C199.409 41.0484 200.7 42.3351 202.294 42.3351Z" fill="#00ABEB"/>
<path d="M222.234 42.3351C223.828 42.3351 225.119 41.0484 225.119 39.4611C225.119 37.8737 223.828 36.587 222.234 36.587C220.641 36.587 219.349 37.8737 219.349 39.4611C219.349 41.0484 220.641 42.3351 222.234 42.3351Z" fill="#00ABEB"/>
<path d="M242.174 42.3351C243.768 42.3351 245.06 41.0484 245.06 39.4611C245.06 37.8737 243.768 36.587 242.174 36.587C240.581 36.587 239.289 37.8737 239.289 39.4611C239.289 41.0484 240.581 42.3351 242.174 42.3351Z" fill="#00ABEB"/>
<path d="M262.115 42.3351C263.708 42.3351 265 41.0484 265 39.4611C265 37.8737 263.708 36.587 262.115 36.587C260.521 36.587 259.23 37.8737 259.23 39.4611C259.23 41.0484 260.521 42.3351 262.115 42.3351Z" fill="#00ABEB"/>
<path d="M2.88514 60.6345C4.47857 60.6345 5.77035 59.3477 5.77035 57.7604C5.77035 56.1731 4.47857 54.8864 2.88514 54.8864C1.29171 54.8864 0 56.1731 0 57.7604C0 59.3477 1.29171 60.6345 2.88514 60.6345Z" fill="#00ABEB"/>
<path d="M22.8254 60.6345C24.4189 60.6345 25.7106 59.3477 25.7106 57.7604C25.7106 56.1731 24.4189 54.8864 22.8254 54.8864C21.232 54.8864 19.9403 56.1731 19.9403 57.7604C19.9403 59.3477 21.232 60.6345 22.8254 60.6345Z" fill="#00ABEB"/>
<path d="M42.7658 60.6345C44.3592 60.6345 45.6509 59.3477 45.6509 57.7604C45.6509 56.1731 44.3592 54.8864 42.7658 54.8864C41.1723 54.8864 39.8806 56.1731 39.8806 57.7604C39.8806 59.3477 41.1723 60.6345 42.7658 60.6345Z" fill="#00ABEB"/>
<path d="M62.712 60.6345C64.3055 60.6345 65.5972 59.3477 65.5972 57.7604C65.5972 56.1731 64.3055 54.8864 62.712 54.8864C61.1186 54.8864 59.8269 56.1731 59.8269 57.7604C59.8269 59.3477 61.1186 60.6345 62.712 60.6345Z" fill="#00ABEB"/>
<path d="M82.6523 60.6345C84.2457 60.6345 85.5374 59.3477 85.5374 57.7604C85.5374 56.1731 84.2457 54.8864 82.6523 54.8864C81.0589 54.8864 79.7671 56.1731 79.7671 57.7604C79.7671 59.3477 81.0589 60.6345 82.6523 60.6345Z" fill="#00ABEB"/>
<path d="M102.593 60.6345C104.186 60.6345 105.478 59.3477 105.478 57.7604C105.478 56.1731 104.186 54.8864 102.593 54.8864C100.999 54.8864 99.7074 56.1731 99.7074 57.7604C99.7074 59.3477 100.999 60.6345 102.593 60.6345Z" fill="#00ABEB"/>
<path d="M122.533 60.6345C124.126 60.6345 125.418 59.3477 125.418 57.7604C125.418 56.1731 124.126 54.8864 122.533 54.8864C120.939 54.8864 119.648 56.1731 119.648 57.7604C119.648 59.3477 120.939 60.6345 122.533 60.6345Z" fill="#00ABEB"/>
<path d="M142.473 60.6345C144.066 60.6345 145.358 59.3477 145.358 57.7604C145.358 56.1731 144.066 54.8864 142.473 54.8864C140.88 54.8864 139.588 56.1731 139.588 57.7604C139.588 59.3477 140.88 60.6345 142.473 60.6345Z" fill="#00ABEB"/>
<path d="M162.413 60.6345C164.007 60.6345 165.298 59.3477 165.298 57.7604C165.298 56.1731 164.007 54.8864 162.413 54.8864C160.82 54.8864 159.528 56.1731 159.528 57.7604C159.528 59.3477 160.82 60.6345 162.413 60.6345Z" fill="#00ABEB"/>
<path d="M182.354 60.6345C183.947 60.6345 185.239 59.3477 185.239 57.7604C185.239 56.1731 183.947 54.8864 182.354 54.8864C180.76 54.8864 179.469 56.1731 179.469 57.7604C179.469 59.3477 180.76 60.6345 182.354 60.6345Z" fill="#00ABEB"/>
<path d="M202.294 60.6345C203.887 60.6345 205.179 59.3477 205.179 57.7604C205.179 56.1731 203.887 54.8864 202.294 54.8864C200.7 54.8864 199.409 56.1731 199.409 57.7604C199.409 59.3477 200.7 60.6345 202.294 60.6345Z" fill="#00ABEB"/>
<path d="M222.234 60.6345C223.828 60.6345 225.119 59.3477 225.119 57.7604C225.119 56.1731 223.828 54.8864 222.234 54.8864C220.641 54.8864 219.349 56.1731 219.349 57.7604C219.349 59.3477 220.641 60.6345 222.234 60.6345Z" fill="#00ABEB"/>
<path d="M242.174 60.6345C243.768 60.6345 245.06 59.3477 245.06 57.7604C245.06 56.1731 243.768 54.8864 242.174 54.8864C240.581 54.8864 239.289 56.1731 239.289 57.7604C239.289 59.3477 240.581 60.6345 242.174 60.6345Z" fill="#00ABEB"/>
<path d="M262.115 60.6345C263.708 60.6345 265 59.3477 265 57.7604C265 56.1731 263.708 54.8864 262.115 54.8864C260.521 54.8864 259.23 56.1731 259.23 57.7604C259.23 59.3477 260.521 60.6345 262.115 60.6345Z" fill="#00ABEB"/>
<path d="M2.88514 78.928C4.47857 78.928 5.77035 77.6412 5.77035 76.0539C5.77035 74.4666 4.47857 73.1798 2.88514 73.1798C1.29171 73.1798 0 74.4666 0 76.0539C0 77.6412 1.29171 78.928 2.88514 78.928Z" fill="#00ABEB"/>
<path d="M22.8254 78.928C24.4189 78.928 25.7106 77.6412 25.7106 76.0539C25.7106 74.4666 24.4189 73.1798 22.8254 73.1798C21.232 73.1798 19.9403 74.4666 19.9403 76.0539C19.9403 77.6412 21.232 78.928 22.8254 78.928Z" fill="#00ABEB"/>
<path d="M42.7658 78.928C44.3592 78.928 45.6509 77.6412 45.6509 76.0539C45.6509 74.4666 44.3592 73.1798 42.7658 73.1798C41.1723 73.1798 39.8806 74.4666 39.8806 76.0539C39.8806 77.6412 41.1723 78.928 42.7658 78.928Z" fill="#00ABEB"/>
<path d="M62.712 78.928C64.3055 78.928 65.5972 77.6412 65.5972 76.0539C65.5972 74.4666 64.3055 73.1798 62.712 73.1798C61.1186 73.1798 59.8269 74.4666 59.8269 76.0539C59.8269 77.6412 61.1186 78.928 62.712 78.928Z" fill="#00ABEB"/>
<path d="M82.6523 78.928C84.2457 78.928 85.5374 77.6412 85.5374 76.0539C85.5374 74.4666 84.2457 73.1798 82.6523 73.1798C81.0589 73.1798 79.7671 74.4666 79.7671 76.0539C79.7671 77.6412 81.0589 78.928 82.6523 78.928Z" fill="#00ABEB"/>
<path d="M102.593 78.928C104.186 78.928 105.478 77.6412 105.478 76.0539C105.478 74.4666 104.186 73.1798 102.593 73.1798C100.999 73.1798 99.7074 74.4666 99.7074 76.0539C99.7074 77.6412 100.999 78.928 102.593 78.928Z" fill="#00ABEB"/>
<path d="M122.533 78.928C124.126 78.928 125.418 77.6412 125.418 76.0539C125.418 74.4666 124.126 73.1798 122.533 73.1798C120.939 73.1798 119.648 74.4666 119.648 76.0539C119.648 77.6412 120.939 78.928 122.533 78.928Z" fill="#00ABEB"/>
<path d="M142.473 78.928C144.066 78.928 145.358 77.6412 145.358 76.0539C145.358 74.4666 144.066 73.1798 142.473 73.1798C140.88 73.1798 139.588 74.4666 139.588 76.0539C139.588 77.6412 140.88 78.928 142.473 78.928Z" fill="#00ABEB"/>
<path d="M162.413 78.928C164.007 78.928 165.298 77.6412 165.298 76.0539C165.298 74.4666 164.007 73.1798 162.413 73.1798C160.82 73.1798 159.528 74.4666 159.528 76.0539C159.528 77.6412 160.82 78.928 162.413 78.928Z" fill="#00ABEB"/>
<path d="M182.354 78.928C183.947 78.928 185.239 77.6412 185.239 76.0539C185.239 74.4666 183.947 73.1798 182.354 73.1798C180.76 73.1798 179.469 74.4666 179.469 76.0539C179.469 77.6412 180.76 78.928 182.354 78.928Z" fill="#00ABEB"/>
<path d="M202.294 78.928C203.887 78.928 205.179 77.6412 205.179 76.0539C205.179 74.4666 203.887 73.1798 202.294 73.1798C200.7 73.1798 199.409 74.4666 199.409 76.0539C199.409 77.6412 200.7 78.928 202.294 78.928Z" fill="#00ABEB"/>
<path d="M222.234 78.928C223.828 78.928 225.119 77.6412 225.119 76.0539C225.119 74.4666 223.828 73.1798 222.234 73.1798C220.641 73.1798 219.349 74.4666 219.349 76.0539C219.349 77.6412 220.641 78.928 222.234 78.928Z" fill="#00ABEB"/>
<path d="M242.174 78.928C243.768 78.928 245.06 77.6412 245.06 76.0539C245.06 74.4666 243.768 73.1798 242.174 73.1798C240.581 73.1798 239.289 74.4666 239.289 76.0539C239.289 77.6412 240.581 78.928 242.174 78.928Z" fill="#00ABEB"/>
<path d="M262.115 78.928C263.708 78.928 265 77.6412 265 76.0539C265 74.4666 263.708 73.1798 262.115 73.1798C260.521 73.1798 259.23 74.4666 259.23 76.0539C259.23 77.6412 260.521 78.928 262.115 78.928Z" fill="#00ABEB"/>
<path d="M2.88514 97.2273C4.47857 97.2273 5.77035 95.9406 5.77035 94.3533C5.77035 92.7659 4.47857 91.4792 2.88514 91.4792C1.29171 91.4792 0 92.7659 0 94.3533C0 95.9406 1.29171 97.2273 2.88514 97.2273Z" fill="#00ABEB"/>
<path d="M22.8254 97.2273C24.4189 97.2273 25.7106 95.9406 25.7106 94.3533C25.7106 92.7659 24.4189 91.4792 22.8254 91.4792C21.232 91.4792 19.9403 92.7659 19.9403 94.3533C19.9403 95.9406 21.232 97.2273 22.8254 97.2273Z" fill="#00ABEB"/>
<path d="M42.7658 97.2273C44.3592 97.2273 45.6509 95.9406 45.6509 94.3533C45.6509 92.7659 44.3592 91.4792 42.7658 91.4792C41.1723 91.4792 39.8806 92.7659 39.8806 94.3533C39.8806 95.9406 41.1723 97.2273 42.7658 97.2273Z" fill="#00ABEB"/>
<path d="M62.712 97.2273C64.3055 97.2273 65.5972 95.9406 65.5972 94.3533C65.5972 92.7659 64.3055 91.4792 62.712 91.4792C61.1186 91.4792 59.8269 92.7659 59.8269 94.3533C59.8269 95.9406 61.1186 97.2273 62.712 97.2273Z" fill="#00ABEB"/>
<path d="M82.6523 97.2273C84.2457 97.2273 85.5374 95.9406 85.5374 94.3533C85.5374 92.7659 84.2457 91.4792 82.6523 91.4792C81.0589 91.4792 79.7671 92.7659 79.7671 94.3533C79.7671 95.9406 81.0589 97.2273 82.6523 97.2273Z" fill="#00ABEB"/>
<path d="M102.593 97.2273C104.186 97.2273 105.478 95.9406 105.478 94.3533C105.478 92.7659 104.186 91.4792 102.593 91.4792C100.999 91.4792 99.7074 92.7659 99.7074 94.3533C99.7074 95.9406 100.999 97.2273 102.593 97.2273Z" fill="#00ABEB"/>
<path d="M122.533 97.2273C124.126 97.2273 125.418 95.9406 125.418 94.3533C125.418 92.7659 124.126 91.4792 122.533 91.4792C120.939 91.4792 119.648 92.7659 119.648 94.3533C119.648 95.9406 120.939 97.2273 122.533 97.2273Z" fill="#00ABEB"/>
<path d="M142.473 97.2273C144.066 97.2273 145.358 95.9406 145.358 94.3533C145.358 92.7659 144.066 91.4792 142.473 91.4792C140.88 91.4792 139.588 92.7659 139.588 94.3533C139.588 95.9406 140.88 97.2273 142.473 97.2273Z" fill="#00ABEB"/>
<path d="M162.413 97.2273C164.007 97.2273 165.298 95.9406 165.298 94.3533C165.298 92.7659 164.007 91.4792 162.413 91.4792C160.82 91.4792 159.528 92.7659 159.528 94.3533C159.528 95.9406 160.82 97.2273 162.413 97.2273Z" fill="#00ABEB"/>
<path d="M182.354 97.2273C183.947 97.2273 185.239 95.9406 185.239 94.3533C185.239 92.7659 183.947 91.4792 182.354 91.4792C180.76 91.4792 179.469 92.7659 179.469 94.3533C179.469 95.9406 180.76 97.2273 182.354 97.2273Z" fill="#00ABEB"/>
<path d="M202.294 97.2273C203.887 97.2273 205.179 95.9406 205.179 94.3533C205.179 92.7659 203.887 91.4792 202.294 91.4792C200.7 91.4792 199.409 92.7659 199.409 94.3533C199.409 95.9406 200.7 97.2273 202.294 97.2273Z" fill="#00ABEB"/>
<path d="M222.234 97.2273C223.828 97.2273 225.119 95.9406 225.119 94.3533C225.119 92.7659 223.828 91.4792 222.234 91.4792C220.641 91.4792 219.349 92.7659 219.349 94.3533C219.349 95.9406 220.641 97.2273 222.234 97.2273Z" fill="#00ABEB"/>
<path d="M242.174 97.2273C243.768 97.2273 245.06 95.9406 245.06 94.3533C245.06 92.7659 243.768 91.4792 242.174 91.4792C240.581 91.4792 239.289 92.7659 239.289 94.3533C239.289 95.9406 240.581 97.2273 242.174 97.2273Z" fill="#00ABEB"/>
<path d="M262.115 97.2273C263.708 97.2273 265 95.9406 265 94.3533C265 92.7659 263.708 91.4792 262.115 91.4792C260.521 91.4792 259.23 92.7659 259.23 94.3533C259.23 95.9406 260.521 97.2273 262.115 97.2273Z" fill="#00ABEB"/>
<path d="M2.88514 115.521C4.47857 115.521 5.77035 114.234 5.77035 112.647C5.77035 111.059 4.47857 109.773 2.88514 109.773C1.29171 109.773 0 111.059 0 112.647C0 114.234 1.29171 115.521 2.88514 115.521Z" fill="#00ABEB"/>
<path d="M22.8254 115.521C24.4189 115.521 25.7106 114.234 25.7106 112.647C25.7106 111.059 24.4189 109.773 22.8254 109.773C21.232 109.773 19.9403 111.059 19.9403 112.647C19.9403 114.234 21.232 115.521 22.8254 115.521Z" fill="#00ABEB"/>
<path d="M42.7658 115.521C44.3592 115.521 45.6509 114.234 45.6509 112.647C45.6509 111.059 44.3592 109.773 42.7658 109.773C41.1723 109.773 39.8806 111.059 39.8806 112.647C39.8806 114.234 41.1723 115.521 42.7658 115.521Z" fill="#00ABEB"/>
<path d="M62.712 115.521C64.3055 115.521 65.5972 114.234 65.5972 112.647C65.5972 111.059 64.3055 109.773 62.712 109.773C61.1186 109.773 59.8269 111.059 59.8269 112.647C59.8269 114.234 61.1186 115.521 62.712 115.521Z" fill="#00ABEB"/>
<path d="M82.6523 115.521C84.2457 115.521 85.5374 114.234 85.5374 112.647C85.5374 111.059 84.2457 109.773 82.6523 109.773C81.0589 109.773 79.7671 111.059 79.7671 112.647C79.7671 114.234 81.0589 115.521 82.6523 115.521Z" fill="#00ABEB"/>
<path d="M102.593 115.521C104.186 115.521 105.478 114.234 105.478 112.647C105.478 111.059 104.186 109.773 102.593 109.773C100.999 109.773 99.7074 111.059 99.7074 112.647C99.7074 114.234 100.999 115.521 102.593 115.521Z" fill="#00ABEB"/>
<path d="M122.533 115.521C124.126 115.521 125.418 114.234 125.418 112.647C125.418 111.059 124.126 109.773 122.533 109.773C120.939 109.773 119.648 111.059 119.648 112.647C119.648 114.234 120.939 115.521 122.533 115.521Z" fill="#00ABEB"/>
<path d="M142.473 115.521C144.066 115.521 145.358 114.234 145.358 112.647C145.358 111.059 144.066 109.773 142.473 109.773C140.88 109.773 139.588 111.059 139.588 112.647C139.588 114.234 140.88 115.521 142.473 115.521Z" fill="#00ABEB"/>
<path d="M162.413 115.521C164.007 115.521 165.298 114.234 165.298 112.647C165.298 111.059 164.007 109.773 162.413 109.773C160.82 109.773 159.528 111.059 159.528 112.647C159.528 114.234 160.82 115.521 162.413 115.521Z" fill="#00ABEB"/>
<path d="M182.354 115.521C183.947 115.521 185.239 114.234 185.239 112.647C185.239 111.059 183.947 109.773 182.354 109.773C180.76 109.773 179.469 111.059 179.469 112.647C179.469 114.234 180.76 115.521 182.354 115.521Z" fill="#00ABEB"/>
<path d="M202.294 115.521C203.887 115.521 205.179 114.234 205.179 112.647C205.179 111.059 203.887 109.773 202.294 109.773C200.7 109.773 199.409 111.059 199.409 112.647C199.409 114.234 200.7 115.521 202.294 115.521Z" fill="#00ABEB"/>
<path d="M222.234 115.521C223.828 115.521 225.119 114.234 225.119 112.647C225.119 111.059 223.828 109.773 222.234 109.773C220.641 109.773 219.349 111.059 219.349 112.647C219.349 114.234 220.641 115.521 222.234 115.521Z" fill="#00ABEB"/>
<path d="M242.174 115.521C243.768 115.521 245.06 114.234 245.06 112.647C245.06 111.059 243.768 109.773 242.174 109.773C240.581 109.773 239.289 111.059 239.289 112.647C239.289 114.234 240.581 115.521 242.174 115.521Z" fill="#00ABEB"/>
<path d="M262.115 115.521C263.708 115.521 265 114.234 265 112.647C265 111.059 263.708 109.773 262.115 109.773C260.521 109.773 259.23 111.059 259.23 112.647C259.23 114.234 260.521 115.521 262.115 115.521Z" fill="#00ABEB"/>
<path d="M2.88514 133.82C4.47857 133.82 5.77035 132.533 5.77035 130.946C5.77035 129.359 4.47857 128.072 2.88514 128.072C1.29171 128.072 0 129.359 0 130.946C0 132.533 1.29171 133.82 2.88514 133.82Z" fill="#00ABEB"/>
<path d="M22.8254 133.82C24.4189 133.82 25.7106 132.533 25.7106 130.946C25.7106 129.359 24.4189 128.072 22.8254 128.072C21.232 128.072 19.9403 129.359 19.9403 130.946C19.9403 132.533 21.232 133.82 22.8254 133.82Z" fill="#00ABEB"/>
<path d="M42.7658 133.82C44.3592 133.82 45.6509 132.533 45.6509 130.946C45.6509 129.359 44.3592 128.072 42.7658 128.072C41.1723 128.072 39.8806 129.359 39.8806 130.946C39.8806 132.533 41.1723 133.82 42.7658 133.82Z" fill="#00ABEB"/>
<path d="M62.712 133.82C64.3055 133.82 65.5972 132.533 65.5972 130.946C65.5972 129.359 64.3055 128.072 62.712 128.072C61.1186 128.072 59.8269 129.359 59.8269 130.946C59.8269 132.533 61.1186 133.82 62.712 133.82Z" fill="#00ABEB"/>
<path d="M82.6523 133.82C84.2457 133.82 85.5374 132.533 85.5374 130.946C85.5374 129.359 84.2457 128.072 82.6523 128.072C81.0589 128.072 79.7671 129.359 79.7671 130.946C79.7671 132.533 81.0589 133.82 82.6523 133.82Z" fill="#00ABEB"/>
<path d="M102.593 133.82C104.186 133.82 105.478 132.533 105.478 130.946C105.478 129.359 104.186 128.072 102.593 128.072C100.999 128.072 99.7074 129.359 99.7074 130.946C99.7074 132.533 100.999 133.82 102.593 133.82Z" fill="#00ABEB"/>
<path d="M122.533 133.82C124.126 133.82 125.418 132.533 125.418 130.946C125.418 129.359 124.126 128.072 122.533 128.072C120.939 128.072 119.648 129.359 119.648 130.946C119.648 132.533 120.939 133.82 122.533 133.82Z" fill="#00ABEB"/>
<path d="M142.473 133.82C144.066 133.82 145.358 132.533 145.358 130.946C145.358 129.359 144.066 128.072 142.473 128.072C140.88 128.072 139.588 129.359 139.588 130.946C139.588 132.533 140.88 133.82 142.473 133.82Z" fill="#00ABEB"/>
<path d="M162.413 133.82C164.007 133.82 165.298 132.533 165.298 130.946C165.298 129.359 164.007 128.072 162.413 128.072C160.82 128.072 159.528 129.359 159.528 130.946C159.528 132.533 160.82 133.82 162.413 133.82Z" fill="#00ABEB"/>
<path d="M182.354 133.82C183.947 133.82 185.239 132.533 185.239 130.946C185.239 129.359 183.947 128.072 182.354 128.072C180.76 128.072 179.469 129.359 179.469 130.946C179.469 132.533 180.76 133.82 182.354 133.82Z" fill="#00ABEB"/>
<path d="M202.294 133.82C203.887 133.82 205.179 132.533 205.179 130.946C205.179 129.359 203.887 128.072 202.294 128.072C200.7 128.072 199.409 129.359 199.409 130.946C199.409 132.533 200.7 133.82 202.294 133.82Z" fill="#00ABEB"/>
<path d="M222.234 133.82C223.828 133.82 225.119 132.533 225.119 130.946C225.119 129.359 223.828 128.072 222.234 128.072C220.641 128.072 219.349 129.359 219.349 130.946C219.349 132.533 220.641 133.82 222.234 133.82Z" fill="#00ABEB"/>
<path d="M242.174 133.82C243.768 133.82 245.06 132.533 245.06 130.946C245.06 129.359 243.768 128.072 242.174 128.072C240.581 128.072 239.289 129.359 239.289 130.946C239.289 132.533 240.581 133.82 242.174 133.82Z" fill="#00ABEB"/>
<path d="M262.115 133.82C263.708 133.82 265 132.533 265 130.946C265 129.359 263.708 128.072 262.115 128.072C260.521 128.072 259.23 129.359 259.23 130.946C259.23 132.533 260.521 133.82 262.115 133.82Z" fill="#00ABEB"/>
<path d="M2.88514 152.114C4.47857 152.114 5.77035 150.827 5.77035 149.24C5.77035 147.652 4.47857 146.366 2.88514 146.366C1.29171 146.366 0 147.652 0 149.24C0 150.827 1.29171 152.114 2.88514 152.114Z" fill="#00ABEB"/>
<path d="M22.8254 152.114C24.4189 152.114 25.7106 150.827 25.7106 149.24C25.7106 147.652 24.4189 146.366 22.8254 146.366C21.232 146.366 19.9403 147.652 19.9403 149.24C19.9403 150.827 21.232 152.114 22.8254 152.114Z" fill="#00ABEB"/>
<path d="M42.7658 152.114C44.3592 152.114 45.6509 150.827 45.6509 149.24C45.6509 147.652 44.3592 146.366 42.7658 146.366C41.1723 146.366 39.8806 147.652 39.8806 149.24C39.8806 150.827 41.1723 152.114 42.7658 152.114Z" fill="#00ABEB"/>
<path d="M62.712 152.114C64.3055 152.114 65.5972 150.827 65.5972 149.24C65.5972 147.652 64.3055 146.366 62.712 146.366C61.1186 146.366 59.8269 147.652 59.8269 149.24C59.8269 150.827 61.1186 152.114 62.712 152.114Z" fill="#00ABEB"/>
<path d="M82.6523 152.114C84.2457 152.114 85.5374 150.827 85.5374 149.24C85.5374 147.652 84.2457 146.366 82.6523 146.366C81.0589 146.366 79.7671 147.652 79.7671 149.24C79.7671 150.827 81.0589 152.114 82.6523 152.114Z" fill="#00ABEB"/>
<path d="M102.593 152.114C104.186 152.114 105.478 150.827 105.478 149.24C105.478 147.652 104.186 146.366 102.593 146.366C100.999 146.366 99.7074 147.652 99.7074 149.24C99.7074 150.827 100.999 152.114 102.593 152.114Z" fill="#00ABEB"/>
<path d="M122.533 152.114C124.126 152.114 125.418 150.827 125.418 149.24C125.418 147.652 124.126 146.366 122.533 146.366C120.939 146.366 119.648 147.652 119.648 149.24C119.648 150.827 120.939 152.114 122.533 152.114Z" fill="#00ABEB"/>
<path d="M142.473 152.114C144.066 152.114 145.358 150.827 145.358 149.24C145.358 147.652 144.066 146.366 142.473 146.366C140.88 146.366 139.588 147.652 139.588 149.24C139.588 150.827 140.88 152.114 142.473 152.114Z" fill="#00ABEB"/>
<path d="M162.413 152.114C164.007 152.114 165.298 150.827 165.298 149.24C165.298 147.652 164.007 146.366 162.413 146.366C160.82 146.366 159.528 147.652 159.528 149.24C159.528 150.827 160.82 152.114 162.413 152.114Z" fill="#00ABEB"/>
<path d="M182.354 152.114C183.947 152.114 185.239 150.827 185.239 149.24C185.239 147.652 183.947 146.366 182.354 146.366C180.76 146.366 179.469 147.652 179.469 149.24C179.469 150.827 180.76 152.114 182.354 152.114Z" fill="#00ABEB"/>
<path d="M202.294 152.114C203.887 152.114 205.179 150.827 205.179 149.24C205.179 147.652 203.887 146.366 202.294 146.366C200.7 146.366 199.409 147.652 199.409 149.24C199.409 150.827 200.7 152.114 202.294 152.114Z" fill="#00ABEB"/>
<path d="M222.234 152.114C223.828 152.114 225.119 150.827 225.119 149.24C225.119 147.652 223.828 146.366 222.234 146.366C220.641 146.366 219.349 147.652 219.349 149.24C219.349 150.827 220.641 152.114 222.234 152.114Z" fill="#00ABEB"/>
<path d="M242.174 152.114C243.768 152.114 245.06 150.827 245.06 149.24C245.06 147.652 243.768 146.366 242.174 146.366C240.581 146.366 239.289 147.652 239.289 149.24C239.289 150.827 240.581 152.114 242.174 152.114Z" fill="#00ABEB"/>
<path d="M262.115 152.114C263.708 152.114 265 150.827 265 149.24C265 147.652 263.708 146.366 262.115 146.366C260.521 146.366 259.23 147.652 259.23 149.24C259.23 150.827 260.521 152.114 262.115 152.114Z" fill="#00ABEB"/>
<path d="M2.88514 170.407C4.47857 170.407 5.77035 169.12 5.77035 167.533C5.77035 165.946 4.47857 164.659 2.88514 164.659C1.29171 164.659 0 165.946 0 167.533C0 169.12 1.29171 170.407 2.88514 170.407Z" fill="#00ABEB"/>
<path d="M22.8254 170.407C24.4189 170.407 25.7106 169.12 25.7106 167.533C25.7106 165.946 24.4189 164.659 22.8254 164.659C21.232 164.659 19.9403 165.946 19.9403 167.533C19.9403 169.12 21.232 170.407 22.8254 170.407Z" fill="#00ABEB"/>
<path d="M42.7658 170.407C44.3592 170.407 45.6509 169.12 45.6509 167.533C45.6509 165.946 44.3592 164.659 42.7658 164.659C41.1723 164.659 39.8806 165.946 39.8806 167.533C39.8806 169.12 41.1723 170.407 42.7658 170.407Z" fill="#00ABEB"/>
<path d="M62.712 170.407C64.3055 170.407 65.5972 169.12 65.5972 167.533C65.5972 165.946 64.3055 164.659 62.712 164.659C61.1186 164.659 59.8269 165.946 59.8269 167.533C59.8269 169.12 61.1186 170.407 62.712 170.407Z" fill="#00ABEB"/>
<path d="M82.6523 170.407C84.2457 170.407 85.5374 169.12 85.5374 167.533C85.5374 165.946 84.2457 164.659 82.6523 164.659C81.0589 164.659 79.7671 165.946 79.7671 167.533C79.7671 169.12 81.0589 170.407 82.6523 170.407Z" fill="#00ABEB"/>
<path d="M102.593 170.407C104.186 170.407 105.478 169.12 105.478 167.533C105.478 165.946 104.186 164.659 102.593 164.659C100.999 164.659 99.7074 165.946 99.7074 167.533C99.7074 169.12 100.999 170.407 102.593 170.407Z" fill="#00ABEB"/>
<path d="M122.533 170.407C124.126 170.407 125.418 169.12 125.418 167.533C125.418 165.946 124.126 164.659 122.533 164.659C120.939 164.659 119.648 165.946 119.648 167.533C119.648 169.12 120.939 170.407 122.533 170.407Z" fill="#00ABEB"/>
<path d="M142.473 170.407C144.066 170.407 145.358 169.12 145.358 167.533C145.358 165.946 144.066 164.659 142.473 164.659C140.88 164.659 139.588 165.946 139.588 167.533C139.588 169.12 140.88 170.407 142.473 170.407Z" fill="#00ABEB"/>
<path d="M162.413 170.407C164.007 170.407 165.298 169.12 165.298 167.533C165.298 165.946 164.007 164.659 162.413 164.659C160.82 164.659 159.528 165.946 159.528 167.533C159.528 169.12 160.82 170.407 162.413 170.407Z" fill="#00ABEB"/>
<path d="M182.354 170.407C183.947 170.407 185.239 169.12 185.239 167.533C185.239 165.946 183.947 164.659 182.354 164.659C180.76 164.659 179.469 165.946 179.469 167.533C179.469 169.12 180.76 170.407 182.354 170.407Z" fill="#00ABEB"/>
<path d="M202.294 170.407C203.887 170.407 205.179 169.12 205.179 167.533C205.179 165.946 203.887 164.659 202.294 164.659C200.7 164.659 199.409 165.946 199.409 167.533C199.409 169.12 200.7 170.407 202.294 170.407Z" fill="#00ABEB"/>
<path d="M222.234 170.407C223.828 170.407 225.119 169.12 225.119 167.533C225.119 165.946 223.828 164.659 222.234 164.659C220.641 164.659 219.349 165.946 219.349 167.533C219.349 169.12 220.641 170.407 222.234 170.407Z" fill="#00ABEB"/>
<path d="M242.174 170.407C243.768 170.407 245.06 169.12 245.06 167.533C245.06 165.946 243.768 164.659 242.174 164.659C240.581 164.659 239.289 165.946 239.289 167.533C239.289 169.12 240.581 170.407 242.174 170.407Z" fill="#00ABEB"/>
<path d="M262.115 170.407C263.708 170.407 265 169.12 265 167.533C265 165.946 263.708 164.659 262.115 164.659C260.521 164.659 259.23 165.946 259.23 167.533C259.23 169.12 260.521 170.407 262.115 170.407Z" fill="#00ABEB"/>
<path d="M2.88514 188.707C4.47857 188.707 5.77035 187.42 5.77035 185.832C5.77035 184.245 4.47857 182.958 2.88514 182.958C1.29171 182.958 0 184.245 0 185.832C0 187.42 1.29171 188.707 2.88514 188.707Z" fill="#00ABEB"/>
<path d="M22.8254 188.707C24.4189 188.707 25.7106 187.42 25.7106 185.832C25.7106 184.245 24.4189 182.958 22.8254 182.958C21.232 182.958 19.9403 184.245 19.9403 185.832C19.9403 187.42 21.232 188.707 22.8254 188.707Z" fill="#00ABEB"/>
<path d="M42.7658 188.707C44.3592 188.707 45.6509 187.42 45.6509 185.832C45.6509 184.245 44.3592 182.958 42.7658 182.958C41.1723 182.958 39.8806 184.245 39.8806 185.832C39.8806 187.42 41.1723 188.707 42.7658 188.707Z" fill="#00ABEB"/>
<path d="M62.712 188.707C64.3055 188.707 65.5972 187.42 65.5972 185.832C65.5972 184.245 64.3055 182.958 62.712 182.958C61.1186 182.958 59.8269 184.245 59.8269 185.832C59.8269 187.42 61.1186 188.707 62.712 188.707Z" fill="#00ABEB"/>
<path d="M82.6523 188.707C84.2457 188.707 85.5374 187.42 85.5374 185.832C85.5374 184.245 84.2457 182.958 82.6523 182.958C81.0589 182.958 79.7671 184.245 79.7671 185.832C79.7671 187.42 81.0589 188.707 82.6523 188.707Z" fill="#00ABEB"/>
<path d="M102.593 188.707C104.186 188.707 105.478 187.42 105.478 185.832C105.478 184.245 104.186 182.958 102.593 182.958C100.999 182.958 99.7074 184.245 99.7074 185.832C99.7074 187.42 100.999 188.707 102.593 188.707Z" fill="#00ABEB"/>
<path d="M122.533 188.707C124.126 188.707 125.418 187.42 125.418 185.832C125.418 184.245 124.126 182.958 122.533 182.958C120.939 182.958 119.648 184.245 119.648 185.832C119.648 187.42 120.939 188.707 122.533 188.707Z" fill="#00ABEB"/>
<path d="M142.473 188.707C144.066 188.707 145.358 187.42 145.358 185.832C145.358 184.245 144.066 182.958 142.473 182.958C140.88 182.958 139.588 184.245 139.588 185.832C139.588 187.42 140.88 188.707 142.473 188.707Z" fill="#00ABEB"/>
<path d="M162.413 188.707C164.007 188.707 165.298 187.42 165.298 185.832C165.298 184.245 164.007 182.958 162.413 182.958C160.82 182.958 159.528 184.245 159.528 185.832C159.528 187.42 160.82 188.707 162.413 188.707Z" fill="#00ABEB"/>
<path d="M182.354 188.707C183.947 188.707 185.239 187.42 185.239 185.832C185.239 184.245 183.947 182.958 182.354 182.958C180.76 182.958 179.469 184.245 179.469 185.832C179.469 187.42 180.76 188.707 182.354 188.707Z" fill="#00ABEB"/>
<path d="M202.294 188.707C203.887 188.707 205.179 187.42 205.179 185.832C205.179 184.245 203.887 182.958 202.294 182.958C200.7 182.958 199.409 184.245 199.409 185.832C199.409 187.42 200.7 188.707 202.294 188.707Z" fill="#00ABEB"/>
<path d="M222.234 188.707C223.828 188.707 225.119 187.42 225.119 185.832C225.119 184.245 223.828 182.958 222.234 182.958C220.641 182.958 219.349 184.245 219.349 185.832C219.349 187.42 220.641 188.707 222.234 188.707Z" fill="#00ABEB"/>
<path d="M242.174 188.707C243.768 188.707 245.06 187.42 245.06 185.832C245.06 184.245 243.768 182.958 242.174 182.958C240.581 182.958 239.289 184.245 239.289 185.832C239.289 187.42 240.581 188.707 242.174 188.707Z" fill="#00ABEB"/>
<path d="M262.115 188.707C263.708 188.707 265 187.42 265 185.832C265 184.245 263.708 182.958 262.115 182.958C260.521 182.958 259.23 184.245 259.23 185.832C259.23 187.42 260.521 188.707 262.115 188.707Z" fill="#00ABEB"/>
<path d="M2.88514 207C4.47857 207 5.77035 205.713 5.77035 204.126C5.77035 202.539 4.47857 201.252 2.88514 201.252C1.29171 201.252 0 202.539 0 204.126C0 205.713 1.29171 207 2.88514 207Z" fill="#00ABEB"/>
<path d="M22.8254 207C24.4189 207 25.7106 205.713 25.7106 204.126C25.7106 202.539 24.4189 201.252 22.8254 201.252C21.232 201.252 19.9403 202.539 19.9403 204.126C19.9403 205.713 21.232 207 22.8254 207Z" fill="#00ABEB"/>
<path d="M42.7658 207C44.3592 207 45.6509 205.713 45.6509 204.126C45.6509 202.539 44.3592 201.252 42.7658 201.252C41.1723 201.252 39.8806 202.539 39.8806 204.126C39.8806 205.713 41.1723 207 42.7658 207Z" fill="#00ABEB"/>
<path d="M62.712 207C64.3055 207 65.5972 205.713 65.5972 204.126C65.5972 202.539 64.3055 201.252 62.712 201.252C61.1186 201.252 59.8269 202.539 59.8269 204.126C59.8269 205.713 61.1186 207 62.712 207Z" fill="#00ABEB"/>
<path d="M82.6523 207C84.2457 207 85.5374 205.713 85.5374 204.126C85.5374 202.539 84.2457 201.252 82.6523 201.252C81.0589 201.252 79.7671 202.539 79.7671 204.126C79.7671 205.713 81.0589 207 82.6523 207Z" fill="#00ABEB"/>
<path d="M102.593 207C104.186 207 105.478 205.713 105.478 204.126C105.478 202.539 104.186 201.252 102.593 201.252C100.999 201.252 99.7074 202.539 99.7074 204.126C99.7074 205.713 100.999 207 102.593 207Z" fill="#00ABEB"/>
<path d="M122.533 207C124.126 207 125.418 205.713 125.418 204.126C125.418 202.539 124.126 201.252 122.533 201.252C120.939 201.252 119.648 202.539 119.648 204.126C119.648 205.713 120.939 207 122.533 207Z" fill="#00ABEB"/>
<path d="M142.473 207C144.066 207 145.358 205.713 145.358 204.126C145.358 202.539 144.066 201.252 142.473 201.252C140.88 201.252 139.588 202.539 139.588 204.126C139.588 205.713 140.88 207 142.473 207Z" fill="#00ABEB"/>
<path d="M162.413 207C164.007 207 165.298 205.713 165.298 204.126C165.298 202.539 164.007 201.252 162.413 201.252C160.82 201.252 159.528 202.539 159.528 204.126C159.528 205.713 160.82 207 162.413 207Z" fill="#00ABEB"/>
<path d="M182.354 207C183.947 207 185.239 205.713 185.239 204.126C185.239 202.539 183.947 201.252 182.354 201.252C180.76 201.252 179.469 202.539 179.469 204.126C179.469 205.713 180.76 207 182.354 207Z" fill="#00ABEB"/>
<path d="M202.294 207C203.887 207 205.179 205.713 205.179 204.126C205.179 202.539 203.887 201.252 202.294 201.252C200.7 201.252 199.409 202.539 199.409 204.126C199.409 205.713 200.7 207 202.294 207Z" fill="#00ABEB"/>
<path d="M222.234 207C223.828 207 225.119 205.713 225.119 204.126C225.119 202.539 223.828 201.252 222.234 201.252C220.641 201.252 219.349 202.539 219.349 204.126C219.349 205.713 220.641 207 222.234 207Z" fill="#00ABEB"/>
<path d="M242.174 207C243.768 207 245.06 205.713 245.06 204.126C245.06 202.539 243.768 201.252 242.174 201.252C240.581 201.252 239.289 202.539 239.289 204.126C239.289 205.713 240.581 207 242.174 207Z" fill="#00ABEB"/>
<path d="M262.115 207C263.708 207 265 205.713 265 204.126C265 202.539 263.708 201.252 262.115 201.252C260.521 201.252 259.23 202.539 259.23 204.126C259.23 205.713 260.521 207 262.115 207Z" fill="#00ABEB"/>
</g>
</svg>
